<?xml version="1.0" encoding="utf-8"?>
<!-- Generator: Adobe Illustrator 22.0.1, SVG Export Plug-In . SVG Version: 6.00 Build 0)  -->
<svg version="1.1" id="Layer_1" xmlns="http://www.w3.org/2000/svg" xmlns:xlink="http://www.w3.org/1999/xlink" x="0px" y="0px"
	 viewBox="0 0 25 25" style="enable-background:new 0 0 25 25;" xml:space="preserve">
<g>
	<g>
		<path d="M22.8,15.7v-0.3c-0.1,0-0.1,0.1-0.2,0.1c-0.7,0.2-1.1-0.2-1-0.9c0-0.3,0.1-0.5,0.1-0.8c0.1-0.6,0.4-1,1-1.1v-0.3
			c0-2.2,0-4.4,0-6.7c0-0.2,0-0.4-0.1-0.6c-0.3-1.4-1.7-2.5-3-2.5c-4.8,0-9.5,0-14.3,0c-0.2,0-0.4,0-0.6,0.1C3.4,3,2.4,4.3,2.4,5.7
			c0,4.8,0,9.6,0,14.3c0,0.1,0,0.2,0,0.4C2.8,22.1,4,23,5.8,23c4.6,0,9.1,0,13.7,0c0.3,0,0.6,0,0.9-0.1c1.4-0.3,2.5-1.6,2.5-3
			C22.8,18.5,22.8,17.1,22.8,15.7z M4.9,16.5c-0.1,0.4-0.6,0.7-1.1,0.7c-0.4,0-0.7-0.4-0.6-0.8c0.1-0.4,0.1-0.8,0.2-1.2
			c0.1-0.4,0.5-0.8,0.9-0.8c0.5-0.1,0.8,0.2,0.8,0.9C5.1,15.6,5,16.1,4.9,16.5z M7.9,16.6c-0.1,0.8-0.3,1.7-0.4,2.5
			c-0.1,0.6-0.6,1-1.2,0.9c-0.4-0.1-0.6-0.4-0.6-0.8c0.2-1.2,0.4-2.3,0.6-3.5c0.1-0.5,0.1-0.9,0.6-1.2c0.3-0.1,0.6-0.2,0.9,0
			c0.2,0.1,0.3,0.4,0.3,0.6C8.1,15.6,8,16.1,7.9,16.6z M11.2,15c-0.2,1-0.4,2.1-0.5,3.1c-0.2,1-0.3,2-0.5,3
			c-0.1,0.5-0.7,0.9-1.2,0.8c-0.4-0.1-0.6-0.5-0.5-1c0.4-2.1,0.8-4.3,1.1-6.4c0.1-0.4,0.1-0.7,0.2-1.1c0.1-0.4,0.5-0.8,0.9-0.8
			c0.4,0,0.8,0.3,0.8,0.7C11.4,13.9,11.3,14.4,11.2,15z M15.1,9.9c-0.2,1.1-0.4,2.3-0.6,3.4c-0.2,1.1-0.4,2.3-0.6,3.4
			c-0.2,1.1-0.4,2.2-0.6,3.4c-0.1,0.5-0.5,0.8-1,0.8c-0.5,0-0.8-0.5-0.7-0.9c0.3-1.5,0.5-3,0.8-4.5c0.3-1.7,0.6-3.4,0.9-5.1
			c0-0.3,0.1-0.5,0.1-0.8c0.1-0.5,0.7-0.8,1.2-0.7C15,9.2,15.2,9.5,15.1,9.9z M18.1,10.5c-0.2,1-0.4,2.1-0.5,3.1c-0.2,1-0.3,2-0.5,3
			c-0.1,0.5-0.7,0.9-1.2,0.8c-0.4-0.1-0.6-0.5-0.5-1c0.4-2.1,0.8-4.3,1.1-6.4c0.1-0.4,0.1-0.7,0.2-1.1c0.1-0.4,0.5-0.8,0.9-0.8
			c0.4,0,0.8,0.3,0.8,0.7C18.3,9.5,18.2,10,18.1,10.5z M20.3,14.7c-0.1,0.5-0.5,0.9-1,0.9c-0.5,0-0.8-0.4-0.7-0.9
			c0.2-1.3,0.4-2.5,0.6-3.8c0.1-0.5,0.3-0.8,0.8-0.9c0.6-0.2,1.1,0.2,1,0.9C20.8,12.1,20.6,13.4,20.3,14.7z"/>
	</g>
</g>
</svg>
