<?xml version="1.0" encoding="utf-8"?>
<!-- Generator: Adobe Illustrator 23.0.2, SVG Export Plug-In . SVG Version: 6.00 Build 0)  -->
<svg version="1.1" id="Layer_1" xmlns="http://www.w3.org/2000/svg" xmlns:xlink="http://www.w3.org/1999/xlink" x="0px" y="0px"
	 viewBox="0 0 32 32" style="enable-background:new 0 0 32 32;" xml:space="preserve">
<title>ElasticSearch_IntegrationImage</title>
<path d="M26.9,7c0-0.2-0.1-0.5-0.3-0.6c-0.2-0.2-0.5-0.5-0.8-0.7c-2-1.3-4.1-2.3-6.4-2.6c-5.2-0.8-9.8,0-14,3.4C5.2,6.5,5,6.7,5,7
	c-0.1,2.2-0.1,4.3-0.2,6.5c-0.1,3.6,1,6.8,3.3,9.6c2,2.5,4.7,4.6,7.6,6.1c0.1,0.1,0.5,0.1,0.7,0c1.1-0.7,2.2-1.4,3.3-2
	c1.9-1.4,3.6-3,5-4.8c1.4-1.8,2.3-3.7,2.4-6c0.1-1.6,0.2-3.2,0.2-4.6C27.1,10.1,27.1,8.5,26.9,7z M22.7,18.3c-0.3,0.6-1,1.2-1.5,1.8
	c-0.1,0.1-0.3,0.2-0.5,0.2c-1-0.2-1.8-0.5-2.6-0.7L18,19.5c0.7-0.8,1.6-1.5,2.2-2.3c2-2.5,1.4-5.7-0.8-7.4c-2.2-1.9-5.5-1.7-7.5,0.6
	c-1.6,1.8-1.8,4-1,6.2c0.6,1.7,1.9,2.8,3.4,3.6c1.6,1,3.4,1.4,5.2,1.7c0.7,0.1,1.4,0.2,2.2,0.3c-0.3,0.3-0.6,0.7-1,1
	c-1.4,1.3-1.4,1.3-3,1c-2-0.5-4-1.2-5.8-2.5c-2.8-1.9-4.2-4.6-4.1-7.9c0.1-3.4,1.8-5.8,5-7.1c3.4-1.5,7.1-0.5,9.3,2.2
	C24.4,11.5,24.8,15.1,22.7,18.3z"/>
</svg>
