<?xml version="1.0" encoding="utf-8"?>
<!-- Generator: Adobe Illustrator 23.0.1, SVG Export Plug-In . SVG Version: 6.00 Build 0)  -->
<svg version="1.1" id="Layer_1" xmlns="http://www.w3.org/2000/svg" xmlns:xlink="http://www.w3.org/1999/xlink" x="0px" y="0px"
	 viewBox="0 0 25 25" style="enable-background:new 0 0 25 25;" xml:space="preserve">
<g>
	<path d="M12.7,5.1c-1,2.8-2,5.5-2.9,8.2c-0.9,2.5-1.8,4.9-2.6,7.4c-0.4,1.2-0.8,1.5-2.1,1.5c-0.3,0-0.6,0-1,0
		c0.1-0.2,0.1-0.3,0.2-0.5c2.2-6.2,4.5-12.3,6.7-18.5c0.1-0.3,0.2-0.5,0.6-0.4c0.4,0,0.9,0,1.4,0c1.2,0,1.8,0.5,2.2,1.6
		c1.2,3.2,2.3,6.3,3.5,9.5c0.8,2.1,1.5,4.2,2.3,6.3c0.1,0.4,0.2,0.9,0.1,1.3c0,0.4-0.4,0.7-0.8,0.7c0,0,0,0,0,0
		c-1.2,0.1-1.2,0.1-1.6-1.1c-1.8-5.2-3.7-10.3-5.5-15.5C12.9,5.5,12.8,5.3,12.7,5.1z"/>
	<path d="M10,16.6c0-1.5,1.2-2.6,2.6-2.6c1.4,0,2.6,1.1,2.6,2.6c0,1.5-1.1,2.6-2.6,2.6C11.2,19.2,10,18.1,10,16.6z"/>
</g>
</svg>
