<?xml version="1.0" encoding="utf-8"?>
<!-- Generator: Adobe Illustrator 23.0.3, SVG Export Plug-In . SVG Version: 6.00 Build 0)  -->
<svg version="1.1" id="Layer_1" xmlns="http://www.w3.org/2000/svg" xmlns:xlink="http://www.w3.org/1999/xlink" x="0px" y="0px"
	 viewBox="0 0 32 32" style="enable-background:new 0 0 32 32;" xml:space="preserve">
<title>ElasticSearch_IntegrationImage</title>
<g>
	<g>
		<path d="M28.2,8.1L16.7,1.5c-0.4-0.2-1-0.2-1.4,0L3.8,8.1C3.4,8.4,3.1,8.9,3.1,9.3v13.3c0,0.5,0.3,1,0.7,1.2l11.5,6.7
			c0.4,0.2,1,0.2,1.4,0l11.5-6.7c0.4-0.2,0.7-0.7,0.7-1.2V9.3C28.9,8.9,28.6,8.4,28.2,8.1z M8.7,7.5l7.2-4.2c0.1-0.1,0.2-0.1,0.3,0
			l7.2,4.4c0.2,0.1,0.2,0.4,0,0.5L21.9,9c-0.1,0.1-0.2,0-0.3,0l-5.5-3.5c-0.1-0.1-0.2-0.1-0.3,0l-5.6,3.3c-0.1,0.1-0.2,0.1-0.3,0
			L8.7,8C8.5,7.9,8.5,7.6,8.7,7.5z M22.4,23.2c0,0.1-0.1,0.2-0.2,0.3L16.1,27C16,27,15.9,27,15.8,27l-6.1-3.4
			c-0.1-0.1-0.2-0.2-0.2-0.3v-1.8c0-0.2,0.2-0.4,0.4-0.3l5.9,3.2c0.1,0,0.2,0,0.3,0l5.9-3.2c0.2-0.1,0.4,0,0.4,0.3V23.2z M24.2,22.9
			V12.4c-0.8,0.4-1.4,0.8-2.1,1.1c-1.8,1-3.6,2.1-5.4,3.1c-0.5,0.2-1.2,0.2-1.7,0c-2.4-1.3-4.8-2.8-7.4-4.2v10.5
			c-2-0.5-2.1-0.6-2.1-2.4c0-3.1,0-6.2,0-9.2c0-1.7,0.6-2,2-1.1c2.5,1.4,5,2.8,7.4,4.3c0.7,0.4,1.2,0.4,1.9,0c2.5-1.5,5-2.9,7.5-4.3
			c1.3-0.7,1.8-0.5,1.8,1c0,3.1,0,6.2,0,9.4C26.2,22.2,26.2,22.2,24.2,22.9z"/>
	</g>
</g>
</svg>
