<!-- Generated by IcoMoon.io -->
<svg version="1.1" xmlns="http://www.w3.org/2000/svg" width="32" height="32" viewBox="0 0 32 32">
<title>have-i-been-pwned</title>
<path d="M3.264 3.52h-1.984c-0.192 0-0.32 0.128-0.32 0.32l0.32 7.296c0 0.192 0.128 0.32 0.32 0.32h1.408c0.192 0 0.32-0.128 0.32-0.32l0.256-7.296c0-0.192-0.128-0.32-0.32-0.32zM9.92 10.752c-0.96 0-1.792 0.768-1.792 1.792s0.768 1.792 1.792 1.792 1.792-0.768 1.792-1.792-0.832-1.792-1.792-1.792zM11.136 20.992h-1.792c-0.32 0-0.512 0.256-0.576 0.512l-0.064 1.92c0 0.32-0.128 0.704-0.256 1.024l-1.856 3.712c-0.064 0.064 0 0.192 0.128 0.192h1.408c0.192 0 0.384-0.128 0.512-0.256l2.624-3.456c0.32-0.448 0.512-0.96 0.512-1.472v-1.6c-0.128-0.32-0.32-0.576-0.64-0.576zM21.632 15.808h-6.912c-0.256 0-0.384 0.192-0.384 0.384v1.536c0 0.256 0.192 0.384 0.384 0.384h6.848c0.256 0 0.384-0.192 0.384-0.384v-1.536c0.064-0.192-0.128-0.384-0.32-0.384zM30.656 15.808h-6.848c-0.256 0-0.384 0.192-0.384 0.384v1.536c0 0.256 0.192 0.384 0.384 0.384h6.848c0.256 0 0.384-0.192 0.384-0.384v-1.536c0-0.192-0.128-0.384-0.384-0.384z"></path>
</svg>
