<!-- Generated by IcoMoon.io -->
<svg version="1.1" xmlns="http://www.w3.org/2000/svg" width="32" height="32" viewBox="0 0 32 32">
<title>Crowdstrike-logo</title>
<path d="M7.488 11.072c2.24 1.472 4.8 2.56 6.464 4.864-0.512-2.112-3.072-4.032-4.992-5.312-2.752-1.664-6.080-4.096-8.576-6.912 0.96 3.328 4.992 5.952 7.104 7.36zM30.336 21.632c-0.064-0.576-0.384-0.896-0.832-1.152-0.832-0.448-1.664-0.768-2.56-1.024-1.408-0.448-1.536-0.512-1.024-1.856 0.448-1.152 0.384-1.792-0.64-2.56-0.896-0.64-1.984-1.088-3.008-1.472-2.304-0.896-4.736-1.472-7.040-2.304-6.4-1.984-9.6-6.336-9.984-6.72 1.024 3.136 4.352 5.056 5.504 5.952 1.472 1.152 2.816 2.368 3.712 4.096 0.576 1.152 1.28 2.24 1.984 3.264 1.344 1.984 3.2 3.264 5.76 3.136 0.896-0.064 1.792 0 2.688 0 1.024 0 2.112 0.256 3.008 0.64 1.408 0.64 2.56 1.472 3.584 2.688 0.576-1.088-1.152-2.688-1.152-2.688zM28.736 20.928c0.96 0.064 1.28 0.256 1.28 0.896-0.448-0.256-0.832-0.64-1.28-0.896zM14.080 17.792c-0.192-0.768-1.728-2.624-4.224-3.968-1.856-1.024-5.44-2.752-8.32-5.76 0.384 2.304 5.248 5.376 7.936 6.592 1.856 0.768 3.264 1.6 4.608 3.136zM12.8 19.584c-0.448 0.064-0.896 0-1.28-0.064-1.344-0.256-2.88-1.088-4.096-2.112 0.832 1.216 3.2 2.752 4.928 3.328 1.344 0.448 2.752 0.704 4.096 1.216 0.384 0.128 0.832 0.32 1.216 0.512-1.728-1.792-3.712-3.328-6.272-3.968 0.448 0.32 1.088 0.512 1.408 1.088zM22.144 21.568c-2.88 0.448-5.184-1.088-6.336-1.984 1.28 1.152 3.392 3.136 4.672 4.736-0.768 0-1.856-0.832-1.856-0.832 0.64 0.896 1.92 2.048 3.008 2.56 0 0-0.32 0.128-0.896-0.064 0.832 0.704 1.92 0.768 2.56 0.384 0.32 0.832 0.768 1.792 2.176 1.728-1.536-0.64-0.832-1.664-0.256-1.92 0.32-0.128 0.896-0.256 1.344-0.064s0.576 0.704 0.64 1.152c0.064-0.128 0.128-0.192 0.128-0.256 0.32-0.896 0-1.28-0.832-1.344-0.384-0.064-2.048 0.128-2.752-1.088 0.64 0 1.472-0.064 1.984-0.32 1.344-0.64 2.368-1.152 4.224-0.896-2.88-2.432-5.056-2.24-7.808-1.792z"></path>
</svg>
