<?xml version="1.0" encoding="utf-8"?>
<!-- Generator: Adobe Illustrator 22.0.1, SVG Export Plug-In . SVG Version: 6.00 Build 0)  -->
<svg version="1.1" id="Layer_1" xmlns="http://www.w3.org/2000/svg" xmlns:xlink="http://www.w3.org/1999/xlink" x="0px" y="0px"
	 viewBox="0 0 50 50" style="enable-background:new 0 0 50 50;" xml:space="preserve">
<g>
	<g>
		<path d="M37.5,12.4c-6.3,0-10.5,4.1-10.5,10.4c0,6.3,4.4,10.1,10.1,10.1c5.2,0,10.3-3.3,10.3-10.4C47.4,16.5,43.4,12.4,37.5,12.4z
			 M37.3,28.5c-2.6,0-4-2.5-4-5.9c0-2.9,1.1-5.9,4-5.9c2.8,0,3.9,3,3.9,5.9C41.1,26.1,39.6,28.5,37.3,28.5z M16.4,12.4
			c-2.8,0-5.1,1.1-6.5,3.2H9.8l-0.3-2.7H4.2c0.1,1.8,0.2,4,0.2,6.6v20.9h6.1v-9.7h0.1c0.9,1.3,2.7,2.2,5.1,2.2
			c4.4,0,8.9-3.3,8.9-10.5C24.5,16.1,20.6,12.4,16.4,12.4z M14.1,28.2c-1.8,0-3.2-1.3-3.6-2.9c-0.1-0.4-0.1-0.8-0.1-1.3v-2.7
			c0-0.4,0-0.7,0.1-1.1c0.4-1.8,1.9-3.1,3.6-3.1c2.7,0,4.1,2.4,4.1,5.5C18.3,26,16.7,28.2,14.1,28.2z"/>
	</g>
</g>
</svg>
