<?xml version="1.0" encoding="utf-8"?>
<!-- Generator: Adobe Illustrator 23.0.1, SVG Export Plug-In . SVG Version: 6.00 Build 0)  -->
<svg version="1.1" id="Layer_1" xmlns="http://www.w3.org/2000/svg" xmlns:xlink="http://www.w3.org/1999/xlink" x="0px" y="0px"
	 viewBox="0 0 50 50" style="enable-background:new 0 0 50 50;" xml:space="preserve">
<g>
	<g>
		<path d="M44.3,19.1c-1.1-0.7-2.4-1.1-3.7-1.2c-0.3,0-0.5-0.1-0.6-0.4c-0.3-0.6-0.7-1.1-1.1-1.6c-0.1-0.1-0.2-0.2-0.3-0.1
			c-4.6,0.9-8.4,3.2-11.1,7.1c0,0,0,0,0,0.1c0.1,0,0.2-0.1,0.3-0.1c2.7-1.2,5.5-1.4,8.4-0.4c0.5,0.2,1,0.4,1.5,0.8
			c1.8,1.3,1,3.6-0.4,4.2c-0.5,0.2-1,0.3-1.5,0.4c-2.1,0.2-4.1,0.2-6.2,0.5c-3,0.3-5.8,1.3-8.1,3.3c-1,0.9-2.1,1.7-2.9,2.7
			c0-0.5,0-0.9,0-1.3c0.3-3.2,1.6-6,3.4-8.7c2.3-3.4,5.4-6.1,8.8-8.4c0.1-0.1,0.2-0.1,0.2-0.2c0,0,0,0,0-0.1c-2.1,0-4.1,0.3-6,1
			c3-2.2,6.5-3.4,10.2-3.8c0,0,0-0.1,0-0.1c-0.7-0.3-1.4-0.6-2.1-0.8c-4.4-1.3-8.6-0.9-12.5,1.6c-0.6,0.4-1.1,0.9-1.7,1.4
			c-0.2,0.2-0.4,0.2-0.6,0.2c-3.8-0.7-7.2,0.3-10,3c-0.3,0.3-0.6,0.5-1,0.6c-2.4,0.8-4,2.4-4.5,4.9c0,0,0,0.1-0.1,0.1v1.5
			c0.1,0.5,0.2,0.9,0.4,1.4c0.7,1.7,1.9,2.8,3.5,3.5c0.2,0.1,0.4,0.2,0.5,0.4c1.9,2.6,4.5,4,7.7,4.4c1.2,0.1,2.3,0.1,3.5-0.2
			c0.2,0,0.4,0,0.5,0.2c2.1,2.1,4.7,3.2,7.6,3.7c0.3,0,0.6,0.1,1,0.1h2.2c0.6-0.1,1.2-0.2,1.8-0.3c3.2-0.7,5.9-2.1,7.8-4.8
			c0.4-0.6,0.8-1.3,1.1-2c0.1-0.2,0.2-0.3,0.5-0.3c3.1-0.2,5.8-2.4,6.5-5.3C47.9,23.3,46.7,20.7,44.3,19.1z"/>
	</g>
</g>
</svg>
