<?xml version="1.0" encoding="utf-8"?>
<!-- Generator: Adobe Illustrator 22.0.1, SVG Export Plug-In . SVG Version: 6.00 Build 0)  -->
<svg version="1.1" id="Layer_1" xmlns="http://www.w3.org/2000/svg" xmlns:xlink="http://www.w3.org/1999/xlink" x="0px" y="0px"
	 viewBox="0 0 25 25" style="enable-background:new 0 0 25 25;" xml:space="preserve">
<g>
	<g>
		<path d="M15.5,12.4c0-1.3-0.3-2.5-0.8-3.6L22,5.9l-0.6-1.5L14,7.3c-2-3.6-5.4-5.8-5.6-6L7.5,2.7c0,0,3.1,2.1,5,5.2l-9.1,3.5
			c-0.4,0.2-0.7,0.5-0.7,1s0.3,0.8,0.7,1l9.3,3.5c-1.1,1.9-2.8,3.7-5.2,5.5l0.9,1.3c2.7-2,4.6-4,5.8-6.2l7.3,2.8l0.6-1.5L14.9,16
			C15.3,14.8,15.5,13.6,15.5,12.4z M5.3,12.4l7.9-3.1c0.4,1,0.7,2,0.7,3.1c0,1-0.2,2-0.5,3L5.3,12.4z"/>
	</g>
</g>
</svg>
