<?xml version="1.0" encoding="utf-8"?>
<!-- Generator: Adobe Illustrator 23.0.3, SVG Export Plug-In . SVG Version: 6.00 Build 0)  -->
<svg version="1.1" id="Layer_1" xmlns="http://www.w3.org/2000/svg" xmlns:xlink="http://www.w3.org/1999/xlink" x="0px" y="0px"
	 viewBox="0 0 25 25" style="enable-background:new 0 0 25 25;" xml:space="preserve">
<g>
	<path d="M22.5,15.8c0,1.4,0,2.7,0,4.1c0,1.5-1.1,2.6-2.6,2.6c-2.5,0-5,0-7.5,0c-4.4,0-8.4-3.1-9.5-7.3C1.2,8.8,5.3,4.1,9.7,2.9
		c6.3-1.7,11.1,2.2,12.4,6.6c0.3,1,0.4,1.9,0.4,2.9C22.5,13.6,22.5,14.7,22.5,15.8C22.5,15.8,22.5,15.8,22.5,15.8z M7.5,12.5
		c0,2.7,2.2,4.9,4.9,5c2.7,0.1,5.2-2.2,5.2-5c0-2.8-2.2-5.1-5-5.1C9.7,7.5,7.5,9.7,7.5,12.5z"/>
</g>
</svg>
