<?xml version="1.0" encoding="utf-8"?>
<!-- Generator: Adobe Illustrator 22.0.1, SVG Export Plug-In . SVG Version: 6.00 Build 0)  -->
<svg version="1.1" id="Layer_1" xmlns="http://www.w3.org/2000/svg" xmlns:xlink="http://www.w3.org/1999/xlink" x="0px" y="0px"
	 viewBox="0 0 25 25" style="enable-background:new 0 0 25 25;" xml:space="preserve">
<g>
	<g>
		<path d="M23.2,10.8c0-0.7-0.3-1.3-0.7-1.8c-0.9-0.9-2.3-1.2-3.5-0.6c-0.4,0.2-0.9,0.5-1.3,0.8c0,0,0,0,0,0c0,0,0,0-0.1-0.1
			c-0.6-0.7-1.5-1-2.4-1c-0.9,0-1.6,0.4-2.3,0.9c-0.2,0.1-0.3,0.2-0.4,0c-0.5-0.6-1.2-0.9-2-0.9c-1.2,0-2.1,0.6-2.7,1.8
			c-0.5,1.2-1,2.4-1.5,3.6c0,0.1-0.1,0.2-0.2,0.3C6.1,13.7,6,13.6,6,13.5C5.3,12,4.7,10.4,4,8.9C3.8,8.4,3.3,8.1,2.8,8.2
			C2,8.4,1.6,9.1,2,9.9c0.9,1.9,1.7,3.8,2.6,5.7c0.1,0.2,0.2,0.4,0.4,0.6c0.6,0.9,1.8,0.9,2.5,0c0.2-0.2,0.3-0.5,0.4-0.8
			c0.5-1.1,1-2.1,1.5-3.2c0.3-0.6,0.5-1.2,0.8-1.7c0.1-0.2,0.2-0.3,0.4-0.2c0.2,0,0.3,0.2,0.3,0.4c0,0.1,0,0.2,0,0.3
			c0,1.5,0,2.9,0,4.4c0,0.2,0,0.4,0,0.6c0.1,0.4,0.3,0.7,0.8,0.9c0.8,0.2,1.5-0.3,1.5-1.2c0-1.3,0-2.7,0-4c0-0.3,0.1-0.6,0.3-0.9
			c0.3-0.5,0.9-0.6,1.5-0.5c0.5,0.2,0.9,0.6,0.9,1.2c0,1.3,0,2.6,0,3.8c0,0.2,0,0.4,0.1,0.6c0.1,0.4,0.3,0.7,0.7,0.8
			c0.8,0.2,1.5-0.3,1.5-1.1c0-1.3,0-2.6,0-4c0-0.4,0.1-0.8,0.4-1.1c0.4-0.4,1-0.5,1.5-0.3c0.5,0.2,0.8,0.6,0.8,1.2c0,1.3,0,2.7,0,4
			c0,0.6,0.3,1.1,0.8,1.3c0.8,0.3,1.6-0.3,1.6-1.2C23.2,14,23.2,12.4,23.2,10.8z"/>
	</g>
</g>
</svg>
