<?xml version="1.0" encoding="utf-8"?>
<!-- Generator: Adobe Illustrator 22.1.0, SVG Export Plug-In . SVG Version: 6.00 Build 0)  -->
<svg version="1.1" id="Layer_1" xmlns="http://www.w3.org/2000/svg" xmlns:xlink="http://www.w3.org/1999/xlink" x="0px" y="0px"
	 viewBox="0 0 50 50" style="enable-background:new 0 0 50 50;" xml:space="preserve">
<g>
	<path d="M33.3,21.4c3.7,0,7.2,0,10.8,0c0,2.3,0,4.6,0,6.9c-3.6,0-7.1,0-10.8,0C33.3,26.1,33.3,23.8,33.3,21.4z"/>
	<path d="M16.7,28.4c-3.6,0-7,0-10.6,0c0-2.3,0-4.5,0-6.9c3.5,0,7,0,10.6,0C16.7,23.7,16.7,25.9,16.7,28.4z"/>
	<path d="M19.8,31.4c3.5,0,6.9,0,10.4,0c0,2.3,0,4.6,0,7c-3.4,0-6.9,0-10.4,0C19.8,36.1,19.8,33.8,19.8,31.4z"/>
	<path d="M19.8,11.5c3.5,0,6.9,0,10.4,0c0,2.2,0,4.5,0,6.8c-3.4,0-6.9,0-10.4,0C19.8,16.1,19.8,13.9,19.8,11.5z"/>
	<path d="M33.4,31.4c3.6,0,7.1,0,10.8,0c-0.1,2.6-0.8,4.8-2.8,6.5c-0.4,0.4-1.1,0.6-1.6,0.6c-2.1,0.1-4.1,0-6.3,0
		C33.4,36.2,33.4,33.9,33.4,31.4z"/>
	<path d="M16.8,11.5c0,2.4,0,4.6,0,6.9c-3.6,0-7.1,0-10.7,0c-0.1-2.3,0.6-4.3,2.2-5.9c0.5-0.5,1.4-0.9,2.2-1
		C12.5,11.4,14.6,11.5,16.8,11.5z"/>
	<path d="M33.3,11.5c0,2.4,0,4.6,0,6.9c3.6,0,7.1,0,10.7,0c0.1-2.3-0.6-4.3-2.2-5.9c-0.5-0.5-1.4-0.9-2.2-1
		C37.6,11.4,35.5,11.5,33.3,11.5z"/>
	<path d="M16.6,31.4c-3.6,0-7.1,0-10.8,0c0.1,2.6,0.8,4.8,2.8,6.5c0.4,0.4,1.1,0.6,1.6,0.6c2.1,0.1,4.1,0,6.3,0
		C16.6,36.2,16.6,33.9,16.6,31.4z"/>
</g>
</svg>
