<?xml version="1.0" encoding="utf-8"?>
<!-- Generator: Adobe Illustrator 22.0.1, SVG Export Plug-In . SVG Version: 6.00 Build 0)  -->
<svg version="1.1" id="Layer_1" xmlns="http://www.w3.org/2000/svg" xmlns:xlink="http://www.w3.org/1999/xlink" x="0px" y="0px"
	 viewBox="0 0 25 25" style="enable-background:new 0 0 25 25;" xml:space="preserve">
<g>
	<g>
		<path d="M23.8,19c-1.2-2.4-2.4-4.8-3.6-7.2c-1-2.1-2.1-4.2-3.2-6.2c-1.3-2.4-3.7-2.9-6.1-2.4C9.2,3.7,8.2,5,7.4,6.5
			c-1.3,2.5-2.5,5-3.8,7.6c-0.9,1.7-1.7,3.5-2.6,5.2c-0.4,0.8-0.1,1.2,0.7,1.2c0.4,0,0.8,0,1.2,0c0.5,0,0.7-0.2,0.9-0.6
			c1.3-2.6,2.6-5.2,3.9-7.8c0.9-1.7,1.7-3.4,2.6-5.1c0.3-0.7,0.9-1.1,1.6-1.2c1.3-0.2,2.1,0.3,2.8,1.6c0.7,1.5,1.5,3,2.2,4.4
			c1.4,2.7,2.7,5.4,4.1,8.1c0.2,0.4,0.5,0.6,0.9,0.6c0.2,0,0.4,0,0.6,0c0.1,0,0.2,0,0.3,0C24.2,20.5,24.4,20.2,23.8,19z M13.8,13.1
			h-2.6c-0.3,0-0.6,0.3-0.6,0.6v1.4c0,0.3,0.3,0.6,0.6,0.6h2.6c0.3,0,0.6-0.3,0.6-0.6v-1.4C14.4,13.4,14.1,13.1,13.8,13.1z"/>
	</g>
</g>
</svg>
