<?xml version="1.0" encoding="utf-8"?>
<!-- Generator: Adobe Illustrator 22.1.0, SVG Export Plug-In . SVG Version: 6.00 Build 0)  -->
<svg version="1.1" id="Layer_1" xmlns="http://www.w3.org/2000/svg" xmlns:xlink="http://www.w3.org/1999/xlink" x="0px" y="0px"
	 viewBox="0 0 50 50" style="enable-background:new 0 0 50 50;" xml:space="preserve">
<style type="text/css">
	.st0{fill-rule:evenodd;clip-rule:evenodd;}
</style>
<g>
	<path class="st0" d="M29.9,2.7c1.1,4.1,5.1,6,3.3,10.9c-0.9,2.6-4.2,5.1-2,8.6c-0.6,0.3-1.3-1.1-1.5-1.8c-0.6-3.1,2-6.9,2-10.2
		C31.7,7,29.5,5.7,29.9,2.7"/>
	<path class="st0" d="M37,30.5c-2.3-1.8-7.5-2-9.7,0c-5.1,4.5-0.6,13.8,8.2,11.8c-7.1,4.2-17.2-1.9-14.3-11.5c-5,1.4-9.8,3.2-14,5.4
		c5.1,6.4,13,10.1,23.5,11c-13.6,1-20.5-6.1-28.9-10.9c7.2-3.6,16-11,27.1-10.2C32.2,26.4,35.9,27.7,37,30.5"/>
	<path class="st0" d="M35.3,19.8c-0.7,0.9-1.4,1.7-2.5,2.1c1.4-1.7,0.2-7.5,3.1-8.2c-0.5,5.8,4.2,7.8,7.4,11.2c2.6,2.8,5.4,6,4.8,12
		c-0.7,6.3-7.2,8.9-12.7,10.1c4.4-2,9.8-3.6,10.5-8.9C47.2,28.9,38.6,25,35.3,19.8"/>
	<path class="st0" d="M39.9,28.8c2.7,2.7,4,7.9,0,10.8c-2.6,1.9-6,1.1-7.5-0.4c-1-0.9-1.1-2.3-1-3.2c0.4-1.8,2.6-3.7,4.1-2.2
		c-1.4-1.1-4.2,2.4-1.7,3.7c0.3,0.2,1,0.3,1,0.3c3.6,0.1,6.7-3.8,4.1-8.1c-0.4-0.6-0.8-1.2-1.3-1.8c0,0-1-1.3-0.5-1
		c0.4,0.2,0.8,0.4,1,0.5C38.4,27.5,39.5,28.3,39.9,28.8"/>
</g>
</svg>
