<?xml version="1.0" encoding="utf-8"?>
<!-- Generator: Adobe Illustrator 22.0.1, SVG Export Plug-In . SVG Version: 6.00 Build 0)  -->
<svg version="1.1" id="Layer_1" xmlns="http://www.w3.org/2000/svg" xmlns:xlink="http://www.w3.org/1999/xlink" x="0px" y="0px"
	 viewBox="0 0 25 25" style="enable-background:new 0 0 25 25;" xml:space="preserve">
<line x1="57.8" y1="-4" x2="76.5" y2="-6.6"/>
<g>
	<g>
		<path d="M16.9,12.3c-0.2,0.5-0.3,1-0.5,1.5h-0.1c-0.2-0.5-0.3-1-0.5-1.5l-1.4-3.7h-2.1v8.3h1.7v-3.1c0-0.8-0.2-2-0.2-2.8H14l0.7,2
			l1.2,3.2h1l1.2-3.2l0.7-2h0.1c-0.1,0.8-0.2,2-0.2,2.8v3.1h1.7V8.6h-2.1L16.9,12.3z M9.3,12.5c-0.1,0.9-0.2,1.7-0.3,2.6H9
			c-0.2-0.9-0.3-1.8-0.5-2.6L7.6,8.6H6l-0.9,3.9c-0.2,0.9-0.3,1.8-0.5,2.6H4.5c-0.1-0.9-0.2-1.8-0.3-2.6L3.6,8.6H1.7l1.5,8.3h2.3
			l0.8-3.8c0.1-0.6,0.2-1.3,0.3-1.9h0.1c0.1,0.6,0.2,1.3,0.3,1.9l0.8,3.8h2.4l1.5-8.3H9.9L9.3,12.5z M21.7,8.6v8.3h1.9V8.6H21.7z"/>
	</g>
</g>
</svg>
