<?xml version="1.0" encoding="utf-8"?>
<!-- Generator: Adobe Illustrator 22.0.1, SVG Export Plug-In . SVG Version: 6.00 Build 0)  -->
<svg version="1.1" id="Layer_1" xmlns="http://www.w3.org/2000/svg" xmlns:xlink="http://www.w3.org/1999/xlink" x="0px" y="0px"
	 viewBox="0 0 25 25" style="enable-background:new 0 0 25 25;" xml:space="preserve">
<g>
	<g>
		<path d="M21.1,14.1c-0.3,0.4-0.6,0.8-1,1.1c-0.4-0.4-0.7-0.7-1-1.1c-0.3,0.2-0.5,0.5-0.7,0.7C18.1,15,18,15.3,18,15.7
			c-0.1,1.9-1.6,3.4-3.5,3.4c-1.2,0-2.5,0-3.7,0c-0.4,0-0.8,0-1.2-0.1C8.1,18.6,7,17.2,7,15.7c0-2.1,0-4.2,0-6.4
			c0-1.8,1.5-3.4,3.3-3.4c1.4,0,2.9,0,4.3,0c1.8,0,3.3,1.6,3.4,3.4c0,0.2,0,0.4,0,0.6c1.3,0,2.6,0,3.9,0c0.2,0,0.2-0.1,0.2-0.2
			c0-0.6,0-1.1,0-1.7c0-0.5-0.1-1-0.2-1.5c-0.8-3-3.5-5.1-6.6-5c-1.8,0-3.6,0-5.5,0c-1.1,0-2.1,0.2-3,0.7C4.5,3.4,3.1,5.2,3,7.9
			c-0.1,2.6,0,5.2,0,7.8c0,0.8,0,1.6,0.1,2.5c0.5,3.1,3.3,5.5,6.5,5.5c2,0,4,0,5.9,0c0.7,0,1.3-0.1,2-0.3c2.3-0.8,3.8-2.5,4.5-4.9
			c0.3-1,0.1-2.1,0.2-3.1c0-0.1,0-0.1-0.1-0.2C21.8,14.8,21.5,14.4,21.1,14.1z M8.5,12.5c0,0.8,0.7,1.5,1.5,1.5
			c0.9,0,1.6-0.7,1.6-1.5c0-0.8-0.7-1.5-1.5-1.5C9.3,11,8.5,11.7,8.5,12.5z M21.9,10.9c-1.2,0-2.4,0-3.5,0c-0.1,0-0.2,0-0.3,0v0.8
			h4.1c0-0.2,0-0.4,0-0.5C22.2,11,22.1,10.9,21.9,10.9z"/>
	</g>
</g>
</svg>
