<?xml version="1.0" encoding="utf-8"?>
<!-- Generator: Adobe Illustrator 23.0.1, SVG Export Plug-In . SVG Version: 6.00 Build 0)  -->
<svg version="1.1" id="Layer_1" xmlns="http://www.w3.org/2000/svg" xmlns:xlink="http://www.w3.org/1999/xlink" x="0px" y="0px"
	 viewBox="0 0 50 50" style="enable-background:new 0 0 50 50;" xml:space="preserve">
<g>
	<path d="M2.7,22.8c0.6-3.4,1.5-6.6,3.4-9.6C10.7,5.7,19.7,1.6,28.7,3.1c8.8,1.4,16,8.1,17.9,16.7c1.7,7.6-0.1,14.3-5.2,20.2
		c-0.3,0.4-0.7,0.7-1.3,1.2C36,28.6,31.4,16.3,22.7,5.7c-0.5,0.9-0.9,1.5-1.3,2.2c-2.1,3.9-4.3,7.8-6.4,11.8
		c-0.6,1.2-1.1,1.1-1.7,0.1c-1.2-2.1-2.5-4.1-3.9-6.5c-1.9,6.3-3.7,12.3-5.4,18.2c-0.1,0-0.3,0-0.4,0c-0.3-1.4-0.7-2.9-1-4.3
		C2.7,25.7,2.7,24.3,2.7,22.8z"/>
	<path d="M9.9,18.8c1.5,2.8,2.9,5.3,4.4,8c2.8-4.2,5.5-8.2,8.4-12.7c1.1,2,2,3.7,2.8,5.4c3.6,7.9,5.7,16.2,7.4,24.7
		c0.2,1.2-0.1,1.6-1.3,2C21.2,49.5,9.8,44.7,5,34.7c-0.4-0.8-0.5-2-0.2-2.8c1.4-4,2.9-8,4.4-12C9.3,19.7,9.5,19.4,9.9,18.8z"/>
</g>
</svg>
