<?xml version="1.0" encoding="utf-8"?>
<!-- Generator: Adobe Illustrator 23.0.1, SVG Export Plug-In . SVG Version: 6.00 Build 0)  -->
<svg version="1.1" id="Layer_1" xmlns="http://www.w3.org/2000/svg" xmlns:xlink="http://www.w3.org/1999/xlink" x="0px" y="0px"
	 viewBox="0 0 50 50" style="enable-background:new 0 0 50 50;" xml:space="preserve">
<g>
	<path d="M22.6,28.1c-4.2,3.6-9.5,3.1-12.8,0.5c-3.5-2.8-4.8-7.5-3-11.6c1-2.3,2.7-4.1,5-5.1c2.3-1,4.7-1.2,7-0.5
		c2.6-5.5,9.1-6.9,13.4-3.8c4.3,3.1,5.3,9.6,0.8,13.9c4.1,0.3,7.3,2.1,9.4,5.7c1.5,2.6,1.8,5.5,1,8.4c-1.7,6-7.9,9.4-13.9,7.7
		C23.9,41.9,19.6,35.1,22.6,28.1z M39,33.4c0.2-3.8-3.3-6.8-6.8-6.8c-3.8,0-6.8,3.1-6.9,6.8c0,3.6,3.1,6.9,6.8,6.9
		C35.8,40.3,39.2,37,39,33.4z M10.5,20.8c0.1,3,2.6,5.7,5.8,5.7c3.1,0,5.6-2.6,5.6-5.6c0-3.1-2.6-5.7-5.7-5.7
		C13.1,15.2,10.7,17.9,10.5,20.8z M32.2,14.8c0-2.8-2.2-5-4.9-5c-2.8,0-5,2.2-5,4.9c0,2.8,2.2,5,4.9,5C30,19.7,32.2,17.5,32.2,14.8z
		"/>
</g>
</svg>
