<!-- Generated by IcoMoon.io -->
<svg version="1.1" xmlns="http://www.w3.org/2000/svg" width="32" height="32" viewBox="0 0 32 32">
<title>sophos-icon</title>
<path d="M30.336 12.992c-0.064-1.664-0.064-3.328-0.128-4.992 0 0 0 0 0 0 0-0.128 0-0.256 0-0.448-0.064-1.984-0.128-3.904-0.192-5.888 0-0.512 0-0.576-0.576-0.576-8.064 0-16.128 0-24.128 0-1.024 0-2.048 0-3.072 0-0.192 0.064-0.32 0.128-0.32 0.384 0 0.448 0 0.896 0 1.344-0.064 3.392-0.128 6.848-0.192 10.24 0 0.448 0 0.896 0 1.344-0.064 1.28-0.128 2.56 0.192 3.776 0.448 1.728 1.344 3.264 2.496 4.608 1.088 1.344 2.368 2.496 3.712 3.52 2.368 1.792 4.928 3.264 7.616 4.48 0.128 0.064 0.384 0.064 0.576 0 2.624-1.216 5.12-2.624 7.424-4.352 2.176-1.664 4.16-3.52 5.504-5.952 0.64-1.152 1.088-2.432 1.152-3.776 0-1.216 0-2.432-0.064-3.712zM27.008 20.032c-0.96 1.408-2.112 2.624-3.456 3.712-2.176 1.792-4.544 3.2-6.976 4.416-0.448 0.192-0.768 0.192-1.152 0-2.88-1.472-5.568-3.136-7.936-5.312-1.28-1.152-2.368-2.496-3.136-4.032-0.512-1.152-0.704-2.304-0.64-3.584 0.064-0.512 0-0.96 0-1.472 0.064-3.2 0.128-6.528 0.192-9.792 0-0.256 0-0.512 0.064-0.832 0.32 0 0.576 0 0.832 0 7.616 0 15.168 0 22.784 0 0.512 0 0.512 0.064 0.576 0.576 0 1.856 0.064 3.648 0.064 5.504 0.064 2.176 0.064 4.416 0.128 6.592 0.064 1.536-0.448 2.944-1.344 4.224zM18.944 12.16c-0.64-0.064-1.28-0.064-1.856-0.128-1.024-0.064-2.112-0.064-3.136-0.064-0.576 0-0.96-0.32-1.216-0.896-0.32-0.768 0.192-1.664 1.024-1.792 0.32-0.064 0.64-0.064 0.96-0.064 1.856 0 3.648 0 5.504 0 0.448 0 0.896 0 1.408 0v-2.176c-1.216 0-2.368 0-3.584 0-1.536 0-3.136 0-4.672 0.064-0.576 0-1.152 0.192-1.6 0.448-1.344 0.832-1.792 2.112-1.6 3.648s1.024 2.496 2.496 2.88c0.704 0.128 1.408 0.192 2.112 0.192 1.088 0.064 2.176 0 3.264 0.064 0.768 0.064 1.344 0.704 1.408 1.344 0.064 0.768-0.32 1.408-1.216 1.6-0.32 0.064-0.64 0.064-0.96 0.064-2.176 0-4.352 0-6.528 0-0.32 0-0.448 0.128-0.448 0.384 0 0.448 0 0.96 0 1.408 0 0.32 0.064 0.384 0.384 0.384 2.432 0 4.864 0 7.232 0 0.512 0 0.96-0.064 1.472-0.128 1.088-0.128 1.792-0.768 2.24-1.728 0.384-0.832 0.448-1.664 0.32-2.496-0.256-1.728-1.024-2.752-3.008-3.008z"></path>
</svg>
