<?xml version="1.0" encoding="utf-8"?>
<!-- Generator: Adobe Illustrator 22.1.0, SVG Export Plug-In . SVG Version: 6.00 Build 0)  -->
<svg version="1.1" id="Layer_1" xmlns="http://www.w3.org/2000/svg" xmlns:xlink="http://www.w3.org/1999/xlink" x="0px" y="0px"
	 viewBox="0 0 50 50" style="enable-background:new 0 0 50 50;" xml:space="preserve">
<style type="text/css">
	.st0{fill:#231F20;}
</style>
<g>
	<g>
		<path class="st0" d="M46.6,1.3H3.3c-1.1,0-2,0.9-2,2v43.4c0,1.1,0.9,2,2,2h43.4c1.1,0,2-0.9,2-2V3.3C48.7,2.2,47.8,1.3,46.6,1.3z
			 M14.9,40.7H7.7V9h7.2V40.7z M40.9,26.1c-2.4,2.3-6.1,3.4-10.2,3.4c-1,0-1.8-0.1-2.5-0.1v11.3h-7.1V9.4c2.2-0.4,5.4-0.7,9.7-0.7
			c4.4,0,7.6,0.8,9.7,2.5c2,1.6,3.4,4.2,3.4,7.3C43.9,21.8,42.8,24.4,40.9,26.1z M31.1,14.2c-1.4,0-2.4,0.1-2.9,0.2v9.4
			c0.5,0.1,1.4,0.1,2.4,0.1c3.8,0,6.2-1.9,6.2-5.1C36.8,15.9,34.8,14.2,31.1,14.2z"/>
	</g>
</g>
</svg>
