<!-- Generated by IcoMoon.io -->
<svg version="1.1" xmlns="http://www.w3.org/2000/svg" width="32" height="32" viewBox="0 0 32 32">
<title>HTTP_IntegrationImage</title>
<path d="M6.656 15.488h-2.816v-3.2h-1.92v8.32h1.92v-3.456h2.944v3.456h1.92v-8.32h-2.048v3.2zM27.52 12.288h-2.816v8.32h1.92v-2.816h1.024c1.792 0 3.328-0.896 3.328-2.816-0.128-2.048-1.664-2.688-3.456-2.688zM27.392 16.256h-0.896v-2.56h0.896c1.024 0 1.536 0.256 1.536 1.152 0 1.024-0.512 1.408-1.536 1.408zM9.6 13.824h2.304v6.784h1.92v-6.784h2.304v-1.536h-6.528v1.536zM17.024 13.824h2.304v6.784h1.92v-6.784h2.304v-1.536h-6.528v1.536z"></path>
</svg>
