<?xml version="1.0" encoding="utf-8"?>
<!-- Generator: Adobe Illustrator 23.0.1, SVG Export Plug-In . SVG Version: 6.00 Build 0)  -->
<svg version="1.1" id="Layer_1" xmlns="http://www.w3.org/2000/svg" xmlns:xlink="http://www.w3.org/1999/xlink" x="0px" y="0px"
	 viewBox="0 0 50 50" style="enable-background:new 0 0 50 50;" xml:space="preserve">
<g>
	<g>
		<path d="M15.5,9.1l-9.1,3.4l8.2,3.3l8.5-3.6L15.5,9.1z M32.7,8.2l-7.6-3.1l-7.2,2.9l7.4,3.4L32.7,8.2z M36,16l8-3.4l-9.1-3.4
			l-7.6,3.3L36,16z M25.3,13.1l-8.5,3.8l8.5,3.3l8.3-3.4L25.3,13.1z M35.8,17.5L36,28.5l8.5-3.1V14.2L35.8,17.5z M25.8,32.2l8.3-3.1
			V18.2l-8.3,3.1V32.2z M25.6,44.8l8.7-3.4V31.1L25.8,34L25.6,44.8z M15.7,29.1l8.5,3.1V21.5l-8.5-3.3V29.1z M15.7,41.4l8.3,3.3
			l0.2-10.5l-8.5-3.3V41.4z M5.7,25.5l8.2,3.1V17.3l-8.3-3.1L5.7,25.5z M5.5,37.4l8.3,3.4V30.3l-8.2-3.1L5.5,37.4z"/>
	</g>
</g>
</svg>
