<?xml version="1.0" encoding="utf-8"?>
<!-- Generator: Adobe Illustrator 22.1.0, SVG Export Plug-In . SVG Version: 6.00 Build 0)  -->
<svg version="1.1" id="Layer_1" xmlns="http://www.w3.org/2000/svg" xmlns:xlink="http://www.w3.org/1999/xlink" x="0px" y="0px"
	 viewBox="0 0 50 50" style="enable-background:new 0 0 50 50;" xml:space="preserve">
<g>
	<g>
		<path d="M15.8,2.5v8.9h2.8V5.3h27v9.8c0,3.4-0.9,6.6-2.7,9.3c-3.7,5.6-9.4,7.6-10.8,8.1c-1.4-0.4-7.1-2.5-10.8-8.1
			c-0.6-0.8-0.6-0.9-0.9-1.8l-3,0c0.5,1.1,1,2.3,1.7,3.3c4.8,7.3,12.4,9.3,12.8,9.3l0.3,0.1l0.3-0.1c0.3-0.1,7.9-2,12.8-9.3
			c2.1-3.1,3.2-6.9,3.2-10.8V2.5H15.8z M18.5,44.6c-1.4-0.4-7.1-2.5-10.8-8.1C5.9,33.9,5,30.7,5,27.3v-9.8h27v11.2l2.8-1.4V14.7H2.3
			v12.6c0,3.9,1.1,7.6,3.2,10.8c4.8,7.3,12.4,9.3,12.8,9.3l0.3,0.1l0.3-0.1c0.3-0.1,7.9-2,12.8-9.3l-2.9-0.7
			C25,43,19.9,44.2,18.5,44.6z"/>
	</g>
</g>
</svg>
