<!-- Generated by IcoMoon.io -->
<svg version="1.1" xmlns="http://www.w3.org/2000/svg" width="32" height="32" viewBox="0 0 32 32">
<title>Talos_IntegrationImage</title>
<path d="M25.088 7.936l2.176-2.304c-0.384-0.448-0.768-0.832-1.216-1.152l-2.112 2.24c0.512 0.256 0.96 0.64 1.152 1.216zM6.656 9.024c0-1.536 1.216-2.752 2.752-2.752h13.184l2.56-2.624c-2.624-1.856-5.76-3.008-9.152-3.008-8.512 0-15.36 6.848-15.36 15.36 0 3.648 1.28 6.976 3.392 9.6l2.624-2.752v-13.824zM28.16 6.592l-2.816 2.88v13.44c0 1.536-1.216 2.752-2.752 2.752h-12.8l-2.688 2.816c2.496 1.792 5.568 2.88 8.896 2.88 8.512 0 15.36-6.848 15.36-15.36 0-3.52-1.216-6.784-3.2-9.408zM7.040 24.32l-2.176 2.24c0.384 0.384 0.768 0.832 1.216 1.152l2.176-2.24c-0.512-0.256-0.96-0.704-1.216-1.152z"></path>
</svg>
