<?xml version="1.0" encoding="utf-8"?>
<!-- Generator: Adobe Illustrator 23.0.1, SVG Export Plug-In . SVG Version: 6.00 Build 0)  -->
<svg version="1.1" id="Layer_1" xmlns="http://www.w3.org/2000/svg" xmlns:xlink="http://www.w3.org/1999/xlink" x="0px" y="0px"
	 viewBox="0 0 50 50" style="enable-background:new 0 0 50 50;" xml:space="preserve">
<g>
	<path d="M6.4,39.6c0-9.6,0-19,0-28.3c0-0.4,0.6-1.2,1-1.3c7-1.2,14-2.4,21-3.5c0,12.4,0,24.7,0,37.1C21.1,42.2,13.8,40.9,6.4,39.6z
		 M15.3,20.9c0,4.1,0,8,0,11.8c1.2,0,2,0,3,0c0-4.1,0-8,0-12c1.5-0.1,2.7-0.1,3.9-0.2c0-0.9,0-1.6,0-2.5c-3.7,0.2-7.2,0.3-10.8,0.5
		c0.1,0.9,0.1,1.6,0.2,2.4C12.8,20.9,13.9,20.9,15.3,20.9z"/>
	<path d="M29.9,36.2c0-4.3,0-8.7,0-13.3c2.1,0,4.1,0,6.3,0c0,3.8,0.1,7.4,0,11.1C36.1,36.4,33,37.4,29.9,36.2z"/>
	<path d="M37.2,34c0-3.4,0-6.4,0-9.5c2.1,0,4,0,6.2,0c0,2.3,0.2,4.6-0.1,6.9c-0.1,0.9-1.4,1.9-2.4,2.3C39.9,34.1,38.6,33.9,37.2,34z
		"/>
	<path d="M40.4,16.5c1.9,0,3.2,1.4,3.2,3.3c0,1.8-1.5,3.2-3.3,3.2c-1.8,0-3.2-1.6-3.2-3.3C37.1,17.9,38.6,16.5,40.4,16.5z"/>
	<path d="M32.2,21c-2-0.4-2.4-0.6-2.4-4.1c0-1.9,1.1-2.3,2.5-2.4c1.7-0.1,3.2,1.5,3.2,3.3C35.5,19.6,34,21.1,32.2,21z"/>
</g>
</svg>
