<!-- Generated by IcoMoon.io -->
<svg version="1.1" xmlns="http://www.w3.org/2000/svg" width="32" height="32" viewBox="0 0 32 32">
<title>ThreatCrowd-icon</title>
<path d="M23.808 17.984c-2.496 0-4.544 2.048-4.544 4.544s2.048 4.544 4.544 4.544c2.496 0 4.544-2.048 4.544-4.544s-2.048-4.544-4.544-4.544zM23.808 15.104c-1.984 0-3.776 0.768-5.12 2.048l-7.808-7.808c0.64-0.832 0.96-1.92 0.96-3.072 0-2.88-2.368-5.248-5.248-5.248s-5.248 2.368-5.248 5.248c0 2.88 2.368 5.248 5.248 5.248 1.28 0 2.496-0.448 3.392-1.28l7.872 7.808c-0.896 1.216-1.472 2.752-1.472 4.416 0 4.096 3.328 7.424 7.424 7.424s7.424-3.328 7.424-7.424-3.328-7.36-7.424-7.36zM6.592 10.24c-2.176 0-3.968-1.792-3.968-3.968s1.792-3.968 3.968-3.968c2.176 0 3.968 1.792 3.968 3.968 0 2.24-1.792 3.968-3.968 3.968zM23.808 28.672c-3.392 0-6.144-2.752-6.144-6.144s2.752-6.144 6.144-6.144c3.392 0 6.144 2.752 6.144 6.144s-2.752 6.144-6.144 6.144z"></path>
</svg>
