<?xml version="1.0" encoding="utf-8"?>
<!-- Generator: Adobe Illustrator 22.0.1, SVG Export Plug-In . SVG Version: 6.00 Build 0)  -->
<svg version="1.1" id="Layer_1" xmlns="http://www.w3.org/2000/svg" xmlns:xlink="http://www.w3.org/1999/xlink" x="0px" y="0px"
	 viewBox="0 0 25 25" style="enable-background:new 0 0 25 25;" xml:space="preserve">
<style type="text/css">
	.st0{fill:#020202;}
</style>
<g>
	<g>
		<path class="st0" d="M21,6.6l-3.7,1c0,0-1.6,4-4.8,6c0,0-4.2-2.9-4.9-6l-3.7-1c0,0-0.4,2.7,2.2,5.8c2.6,3.1,8.4,7.9,8.3,11.6h3.7
			c0,0-0.5-4.3-3.2-7.3C14.9,16.7,21.8,10.8,21,6.6z M6.9,23.9h3.6c0-1.7,0.9-3.2,0.9-3.2L9.1,18C6.7,20.2,6.9,23.9,6.9,23.9z
			 M12.5,11.2L12.5,11.2c1.9-1.2,1.9-3,1.9-3h-3.7C10.6,8.1,10.6,9.9,12.5,11.2z M12.5,4C13.3,4,14,3.4,14,2.5s-0.7-1.5-1.5-1.5
			S11,1.7,11,2.5S11.7,4,12.5,4z M7.5,5.5C8.3,5.5,9,4.8,9,4S8.3,2.5,7.5,2.5S6,3.2,6,4S6.7,5.5,7.5,5.5z M17.5,5.5
			C18.3,5.5,19,4.8,19,4s-0.7-1.5-1.5-1.5S16,3.2,16,4S16.7,5.5,17.5,5.5z"/>
	</g>
</g>
</svg>
