<?xml version="1.0" encoding="utf-8"?>
<!-- Generator: Adobe Illustrator 22.0.1, SVG Export Plug-In . SVG Version: 6.00 Build 0)  -->
<svg version="1.1" id="Layer_1" xmlns="http://www.w3.org/2000/svg" xmlns:xlink="http://www.w3.org/1999/xlink" x="0px" y="0px"
	 viewBox="0 0 50 50" style="enable-background:new 0 0 50 50;" xml:space="preserve">
<g>
	<g>
		<path d="M24.7,33.3c-0.3-0.2-0.6-0.4-0.9-0.5l-1.5-0.5C22.2,32.2,22,32,22,31.9c-0.1-0.1-0.1-0.3,0-0.4c0,0,0.1-0.1,0.1-0.1
			c0,0,0.1-0.1,0.1-0.1c0,0,0,0,0.1,0c0.2-0.1,0.3-0.1,0.5-0.2c0.3,0,0.6,0,0.9,0c0.4,0,0.7,0.1,1.1,0.2l0.1,0v-1.8l-0.1,0
			c-0.4-0.1-0.7-0.2-1.1-0.2c-0.5-0.1-1-0.1-1.4,0c-0.6,0.1-1.2,0.3-1.7,0.7c-0.3,0.3-0.6,0.6-0.7,1c-0.2,0.6-0.2,1.2,0,1.8
			c0.1,0.3,0.3,0.6,0.5,0.8c0.2,0.2,0.4,0.4,0.7,0.5c0.3,0.2,0.7,0.3,1,0.4c0.1,0,0.2,0.1,0.3,0.1l0.2,0.1c0,0,0,0,0,0
			c0.2,0.1,0.3,0.2,0.5,0.3c0.1,0.1,0.2,0.2,0.2,0.3c0,0.1,0,0.2,0,0.3c-0.1,0.2-0.2,0.3-0.3,0.4c-0.2,0.1-0.4,0.1-0.6,0.2
			c-0.3,0-0.6,0.1-0.9,0c-0.4,0-0.8-0.1-1.1-0.2c-0.2,0-0.4-0.1-0.6-0.1l-0.1,0l0,1.9l0.1,0c0.4,0.1,0.9,0.1,1.3,0.2
			c0.4,0,0.8,0,1.2,0c0.4,0,0.8-0.1,1.1-0.2c0.4-0.1,0.8-0.3,1.2-0.6c0.3-0.3,0.5-0.6,0.7-1c0.2-0.6,0.2-1.3,0-1.9
			C25.2,33.8,25,33.5,24.7,33.3z M9.6,29.2c-0.6,0-1.3,0.2-1.8,0.4c-0.6,0.3-1.1,0.7-1.5,1.2c-1.3,1.6-1.3,3.8-0.1,5.5
			c0.6,0.8,1.4,1.3,2.4,1.5c1,0.2,2,0.2,3-0.1l0.2,0v-2.2l0,0c-0.5,0.2-1.1,0.4-1.6,0.4c-0.6,0-1.2-0.1-1.6-0.5
			c-0.3-0.3-0.6-0.6-0.7-1c-0.1-0.4-0.2-0.9,0-1.3c0.1-0.5,0.4-0.9,0.7-1.2c0.3-0.3,0.7-0.4,1.1-0.5c0.7-0.1,1.5,0.1,2.1,0.4l0,0
			v-2.3l-0.1,0C11,29.2,10.3,29.1,9.6,29.2z M14.7,37.7h2.1v-8.4h-2.1V37.7z M2.1,19.2c-0.3,0-0.5,0.1-0.7,0.3
			C1.1,19.7,1,19.9,1,20.2v2.3c0,0.3,0.1,0.5,0.3,0.7c0.2,0.2,0.5,0.3,0.7,0.3c0.3,0,0.5-0.1,0.7-0.3c0.2-0.2,0.3-0.4,0.3-0.7v-2.3
			c0-0.3-0.1-0.5-0.3-0.7C2.6,19.3,2.3,19.2,2.1,19.2z M7.9,23.5c0.3,0,0.5-0.1,0.7-0.3c0.2-0.2,0.3-0.4,0.3-0.7v-5.2
			c0-0.3-0.1-0.5-0.3-0.7c-0.2-0.2-0.5-0.3-0.7-0.3c-0.3,0-0.5,0.1-0.7,0.3c-0.2,0.2-0.3,0.4-0.3,0.7v5.2c0,0.3,0.1,0.5,0.3,0.7
			C7.3,23.4,7.6,23.5,7.9,23.5z M13.6,12.3c-0.3,0-0.5,0.1-0.7,0.3c-0.2,0.2-0.3,0.4-0.3,0.7v11.3c0,0.3,0.1,0.5,0.3,0.7
			c0.2,0.2,0.5,0.3,0.7,0.3c0.3,0,0.5-0.1,0.7-0.3c0.2-0.2,0.3-0.4,0.3-0.7V13.3c0-0.3-0.1-0.5-0.3-0.7
			C14.2,12.4,13.9,12.3,13.6,12.3z M20.5,22.5v-5.2c0-0.3-0.1-0.5-0.3-0.7c-0.2-0.2-0.5-0.3-0.7-0.3c-0.3,0-0.5,0.1-0.7,0.3
			c-0.2,0.2-0.3,0.4-0.3,0.7v5.2c0,0.3,0.1,0.5,0.3,0.7c0.2,0.2,0.5,0.3,0.7,0.3c0.3,0,0.5-0.1,0.7-0.3
			C20.4,23.1,20.5,22.8,20.5,22.5z M25.3,19.2c-0.3,0-0.5,0.1-0.7,0.3c-0.2,0.2-0.3,0.4-0.3,0.7v2.3c0,0.3,0.1,0.5,0.3,0.7
			c0.2,0.2,0.5,0.3,0.7,0.3c0.3,0,0.5-0.1,0.7-0.3c0.2-0.2,0.3-0.4,0.3-0.7v-2.3c0-0.3-0.1-0.5-0.3-0.7
			C25.8,19.3,25.5,19.2,25.3,19.2z M31.1,23.5c0.3,0,0.5-0.1,0.7-0.3c0.2-0.2,0.3-0.4,0.3-0.7v-5.2c0-0.3-0.1-0.5-0.3-0.7
			c-0.2-0.2-0.5-0.3-0.7-0.3c-0.3,0-0.5,0.1-0.7,0.3C30.1,16.8,30,17,30,17.3v5.2c0,0.3,0.1,0.5,0.3,0.7
			C30.5,23.4,30.8,23.5,31.1,23.5z M37.6,25.3c0.2-0.2,0.3-0.4,0.3-0.7V13.3c0-0.3-0.1-0.5-0.3-0.7c-0.2-0.2-0.5-0.3-0.7-0.3
			c-0.3,0-0.5,0.1-0.7,0.3c-0.2,0.2-0.3,0.4-0.3,0.7v11.3c0,0.3,0.1,0.5,0.3,0.7c0.2,0.2,0.5,0.3,0.7,0.3S37.4,25.5,37.6,25.3z
			 M42.7,23.5c0.3,0,0.5-0.1,0.7-0.3c0.2-0.2,0.3-0.4,0.3-0.7v-5.2c0-0.3-0.1-0.5-0.3-0.7c-0.2-0.2-0.5-0.3-0.7-0.3
			s-0.5,0.1-0.7,0.3c-0.2,0.2-0.3,0.4-0.3,0.7v5.2c0,0.3,0.1,0.5,0.3,0.7C42.1,23.4,42.4,23.5,42.7,23.5z M49.2,19.5
			c-0.2-0.2-0.5-0.3-0.7-0.3c-0.3,0-0.5,0.1-0.7,0.3c-0.2,0.2-0.3,0.4-0.3,0.7v2.3c0,0.3,0.1,0.5,0.3,0.7c0.2,0.2,0.5,0.3,0.7,0.3
			s0.5-0.1,0.7-0.3c0.2-0.2,0.3-0.4,0.3-0.7v-2.3C49.5,19.9,49.4,19.7,49.2,19.5z M31.8,29.2c-0.6,0-1.3,0.2-1.8,0.4
			c-0.6,0.3-1.1,0.7-1.5,1.2c-1.3,1.6-1.3,3.8-0.1,5.5c0.6,0.8,1.4,1.3,2.4,1.5c1,0.2,2,0.2,3-0.1l0.2,0v-2.2l0,0
			c-0.5,0.2-1.1,0.4-1.6,0.4c-0.6,0-1.2-0.1-1.6-0.5c-0.3-0.3-0.6-0.6-0.7-1c-0.1-0.4-0.2-0.9,0-1.3c0.1-0.5,0.4-0.9,0.7-1.2
			c0.3-0.3,0.7-0.4,1.1-0.5c0.7-0.1,1.5,0.1,2.1,0.4l0,0v-2.3l-0.1,0C33.2,29.2,32.5,29.1,31.8,29.2z M43,29.8
			c-1.4-0.8-3.1-0.9-4.5-0.1c-1.4,0.8-2.3,2.2-2.3,3.8c0,1.3,0.6,2.6,1.7,3.4c1,0.8,2.4,1.1,3.7,0.9c1.8-0.3,3.1-1.7,3.5-3.5
			C45.4,32.5,44.6,30.7,43,29.8z M42.9,33.8c-0.1,0.6-0.4,1.1-0.8,1.5c-0.5,0.4-1,0.5-1.6,0.5c-0.6-0.1-1.1-0.4-1.5-0.8
			c-0.4-0.5-0.5-1-0.5-1.6c0.1-0.6,0.4-1.1,0.8-1.5c0.5-0.4,1-0.5,1.6-0.5c0.6,0.1,1.1,0.4,1.5,0.8C42.8,32.6,43,33.2,42.9,33.8z"/>
	</g>
</g>
</svg>
