<?xml version="1.0" encoding="utf-8"?>
<!-- Generator: Adobe Illustrator 22.0.1, SVG Export Plug-In . SVG Version: 6.00 Build 0)  -->
<svg version="1.1" id="Layer_1" xmlns="http://www.w3.org/2000/svg" xmlns:xlink="http://www.w3.org/1999/xlink" x="0px" y="0px"
	 viewBox="0 0 25 25" style="enable-background:new 0 0 25 25;" xml:space="preserve">
<g>
	<g>
		<path d="M21.5,3c0-0.2,0-0.4,0-0.7c-0.3,0.1-0.5,0.2-0.7,0.3c-2.6,1.2-5.1,2.4-7.7,3.6c-0.4,0.2-0.7,0.2-1.2,0
			C9.7,5.1,7.5,4.1,5.3,3C4.7,2.8,4.2,2.5,3.6,2.2c0,0.1,0,0.2,0,0.2c0,5.3,0,10.6,0,15.8c0,0.4,0.2,0.5,0.5,0.6
			c2.7,1.2,5.3,2.5,8,3.7c0.3,0.1,0.7,0.1,1,0c2.7-1.2,5.3-2.4,7.9-3.6c0.4-0.2,0.6-0.4,0.6-0.9C21.5,13,21.5,8,21.5,3z M17.3,16.6
			c-1.5,0.6-2.9,1.3-4.3,2c-0.2,0.1-0.6,0.1-0.8,0c-1.5-0.7-3-1.4-4.5-2.1c-0.2-0.1-0.4-0.4-0.4-0.5c0-2.6,0-5.3,0-8
			c1.4,0.7,2.8,1.2,4,1.9c0.9,0.5,1.6,0.5,2.5,0c1.1-0.6,2.2-1.1,3.4-1.6c0.2-0.1,0.4-0.2,0.7-0.3v1.9c0,2,0,3.9,0,5.9
			C17.8,16.2,17.7,16.5,17.3,16.6z"/>
	</g>
</g>
</svg>
