<?xml version="1.0" encoding="utf-8"?>
<!-- Generator: Adobe Illustrator 22.0.1, SVG Export Plug-In . SVG Version: 6.00 Build 0)  -->
<svg version="1.1" id="Layer_1" xmlns="http://www.w3.org/2000/svg" xmlns:xlink="http://www.w3.org/1999/xlink" x="0px" y="0px"
	 viewBox="0 0 25 25" style="enable-background:new 0 0 25 25;" xml:space="preserve">
<g>
	<g>
		<path d="M22.8,10.9l-0.1-0.5c-0.8-3.4-6-4.8-10.6-5.4c0.4-2.1-0.9-3.3-0.9-3.3l-0.2-0.2l-0.3,0.1C7.4,2.7,5.9,3.8,6,4.6
			c0.1,0.5,0.7,0.8,1.4,0.9C7.7,5.8,8.8,7,8.9,8.8c0.1,1.8-0.7,3.7-2.5,5.7c-0.6,0.3-1.1,0.7-1.6,1c-1.5,1.2-2.2,2.4-1.9,3.5
			c0.4,2.2,3.9,3.2,4,3.2c0.1,0,2,0.5,5.3,0.5c0.7,0,1.4,0,2.1-0.1l0-1l-1,0c2.3-3.5,1.8-8.1,1.6-9.4c3.9-1,7.2-1.4,7.3-1.4
			L22.8,10.9z M7,4.4C7.4,4,8.9,3.2,10.7,2.5c0.2,0.3,0.6,1.1,0.5,2.2L7.6,4.6C7.3,4.5,7.1,4.5,7,4.4z M12.2,21.8
			c-3.1,0-4.9-0.5-4.9-0.5c-0.8-0.2-3.1-1.2-3.3-2.5c-0.1-0.8,0.4-1.6,1.6-2.6c0.4-0.3,0.9-0.7,1.5-1l7.1-2.6
			C14.3,14.3,14.6,18.7,12.2,21.8z M8.4,13.5c1.1-1.6,1.6-3.3,1.4-4.8C9.8,7.3,9.2,6.3,8.7,5.6c3.8,0.2,11.4,1.1,12.8,4.5
			C19.6,10.4,13.2,11.4,8.4,13.5z"/>
	</g>
</g>
</svg>
