<?xml version="1.0" encoding="utf-8"?>
<!-- Generator: Adobe Illustrator 22.0.1, SVG Export Plug-In . SVG Version: 6.00 Build 0)  -->
<svg version="1.1" id="Layer_1" xmlns="http://www.w3.org/2000/svg" xmlns:xlink="http://www.w3.org/1999/xlink" x="0px" y="0px"
	 viewBox="0 0 25 25" style="enable-background:new 0 0 25 25;" xml:space="preserve">
<g>
	<g>
		<path d="M14.6,13.9c-1.6-0.8-3.2-1.5-4.8-2.2c-1.5,1.3-2.9,2.7-4.4,4c-0.6,0.5-0.8,1-0.7,1.8c0,0.3,0.1,0.6,0.1,0.9
			c0.5,3.9,5.2,6.4,8.9,3.8c0.7-0.5,1.4-1,1.6-1.9c0.2-0.7,0.2-1.5,0.4-2.1c0.4-1.3,0.3-2.5-0.5-3.6C15,14.3,14.8,14,14.6,13.9z
			 M10.4,11.1c1.4,0.7,2.9,1.3,4.3,2c0.3,0.1,0.4,0.1,0.6-0.1c1.5-1.3,2.9-2.6,4.4-3.9c0.4-0.3,0.5-0.7,0.6-1.1
			c0.2-3.6-2.8-6.2-5.8-6.1c-1.4-0.1-2.6,0.5-3.7,1.3c-0.6,0.5-1,1.1-1.2,2C9.5,6,9.5,6.1,9.4,6.6C9.1,8,8.9,9.3,9.8,10.5
			C10,10.7,10.2,11,10.4,11.1z M20.7,9.4c-1.6,1.4-3.2,2.8-4.8,4.2c-0.1,0.1-0.1,0.3-0.1,0.5c0.2,0.5,0.5,1,0.7,1.5
			c0.1,0.1,0.3,0.3,0.4,0.3c1.1,0.3,2.2,0.5,3.4,0.8c0.1,0,0.3,0,0.4,0c1.4-0.5,2.5-1.9,2.5-3.5C23.3,11.3,22.3,10.1,20.7,9.4z
			 M9.1,11c0.1-0.4-0.4-1-0.6-1.4C8.3,9.3,8.1,9.1,7.8,9.1c-1-0.3-1.9-0.5-2.9-0.7c-0.3-0.1-0.6-0.1-0.8,0c-1.5,0.7-2.3,1.9-2.4,3.6
			c0.1,1.6,0.8,2.8,2.2,3.5c0.1,0.1,0.4,0,0.5-0.1c1.2-1.1,2.4-2.1,3.6-3.2C8.4,11.8,9,11.4,9.1,11z M20,17.4
			c-0.9-0.2-1.9-0.5-2.8-0.7c-0.3-0.1-0.5,0-0.5,0.4c-0.2,1.2-0.4,2.3-0.7,3.5c1.1,0.8,2.2,0.8,3.3,0.1c1-0.6,1.4-1.9,1.1-3
			C20.3,17.6,20.1,17.4,20,17.4z M5.1,7.6c1,0.2,2,0.5,3.1,0.7C8.5,7,8.8,5.8,9,4.5c0-0.1-0.1-0.3-0.3-0.4c-0.9-0.6-1.8-0.6-2.8,0
			C5,4.7,4.5,5.5,4.6,6.6C4.6,7,4.5,7.5,5.1,7.6z"/>
	</g>
</g>
</svg>
