<?xml version="1.0" encoding="utf-8"?>
<!-- Generator: Adobe Illustrator 23.0.3, SVG Export Plug-In . SVG Version: 6.00 Build 0)  -->
<svg version="1.1" id="Layer_1" xmlns="http://www.w3.org/2000/svg" xmlns:xlink="http://www.w3.org/1999/xlink" x="0px" y="0px"
	 viewBox="0 0 22.9 22.9" style="enable-background:new 0 0 22.9 22.9;" xml:space="preserve">
<title>ElasticSearch_IntegrationImage</title>
<g>
	<g>
		<path d="M11.5,2.1c-5.2,0-9.4,4.2-9.4,9.4s4.2,9.4,9.4,9.4s9.4-4.2,9.4-9.4S16.6,2.1,11.5,2.1z M11.5,19.7c-4.5,0-8.2-3.7-8.2-8.2
			s3.7-8.2,8.2-8.2s8.2,3.7,8.2,8.2S16,19.7,11.5,19.7z M15.1,15.2c-0.1,0-0.2,0-0.3-0.1c-0.1-0.1-0.2-0.2-0.2-0.4
			c0-0.2,0-0.8,0-1.8V9.4c0-1-0.1-1.6-0.2-1.9c-0.2-0.5-0.5-0.9-1-1.1c-0.6-0.3-1.3-0.5-2.2-0.5c-1.2,0-2.1,0.3-2.7,0.8
			s-1,1.1-1,1.7c0,0.3,0.1,0.6,0.3,0.8s0.4,0.3,0.7,0.3c0.3,0,0.5-0.1,0.7-0.3C9.3,9,9.4,8.8,9.4,8.5l0-0.7c0-0.3,0.2-0.6,0.4-0.9
			c0.3-0.3,0.7-0.4,1.1-0.4c0.6,0,1.1,0.2,1.4,0.6c0.3,0.4,0.5,1.1,0.5,2.1v0.4c-1.7,0.7-3,1.2-3.7,1.6c-0.7,0.5-1.3,0.9-1.6,1.4
			c-0.2,0.3-0.3,0.8-0.3,1.3c0,0.8,0.2,1.4,0.7,1.9c0.5,0.5,1,0.7,1.7,0.7c0.5,0,0.9-0.1,1.3-0.3c0.3-0.1,0.9-0.6,1.9-1.4
			c0,0.6,0.1,1,0.3,1.3c0.2,0.3,0.5,0.4,0.9,0.4c0.8,0,1.5-0.5,2.4-1.6v-0.6c-0.5,0.5-0.7,0.7-0.9,0.8
			C15.3,15.2,15.2,15.2,15.1,15.2z M12.8,14.3L12.8,14.3c-1,0.7-1.7,1.1-2.3,1.1c-0.4,0-0.8-0.2-1.1-0.5C9.1,14.5,9,14,9,13.5
			c0-0.4,0.1-0.8,0.4-1.2c0.3-0.3,0.7-0.7,1.3-1c0.3-0.2,1-0.5,2.1-0.9C12.8,10.4,12.8,14.3,12.8,14.3z"/>
	</g>
</g>
</svg>
