<?xml version="1.0" encoding="utf-8"?>
<!-- Generator: Adobe Illustrator 22.0.1, SVG Export Plug-In . SVG Version: 6.00 Build 0)  -->
<svg version="1.1" id="Layer_1" xmlns="http://www.w3.org/2000/svg" xmlns:xlink="http://www.w3.org/1999/xlink" x="0px" y="0px"
	 viewBox="0 0 25 25" style="enable-background:new 0 0 25 25;" xml:space="preserve">
<g>
	<g>
		<path d="M21.6,5c0-0.2-0.1-0.4-0.3-0.5c-0.2-0.2-0.4-0.4-0.7-0.6C19,2.8,17.2,2,15.3,1.7C11,1,7.1,1.7,3.7,4.5
			C3.5,4.6,3.4,4.8,3.4,5c-0.1,1.8-0.1,3.6-0.2,5.4c-0.1,3,0.8,5.7,2.7,8c1.7,2.1,3.9,3.8,6.3,5.1c0.1,0.1,0.4,0.1,0.6,0
			c0.9-0.6,1.8-1.1,2.7-1.7c1.6-1.1,3-2.5,4.1-4c1.1-1.5,1.9-3.1,2-5c0.1-1.3,0.2-2.6,0.2-3.8C21.7,7.6,21.7,6.3,21.6,5z M18.1,14.4
			c-0.3,0.5-0.8,1-1.2,1.5c-0.1,0.1-0.3,0.2-0.4,0.2c-0.8-0.2-1.5-0.4-2.2-0.6c0,0-0.1-0.1-0.1-0.1c0.6-0.7,1.3-1.2,1.8-1.9
			c1.7-2.1,1.1-4.7-0.7-6.1C13.5,5.8,10.7,6,9.1,7.9c-1.3,1.5-1.5,3.3-0.8,5.2c0.5,1.4,1.6,2.3,2.8,3c1.3,0.8,2.8,1.1,4.3,1.4
			c0.6,0.1,1.1,0.2,1.8,0.3c-0.3,0.3-0.5,0.6-0.8,0.8c-1.1,1-1.1,1-2.5,0.7c-1.7-0.4-3.3-1-4.8-2.1c-2.3-1.6-3.5-3.8-3.4-6.6
			c0.1-2.8,1.5-4.8,4.1-5.9c2.8-1.2,5.9-0.4,7.7,1.8C19.5,8.8,19.8,11.8,18.1,14.4z"/>
	</g>
</g>
</svg>
