<?xml version="1.0" encoding="utf-8"?>
<!-- Generator: Adobe Illustrator 22.0.1, SVG Export Plug-In . SVG Version: 6.00 Build 0)  -->
<svg version="1.1" id="Layer_1" xmlns="http://www.w3.org/2000/svg" xmlns:xlink="http://www.w3.org/1999/xlink" x="0px" y="0px"
	 viewBox="0 0 50 50" style="enable-background:new 0 0 50 50;" xml:space="preserve">
<g>
	<g>
		<path d="M3.6,31.3c-1.4,0-2.6,1.2-2.6,2.6c0,1.4,1.2,2.6,2.6,2.6c1.4,0,2.6-1.2,2.6-2.6C6.2,32.5,5.1,31.3,3.6,31.3z M9.6,25
			C8.2,25,7,26.2,7,27.7s1.2,2.6,2.6,2.6c1.4,0,2.6-1.2,2.6-2.6S11.1,25,9.6,25z M15.7,19c-1.4,0-2.6,1.2-2.6,2.6s1.2,2.6,2.6,2.6
			s2.6-1.2,2.6-2.6S17.1,19,15.7,19z M15.7,31.3c-1.4,0-2.6,1.2-2.6,2.6c0,1.4,1.2,2.6,2.6,2.6s2.6-1.2,2.6-2.6
			C18.3,32.5,17.1,31.3,15.7,31.3z M22,25c-1.4,0-2.6,1.2-2.6,2.6s1.2,2.6,2.6,2.6c1.4,0,2.6-1.2,2.6-2.6S23.4,25,22,25z M27.9,31.3
			c-1.4,0-2.6,1.2-2.6,2.6c0,1.4,1.2,2.6,2.6,2.6c1.4,0,2.6-1.2,2.6-2.6C30.6,32.5,29.4,31.3,27.9,31.3z M34.2,25
			c-1.4,0-2.6,1.2-2.6,2.6s1.2,2.6,2.6,2.6s2.6-1.2,2.6-2.6S35.6,25,34.2,25z M40.1,19c-1.4,0-2.6,1.2-2.6,2.6s1.2,2.6,2.6,2.6
			c1.4,0,2.6-1.2,2.6-2.6S41.6,19,40.1,19z M46.4,13.1c-1.4,0-2.6,1.2-2.6,2.6c0,1.4,1.2,2.6,2.6,2.6c1.4,0,2.6-1.2,2.6-2.6
			C49,14.3,47.8,13.1,46.4,13.1z M28,19c-1.4,0-2.6,1.2-2.6,2.6s1.2,2.6,2.6,2.6c1.4,0,2.6-1.2,2.6-2.6S29.5,19,28,19z"/>
	</g>
</g>
</svg>
