<?xml version="1.0" encoding="utf-8"?>
<!-- Generator: Adobe Illustrator 24.1.1, SVG Export Plug-In . SVG Version: 6.00 Build 0)  -->
<svg version="1.1" id="Layer_1" xmlns="http://www.w3.org/2000/svg" xmlns:xlink="http://www.w3.org/1999/xlink" x="0px" y="0px"
	 viewBox="0 0 50 50" style="enable-background:new 0 0 50 50;" xml:space="preserve">
<rect x="32.7" y="33.2" width="14.9" height="3.6"/>
<path d="M10.8,19.8c-0.9-1-2-1.4-3.5-1.4c-1.4,0-2.7,0.5-3.5,1.3c-1.5,1.4-1.5,3.9-1.5,6s0.1,4.6,1.5,6C4.6,32.5,6,33,7.4,33
	c1.5,0,2.6-0.5,3.5-1.5v1.4h3.5V13.3h-3.6C10.8,13.3,10.8,19.8,10.8,19.8z M8.3,29.8c-2.2,0-2.4-1.8-2.4-4.1s0.3-4.1,2.4-4.1
	c2.2,0,2.5,1.8,2.4,4.1C10.8,28,10.5,29.8,8.3,29.8z"/>
<path d="M25,24.2L22.7,24c-1.3-0.1-1.5-0.7-1.5-1.3c0-0.7,0.6-1.4,2-1.4c1.3,0,2.5,0.2,3.4,1l2.2-2.2c-1.4-1.3-3.2-1.7-5.5-1.7
	c-2.9,0-5.5,1.6-5.5,4.5c0,2.7,1.6,3.8,4.2,4l2.3,0.2c1.1,0.1,1.5,0.6,1.5,1.3c0,1.1-1.3,1.5-2.6,1.5c-1.1,0-2.6-0.2-3.8-1.4
	L17.2,31c1.8,1.8,3.8,2,6.1,2c3.4,0,6.1-1.5,6-4.6C29.2,26,27.8,24.5,25,24.2z"/>
</svg>
