<?xml version="1.0" encoding="utf-8"?>
<!-- Generator: Adobe Illustrator 23.0.3, SVG Export Plug-In . SVG Version: 6.00 Build 0)  -->
<svg version="1.1" id="Layer_1" xmlns="http://www.w3.org/2000/svg" xmlns:xlink="http://www.w3.org/1999/xlink" x="0px" y="0px"
	 viewBox="0 0 50 50" style="enable-background:new 0 0 50 50;" xml:space="preserve">
<path d="M11.5,15.6c2.7-0.5,4.5-2.9,4.2-5.6c-0.2-2.1-1.8-3.9-3.9-4.4c-0.3-0.1-0.5-0.1-0.8-0.2h-0.8C9.9,5.5,9.6,5.5,9.4,5.6
	c-2,0.5-3.6,2.2-3.9,4.2c0,0.1,0,0.2-0.1,0.3V11c0,0.2,0.1,0.4,0.1,0.6C6.1,14.2,8.6,16.2,11.5,15.6z M37,18.1
	c1.3-1.1,2.7-2,4.3-2.7c0.6-0.3,1.2-0.6,1.7-1.1c0.8-0.8,1.4-1.8,1.5-3c0-0.1,0-0.3,0.1-0.4v-0.7c-0.1-0.3-0.1-0.6-0.2-0.9
	c-0.5-2-2.2-3.6-4.3-3.9c-0.1,0-0.2,0-0.4-0.1H39c-0.3,0.1-0.6,0.1-0.9,0.2c-1.7,0.5-2.9,1.5-3.5,3.1c-1.7,4.1-4.6,6.8-8.9,8
	c-0.6,0.2-1.2,0.3-1.9,0.4c-3.5,0.9-6.4,3.9-7,7.5c-0.6,3.7-2.6,6.5-5.6,8.6c-0.8,0.6-1.7,1-2.7,1.4c-1.9,0.8-2.9,2.2-3.2,4.2
	c0,0,0,0.1,0,0.1v0.9c0,0.2,0.1,0.4,0.1,0.7c0.4,2.1,2.2,3.7,4.3,4c0.1,0,0.2,0,0.3,0.1H11c0.3-0.1,0.6-0.1,0.8-0.2
	c1.5-0.4,2.7-1.3,3.4-2.8c0.9-2,2.1-3.8,3.6-5.4c1-1.1,2.2-2,3.6-2.6c2.1-0.9,4.1-0.6,6.1,0.4c1.4,0.8,2.5,1.8,3.4,3
	c1.1,1.4,2,2.9,2.8,4.4c0.8,1.8,2.3,2.8,4.2,3c0,0,0.1,0,0.1,0h0.8c0.3-0.1,0.6-0.1,0.9-0.2c2-0.5,3.6-2.2,3.8-4.3
	c0-0.1,0-0.2,0.1-0.4v-0.7c0-0.3-0.1-0.6-0.1-0.8c-0.4-1.7-1.4-2.8-3-3.6c-1.9-0.9-3.7-2.1-5.3-3.5c-0.9-0.8-1.6-1.7-2.2-2.8
	c-0.6-1.2-1-2.4-0.9-3.7c0.1-1.2,0.4-2.2,1-3.2C34.9,20.1,35.9,19.1,37,18.1z M25,27.7c-1.5,0-2.7-1.2-2.7-2.7
	c0-1.5,1.2-2.7,2.7-2.7c1.5,0,2.7,1.2,2.7,2.7C27.7,26.5,26.5,27.7,25,27.7z"/>
</svg>
