<!-- Generated by IcoMoon.io -->
<svg version="1.1" xmlns="http://www.w3.org/2000/svg" width="32" height="32" viewBox="0 0 32 32">
<title>SecurityCenter-icon</title>
<path d="M31.424 19.2l-3.776-13.76c-0.128-0.576-0.576-1.024-1.152-1.152l-13.824-3.648c-0.576-0.128-1.216 0-1.6 0.448l-10.048 10.112c-0.448 0.448-0.576 1.024-0.448 1.6l3.712 13.76c0.128 0.576 0.576 1.024 1.152 1.152l13.888 3.648c0.576 0.128 1.216 0 1.6-0.448l10.048-10.112c0.448-0.384 0.576-1.024 0.448-1.6zM13.632 20.032c-0.704 0.576-1.664 0.832-2.88 0.832s-2.24-0.192-3.008-0.576v-1.728c0.512 0.256 1.024 0.384 1.6 0.576 0.576 0.128 1.088 0.192 1.536 0.192 0.704 0 1.216-0.128 1.536-0.384s0.512-0.64 0.512-1.088c0-0.384-0.128-0.768-0.448-1.024s-0.96-0.64-1.92-1.024c-0.96-0.384-1.664-0.832-2.112-1.344-0.384-0.512-0.576-1.152-0.576-1.856 0-0.896 0.32-1.6 0.96-2.112s1.472-0.768 2.56-0.768c1.024 0 2.048 0.256 3.072 0.704l-0.576 1.472c-0.96-0.384-1.792-0.576-2.56-0.576-0.576 0-1.024 0.128-1.28 0.384-0.32 0.256-0.448 0.576-0.448 0.96 0 0.256 0.064 0.512 0.192 0.704s0.32 0.384 0.576 0.576c0.256 0.192 0.768 0.384 1.472 0.704 0.768 0.32 1.344 0.64 1.728 0.896s0.64 0.64 0.832 0.96c0.192 0.384 0.256 0.768 0.256 1.28 0.064 0.896-0.32 1.664-1.024 2.24zM18.944 18.304c0.576 0.704 1.344 1.024 2.432 1.024 0.448 0 0.896-0.064 1.344-0.128s0.896-0.192 1.344-0.32v1.536c-0.832 0.32-1.792 0.512-2.88 0.512-1.6 0-2.816-0.448-3.648-1.408s-1.28-2.304-1.28-4.096c0-1.152 0.192-2.112 0.64-2.944 0.384-0.832 1.024-1.472 1.792-1.92s1.664-0.704 2.752-0.704c1.088 0 2.112 0.256 3.072 0.704l-0.64 1.472c-0.384-0.192-0.768-0.32-1.152-0.448s-0.832-0.192-1.28-0.192c-1.024 0-1.792 0.384-2.368 1.088s-0.896 1.728-0.896 3.008c-0.064 1.152 0.256 2.112 0.768 2.816z"></path>
</svg>
