<?xml version="1.0" encoding="utf-8"?>
<!-- Generator: Adobe Illustrator 23.0.1, SVG Export Plug-In . SVG Version: 6.00 Build 0)  -->
<svg version="1.1" id="Layer_1" xmlns="http://www.w3.org/2000/svg" xmlns:xlink="http://www.w3.org/1999/xlink" x="0px" y="0px"
	 viewBox="0 0 50 50" style="enable-background:new 0 0 50 50;" xml:space="preserve">
<g>
	<path d="M29.2,37.5c-1.3-1.5-2.6-3-3.9-4.5c-1.9-2.2-3.9-4.5-5.8-6.7c-3-3.4-2.6-8.5,1.1-11.2c3.7-2.7,9-1.5,11.1,2.5
		c1.4,2.6,1.2,5.2-0.3,7.7c-0.2,0.2-0.4,0.5-0.6,0.7c-0.7,0.7-1.4,0.8-2.1,0.4c-0.8-0.4-1.2-1.4-1-2.2c0.1-0.3,0.2-0.6,0.4-0.9
		c1-1.5,0.8-3.5-0.5-4.7c-1.3-1.2-3.2-1.4-4.8-0.4c-1.7,1.2-2.1,3.8-0.7,5.4c1.5,1.8,3,3.5,4.6,5.3c0.9,1,1.7,2,2.6,3
		c0.1,0.1,0.2,0.2,0.3,0.4c0.4-0.3,0.7-0.6,1-0.9c1.2-1,2.4-2,3.4-3.3c4.2-5.6,2.4-13.6-3.8-16.8c-6.8-3.6-15.2,0.5-16.4,8.1
		c-0.6,3.6,0.4,6.8,2.8,9.6c3.3,3.8,6.7,7.7,10,11.6c0.3,0.4,0.6,0.9,0.8,1.3c0.1,0.3,0,0.7-0.1,1c-0.2,0.6-0.7,1-1.3,1.2
		c-0.6,0.2-1.2,0-1.7-0.4c-0.6-0.6-1.1-1.2-1.6-1.8c-2.6-3-5.2-5.9-7.7-8.9c-1-1.2-2.1-2.4-2.9-3.8c-2.7-4.6-3-9.5-0.7-14.3
		c2-4.4,5.6-7.2,10.3-8.3c7.3-1.7,14.9,2.3,17.5,9.3c2.3,6.1,0.5,12.9-4.5,17.1c-1.7,1.5-3.4,3-5.2,4.5
		C29.5,37.4,29.4,37.4,29.2,37.5z"/>
</g>
</svg>
