<?xml version="1.0" encoding="utf-8"?>
<!-- Generator: Adobe Illustrator 22.0.1, SVG Export Plug-In . SVG Version: 6.00 Build 0)  -->
<svg version="1.1" id="Layer_1" xmlns="http://www.w3.org/2000/svg" xmlns:xlink="http://www.w3.org/1999/xlink" x="0px" y="0px"
	 viewBox="0 0 25 25" style="enable-background:new 0 0 25 25;" xml:space="preserve">
<g>
	<g>
		<path d="M23.6,9c0,2-1.7,2.4-1.7,2.4c0.4-0.1,0.4-0.7,0.4-0.7c-0.5,0.2-1,0.1-1.1,0.1c0,0,0,0,0,0l-1.1-1.1c0,0,0,0,0,0l-0.4-1.2
			c0-0.1-0.1-0.1-0.1,0L19.3,9c0,0-0.1,0.1-0.1,0l-1.4-0.5c0,0,0,0,0,0c-0.1-0.1-1.3-0.9-4.4-0.3c-3.1,0.5-5,0.3-5.1,0.3
			c0,0,0,0,0,0C3.8,9,3.6,13.9,3.5,14.2c0,0,0,0,0,0L2.3,16c0,0,0,0,0,0V17c0,0,0,0,0,0l-1.1,1.8c0,0,0,0.1,0.1,0.1l1.7,0
			c0,0,0.1,0,0.1-0.1c0.2-2.9,2.9-4.3,3.3-4.5c0,0,0.1,0,0.1,0L7.1,15c0,0,0,0.1,0,0.1l-0.9,1c0,0,0,0.1,0,0.1l1.1,0.6
			c0,0,0,0,0,0.1L7.6,18c0,0,0,0.1,0.1,0.1l1.7,0c0.1,0,0.1-0.1,0.1-0.1l-1.1-1.5c0,0,0-0.1,0-0.1l1.3-1.2c0,0,0,0,0.1,0
			c2.2,0.8,3.6,0.2,3.9,0.1c0,0,0.1,0,0.1,0l0.9,1.8c0,0,0,0,0,0.1l-0.5,1c0,0,0,0,0,0.1c0.2,0.9,0.9,1,1.4,1c0.2,0,0.3-0.2,0.2-0.3
			c-0.1-0.6-0.1-2-0.1-2l0.1-2.2c0,0,0.1-0.1,0.1-0.1l1.7,0.7c0,0,0.1,0.1,0,0.1l-0.7,0.6c0,0,0,0,0,0.1v0.6c0,0.2,0.2,0.3,0.4,0.2
			l2-1.6c0,0,0-0.1,0-0.1l-1.1-1.3c0,0,0-0.1,0-0.1l0.5-0.2c0,0,0,0,0.1,0l2.8,1.4c0,0,0,0,0,0c1.5-0.4,1.7-1.5,1.7-1.5l-0.4-0.5
			C24.4,10.9,23.6,9,23.6,9z"/>
	</g>
</g>
</svg>
