<?xml version="1.0" encoding="utf-8"?>
<!-- Generator: Adobe Illustrator 22.0.1, SVG Export Plug-In . SVG Version: 6.00 Build 0)  -->
<svg version="1.1" id="Layer_1" xmlns="http://www.w3.org/2000/svg" xmlns:xlink="http://www.w3.org/1999/xlink" x="0px" y="0px"
	 viewBox="0 0 25 25" style="enable-background:new 0 0 25 25;" xml:space="preserve">
<g>
	<g>
		<path d="M22.2,12.4L22.2,12.4c0-1.6,0-3.3,0-4.9c0-0.5-0.1-0.8-0.6-1c-2.8-1.6-5.7-3.2-8.5-4.9c-0.4-0.3-0.8-0.3-1.2,0
			C9,3.3,6.2,4.9,3.4,6.5C3,6.8,2.8,7,2.8,7.5c0,3.3,0,6.6,0,9.9c0,0.5,0.2,0.7,0.6,1c2.9,1.6,5.7,3.3,8.6,4.9
			c0.4,0.3,0.7,0.2,1.1,0c2.8-1.7,5.6-3.3,8.5-4.9c0.5-0.3,0.6-0.6,0.6-1.1C22.1,15.6,22.2,14,22.2,12.4z M21.3,12.5
			c0,1.5,0,3,0,4.5c0,0.3-0.2,0.7-0.5,0.8c-2.6,1.5-5.2,3.1-7.8,4.5c-0.2,0.1-0.7,0.1-1,0c-2.6-1.5-5.2-3-7.8-4.5
			c-0.3-0.2-0.5-0.6-0.5-0.9c0-3,0-5.9-0.1-8.9c0-0.5,0.2-0.8,0.6-1.1c2.5-1.5,5.1-2.9,7.6-4.4c0.4-0.3,0.8-0.3,1.2,0
			c2.5,1.5,5.1,2.9,7.6,4.4c0.5,0.3,0.6,0.6,0.6,1.1C21.3,9.5,21.3,11,21.3,12.5z M9.9,14.9c-1.1,0-1.9-0.8-1.9-2.3
			c0-1.4,0.8-2.3,1.9-2.3c0.6,0,1,0.2,1.4,0.6l0.9-1C11.7,9.4,10.9,9,9.9,9c-2,0-3.7,1.4-3.7,3.7c0,2.4,1.7,3.6,3.6,3.6
			c1,0,1.9-0.4,2.5-1l-0.9-1C11,14.6,10.5,14.9,9.9,14.9z M16.5,10.7c-0.6,0-1.1,0.2-1.6,0.6l0-0.8V8.6h-1.8v7.5h1.4l0.1-0.6h0
			c0.5,0.5,1,0.7,1.6,0.7c1.3,0,2.5-1.1,2.5-2.9C18.8,11.7,17.9,10.7,16.5,10.7z M15.9,15c-0.3,0-0.6-0.1-0.9-0.3v-2.2
			c0.3-0.3,0.7-0.5,1-0.5c0.7,0,1,0.5,1,1.4C17,14.5,16.5,15,15.9,15z"/>
	</g>
</g>
</svg>
