<?xml version="1.0" encoding="utf-8"?>
<!-- Generator: Adobe Illustrator 23.0.6, SVG Export Plug-In . SVG Version: 6.00 Build 0)  -->
<svg version="1.1" id="Layer_1" xmlns="http://www.w3.org/2000/svg" xmlns:xlink="http://www.w3.org/1999/xlink" x="0px" y="0px"
	 viewBox="0 0 50 50" style="enable-background:new 0 0 50 50;" xml:space="preserve">
<g>
	<g>
		<path d="M18,27.8l-2-2.9L12.7,27l1.3-4.2l-0.1-0.2L12,20c-0.1-0.2-4.5,3.9-0.8,8.3c1.2,1.4,2.8,1.8,4.5,2c0.2,0,0.4,0,0.6,0.1
			c0.5,0,1.1,0.1,1.6,0.1c1,0.1,1.9,0.4,2.6,1.1l-1.6-2.5L18,27.8z M42.1,15.7c0.1,0,0.6,0.5,1.2,1.5l2.5-5.2
			C45.8,11.9,42.7,14.9,42.1,15.7z M7.9,15.7c-0.6-0.8-3.7-3.8-3.7-3.8l2.5,5.2C7.3,16.2,7.9,15.7,7.9,15.7z M40.2,16
			c3.9-3.8,7-6.1,7.2-6.2c-8.2,2.3-15.8,3-22.4,3c-6.6,0-14.2-0.8-22.4-3c0.2,0.1,3.3,2.5,7.2,6.2c-0.6,0.4-1.1,0.9-1.6,1.5
			c-1.6,1.8-2.6,4.1-2.6,6.7c0,2.4,1,4.9,2.6,6.7c1.7,1.9,3.9,3.1,6.4,3.6c0.8,0.1,1.6,0.2,2.4,0.3c1.3,0.1,2.5,0,3.7,0.4
			c1.2,0.4,2,0.9,2.5,1.5c0.3,0.3,0.5,0.6,0.7,0.9c0.1,0.2,0.3,0.4,0.4,0.7c0,0.1,0,0.1,0.1,0.1c0,0.1,0.1,0.4,0.2,0.6
			c0.1,0.5,0.3,1,0.4,1.5c0.1-0.5,0.2-1,0.4-1.5c0.1-0.2,0.1-0.5,0.2-0.6c0,0,0-0.1,0.1-0.1c0.1-0.2,0.3-0.4,0.4-0.7
			c0.2-0.3,0.4-0.6,0.7-0.9c0.6-0.6,1.4-1.1,2.5-1.5c1.2-0.3,2.5-0.3,3.7-0.4c0.8-0.1,1.6-0.1,2.4-0.3c2.5-0.4,4.7-1.7,6.4-3.6
			c1.6-1.8,2.6-4.2,2.6-6.7c0-2.5-1-4.9-2.6-6.7C41.3,16.9,40.8,16.4,40.2,16z M17,32.7h-0.7c-4.8,0-8.6-3.8-8.6-8.4
			c0-1.6,0.4-3,1.2-4.3c0.5-0.8,1.1-1.5,1.8-2.1c0.2-0.2,0.4-0.4,0.7-0.5c2.5,2.6,5.3,5.8,7.7,9.3c0.3,0.4,0.5,0.8,0.8,1.2
			c0.6,1,1.2,2,1.8,3c0.6,1.1,1.1,2.3,1.6,3.5C21.2,33.2,19.2,32.7,17,32.7z M33.8,32.7H33c-2.2,0.1-4.2,0.4-6.1,1.7c0,0,0,0,0,0
			c0,0,0,0,0,0c0.5-1.2,1-2.3,1.6-3.4c0.6-1,1.2-2,1.8-3c0.2-0.4,0.5-0.8,0.8-1.2c2.4-3.5,5.1-6.7,7.7-9.3c0.2,0.1,0.4,0.3,0.7,0.5
			c0.7,0.6,1.3,1.3,1.8,2.1c0.8,1.3,1.2,2.7,1.2,4.3C42.4,28.9,38.5,32.7,33.8,32.7z M38,20l-1.9,2.6L36,22.8l1.3,4.2l-3.4-2.2
			l-2,2.9l-0.8,1.3l-1.6,2.5c0.7-0.7,1.6-1,2.6-1.1c0.6-0.1,1.1-0.1,1.6-0.1c0.2,0,0.4,0,0.6-0.1c1.7-0.1,3.3-0.5,4.5-2
			C42.5,23.9,38.1,19.7,38,20z"/>
	</g>
</g>
</svg>
