<?xml version="1.0" encoding="utf-8"?>
<!-- Generator: Adobe Illustrator 23.0.3, SVG Export Plug-In . SVG Version: 6.00 Build 0)  -->
<svg version="1.1" id="Layer_1" xmlns="http://www.w3.org/2000/svg" xmlns:xlink="http://www.w3.org/1999/xlink" x="0px" y="0px"
	 viewBox="0 0 32 32" style="enable-background:new 0 0 32 32;" xml:space="preserve">
<title>ElasticSearch_IntegrationImage</title>
<g>
	<g>
		<path d="M29.9,15.7c-0.1-0.5-0.1-0.8-0.2-1.2H16.3v4.7h8.2c-0.2,0.8-0.5,1.5-0.9,2.1c-0.4,0.6-0.8,1.2-1.3,1.6
			c-0.7,0.6-1.5,1.1-2.5,1.5c-0.9,0.4-2.1,0.5-3.4,0.5c-1.2,0-2.4-0.2-3.4-0.6s-2-1.1-2.9-1.8s-1.5-1.7-1.9-2.8
			c-0.5-1.1-0.7-2.3-0.7-3.7s0.2-2.6,0.7-3.7c0.5-1.1,1.1-2,1.9-2.9C11,8.7,11.9,8.1,13,7.6C14,7.2,15.2,7,16.4,7
			c1.5,0,2.8,0.2,3.9,0.7c1.1,0.5,2,1.2,2.9,2.1L27,6.1c-1.3-1.3-2.8-2.5-4.6-3.2s-3.7-1.2-6-1.2c-2,0-3.9,0.4-5.6,1.1
			s-3.3,1.7-4.6,3c-1.3,1.3-2.3,2.7-3.1,4.5S2,14,2,16s0.4,4,1.2,5.7c0.8,1.8,1.8,3.2,3.1,4.5c1.3,1.3,2.9,2.3,4.6,3
			c1.8,0.7,3.6,1.1,5.6,1.1c2.2,0,4.1-0.4,5.8-1.1c1.7-0.7,3.2-1.7,4.4-3c1.1-1.2,1.9-2.5,2.5-4.1s0.9-3.2,0.9-5
			C30,16.6,30,16.2,29.9,15.7z"/>
	</g>
</g>
</svg>
