<!-- Generated by IcoMoon.io -->
<svg version="1.1" xmlns="http://www.w3.org/2000/svg" width="32" height="32" viewBox="0 0 32 32">
<title>f5-icon</title>
<path d="M28.864 7.552c-0.064 0.064-0.064 0.192-0.064 0.256-0.128 0.64-0.256 1.28-0.32 1.856 0 0.064-0.064 0.128-0.128 0.128-1.216-0.128-2.432-0.256-3.648-0.384-1.408-0.128-2.752-0.192-4.16-0.256-0.128 0-0.192 0-0.256 0.128-0.192 0.704-0.448 1.408-0.64 2.112 0 0 0 0.064 0 0.064 0.064 0 0.064 0 0.064 0 0.384 0.064 0.768 0.064 1.088 0.128 1.088 0.128 2.112 0.32 3.2 0.576 1.216 0.32 2.368 0.768 3.456 1.536 1.152 0.832 2.048 1.92 2.56 3.264 0.32 1.024 0.384 2.048 0.32 3.136-0.128 0.96-0.32 1.856-0.768 2.688-0.704 1.344-1.664 2.304-2.944 3.072-1.728 0.96-3.52 1.536-5.504 1.472-1.152 0-2.24-0.128-3.392-0.32-0.512-0.128-0.96-0.256-1.472-0.384-0.128-0.064-0.192-0.128-0.256-0.256-0.192-0.384-0.32-0.768-0.512-1.152-0.192-0.512-0.448-0.96-0.64-1.472-0.128-0.256-0.128-0.512 0.128-0.704 0.384-0.384 0.768-0.768 1.152-1.152 0.128-0.128 0.32-0.256 0.448-0.32 0.192-0.064 0.256-0.064 0.384 0.128 0.576 0.896 1.216 1.856 1.792 2.752 0.512 0.768 1.152 1.28 2.048 1.536 0.512 0.128 1.024 0.192 1.6 0.192 0.896 0 1.664-0.256 2.368-0.832 1.664-1.344 1.664-3.264 0.512-4.672-0.384-0.448-0.768-0.768-1.28-1.088-1.024-0.64-2.112-1.024-3.264-1.28-1.408-0.384-2.88-0.576-4.352-0.704-0.192 0-0.384-0.064-0.576-0.064 0.064-0.256 0.128-0.448 0.192-0.64 1.28-3.712 2.496-7.488 3.776-11.2 0.064-0.128 0.128-0.128 0.192-0.128 1.216 0.064 2.496 0.192 3.712 0.256 1.216 0.128 2.432 0.32 3.712 0.512 0.256 0.064 0.512 0.064 0.832 0.128-0.064-0.064-0.064-0.128-0.064-0.128-0.768-0.896-1.6-1.728-2.496-2.496-3.264-2.368-6.784-3.456-10.688-3.2-0.96 0.064-1.92 0.192-2.816 0.448-2.688 0.704-5.056 1.984-6.976 3.968-3.52 3.52-4.992 7.808-4.48 12.8 0.128 1.536 0.576 2.944 1.152 4.352 0.448 1.088 1.024 2.048 1.728 3.008 0 0.064 0.064 0.064 0.128 0.064 0.256 0 0.512-0.064 0.768-0.192 0.128-0.064 0.192-0.192 0.192-0.32-0.064-0.576-0.064-1.152-0.128-1.664-0.064-0.768-0.128-1.472-0.128-2.24-0.064-0.768-0.064-1.536-0.064-2.304 0-1.152 0-2.368 0-3.52v-0.896c-0.704 0.064-1.408 0.064-2.112 0.128 0-0.064 0-0.064 0-0.064 0.064-0.512 0.064-1.088 0.128-1.6 0-0.128 0.064-0.128 0.192-0.128 0.576-0.064 1.216-0.128 1.792-0.192 0.128 0 0.256-0.064 0.192-0.192 0-0.064 0-0.128 0-0.256 0.064-0.512 0.064-1.024 0.192-1.472 0.192-1.024 0.704-1.92 1.472-2.688 1.408-1.408 3.136-2.24 5.056-2.752 1.152-0.32 2.368-0.448 3.584-0.384 0.448 0.064 0.832 0.128 1.152 0.384 0.512 0.384 1.024 0.768 1.536 1.152 0.192 0.192 0.256 0.32 0.064 0.576-0.256 0.256-0.448 0.512-0.704 0.832-0.192 0.256-0.384 0.256-0.64 0.192-0.064 0-0.192-0.064-0.256-0.064-0.768-0.32-1.472-0.704-2.24-1.024-0.512-0.192-1.024-0.32-1.6-0.384-0.512 0-0.896 0.128-1.152 0.512-0.192 0.256-0.32 0.512-0.32 0.768-0.064 0.576-0.064 1.152-0.128 1.792-0.064 0.704-0.064 1.408-0.128 2.112 0 0.128 0 0.32 0 0.448 1.728 0 3.52-0.064 5.248-0.064 0 0.384 0 0.768 0 1.152 0 0.064-0.064 0.064-0.064 0.128-0.512 0.256-1.024 0.512-1.6 0.768-0.064 0-0.128 0.064-0.192 0.064-0.576 0-1.088 0.064-1.664 0.064-0.512 0-1.088 0-1.6 0-0.128 0-0.128 0.064-0.128 0.128 0 0.128 0 0.256 0 0.384 0 2.688 0 5.376 0.064 8.064 0 0.832 0.064 1.664 0.128 2.432 0.064 0.448 0.256 0.768 0.704 0.896 0.512 0.192 1.024 0.256 1.6 0.32 0.32 0.064 0.64 0.064 1.024 0.128v1.024c-3.072-0.064-6.144-0.32-9.216-0.832 3.072 3.392 8.256 5.696 14.080 4.672 5.76-1.024 10.432-5.248 12.032-10.816 1.216-4.544 0.512-8.832-1.984-12.8z"></path>
</svg>
