<?xml version="1.0" encoding="utf-8"?>
<!-- Generator: Adobe Illustrator 23.0.3, SVG Export Plug-In . SVG Version: 6.00 Build 0)  -->
<svg version="1.1" id="Layer_1" xmlns="http://www.w3.org/2000/svg" xmlns:xlink="http://www.w3.org/1999/xlink" x="0px" y="0px"
	 viewBox="0 0 32 32" style="enable-background:new 0 0 32 32;" xml:space="preserve">
<title>ElasticSearch_IntegrationImage</title>
<g>
	<g>
		<path d="M19,20.7h7v-8.4h-7C19,12.3,19,20.7,19,20.7z M19.5,12.8h6v7.3h-0.8v-6.6h-0.9v6.6H23v-5h-0.9v5h-0.9v-3.6h-0.9v3.6h-0.9
			C19.5,20.2,19.5,12.8,19.5,12.8z M26.1,5h-7.7V3.5l-14.8,2v21.4l14.8,1.6v-1.2h7.7c1.3,0,2.4-1,2.4-2.2V7.2C28.6,6,27.5,5,26.1,5z
			 M6.3,16.7c0.1,0.1,0.3,0.2,0.5,0.2c0.2,0,0.3,0,0.5-0.2c0.1-0.1,0.2-0.3,0.2-0.5l1,0.3c-0.1,0.3-0.2,0.7-0.3,0.8
			c-0.1,0.2-0.3,0.3-0.5,0.4s-0.4,0.1-0.9,0.1s-0.8,0-1-0.1c-0.2-0.1-0.4-0.3-0.7-0.7C5,16.7,5,16.3,5,15.8c0-0.7,0.1-1.1,0.5-1.4
			C5.9,14,6.3,13.8,7,13.8c0.4,0,0.9,0.1,1.1,0.2c0.2,0.2,0.4,0.4,0.7,0.9l-1.1,0.2c0-0.1,0-0.2-0.1-0.2c0-0.1-0.1-0.1-0.2-0.2
			c-0.1-0.1-0.2,0-0.3,0c-0.2,0-0.4,0.1-0.7,0.3c-0.1,0.1-0.1,0.4-0.1,0.8C6.1,16.2,6.1,16.4,6.3,16.7z M12.5,17.2
			c-0.2,0.2-0.3,0.4-0.7,0.5c-0.2,0.1-0.5,0.1-0.9,0.1c-0.7,0-1.1-0.1-1.3-0.3c-0.2-0.2-0.3-0.5-0.4-1h1.1c0,0.1,0,0.3,0.1,0.4
			s0.3,0.2,0.5,0.2c0.1,0,0.3,0,0.3-0.1c0.1,0,0.1-0.1,0.1-0.2c0-0.1,0-0.2-0.1-0.2c-0.1-0.1-0.3-0.2-0.7-0.2
			c-0.5-0.1-0.9-0.2-1.1-0.4c-0.2-0.2-0.3-0.4-0.3-0.8c0-0.2,0-0.3,0.1-0.5c0.1-0.1,0.2-0.3,0.5-0.4c0.2-0.1,0.5-0.1,1-0.1
			c0.4,0,0.9,0.1,1.1,0.2c0.2,0.1,0.4,0.4,0.4,0.9h-1.1c0-0.1-0.1-0.3-0.2-0.3c-0.1,0-0.2-0.1-0.3-0.1c-0.1,0-0.2,0-0.3,0.1
			c0,0-0.1,0.1-0.1,0.2c0,0,0,0.1,0.1,0.1c0,0,0.2,0.1,0.3,0.1c0.5,0.1,0.9,0.2,1.1,0.3c0.2,0.1,0.4,0.2,0.5,0.4
			c0.1,0.1,0,0.1,0.2,0.4C12.7,16.8,12.6,17,12.5,17.2z M15.6,17.8h-1.3l-1.4-3.9h1.2l0.9,2.8l0.9-2.8h1.2L15.6,17.8z M26.9,25.1
			c0,0.3-0.3,0.5-0.8,0.5h-7.7v-19h7.7c0.4,0,0.8,0.2,0.8,0.5V25.1z"/>
	</g>
</g>
</svg>
