<?xml version="1.0" encoding="utf-8"?>
<!-- Generator: Adobe Illustrator 22.0.1, SVG Export Plug-In . SVG Version: 6.00 Build 0)  -->
<svg version="1.1" id="Layer_1" xmlns="http://www.w3.org/2000/svg" xmlns:xlink="http://www.w3.org/1999/xlink" x="0px" y="0px"
	 viewBox="0 0 25 25" style="enable-background:new 0 0 25 25;" xml:space="preserve">
<style type="text/css">
	.st0{fill:#020202;}
</style>
<g>
	<g>
		<path class="st0" d="M12.5,1.8c-6.1,0-11,4.9-11,11c0,6.1,4.9,11,11,11s11-4.9,11-11C23.5,6.7,18.6,1.8,12.5,1.8z M12.5,21.3
			c-4.7,0-8.6-3.8-8.6-8.6c0-4.7,3.8-8.6,8.6-8.6s8.6,3.8,8.6,8.6C21.1,17.5,17.2,21.3,12.5,21.3z M15.2,7.8C14,7.8,13,8.8,13,10
			s1,2.2,2.2,2.2s2.2-1,2.2-2.2S16.4,7.8,15.2,7.8z M9.8,7.8c-1.2,0-2.2,1-2.2,2.2s1,2.2,2.2,2.2s2.2-1,2.2-2.2S11,7.8,9.8,7.8z
			 M15.2,13.5c-1.2,0-2.2,1-2.2,2.2s1,2.2,2.2,2.2s2.2-1,2.2-2.2S16.4,13.5,15.2,13.5z M9.8,13.5c-1.2,0-2.2,1-2.2,2.2
			s1,2.2,2.2,2.2s2.2-1,2.2-2.2S11,13.5,9.8,13.5z"/>
	</g>
</g>
</svg>
