<?xml version="1.0" encoding="utf-8"?>
<!-- Generator: Adobe Illustrator 22.0.1, SVG Export Plug-In . SVG Version: 6.00 Build 0)  -->
<svg version="1.1" id="Layer_1" xmlns="http://www.w3.org/2000/svg" xmlns:xlink="http://www.w3.org/1999/xlink" x="0px" y="0px"
	 viewBox="0 0 50 50" style="enable-background:new 0 0 50 50;" xml:space="preserve">
<style type="text/css">
	.st0{fill:#231F20;}
</style>
<g>
	<g>
		<path class="st0" d="M48.7,29.8l-9-10.7c-0.4-0.4-0.9-0.7-1.5-0.7c-0.6,0-1.1,0.3-1.5,0.7l-7.4,9.5l-7.6-9.5
			c-0.4-0.5-0.9-0.7-1.5-0.7h0c-0.6,0-1.1,0.3-1.5,0.7L11,28.8c-2.5-3.1-7.7-9.5-8.6-10.4c-0.4-0.4-1.1-0.4-1.6,0
			c-0.4,0.4-0.4,1.1,0,1.6c0.6,0.5,4,4.7,8.7,10.5c0.4,0.4,0.9,0.7,1.5,0.7h0c0.6,0,1.1-0.3,1.5-0.7l7.7-9.6l7.6,9.6
			c0.4,0.5,0.9,0.8,1.5,0.7c0.6,0,1.1-0.3,1.5-0.7l7.5-9.6L47,31.3c0.2,0.3,0.5,0.4,0.9,0.4c0.3,0,0.5-0.1,0.7-0.3
			C49,31,49.1,30.3,48.7,29.8z M39.9,27.4h-3.5c-0.5,0-0.9,0.4-0.9,0.9s0.4,0.9,0.9,0.9h3.5c0.5,0,0.9-0.4,0.9-0.9
			S40.5,27.4,39.9,27.4z"/>
	</g>
</g>
</svg>
