<?xml version="1.0" encoding="utf-8"?>
<!-- Generator: Adobe Illustrator 23.0.2, SVG Export Plug-In . SVG Version: 6.00 Build 0)  -->
<svg version="1.1" id="Layer_1" xmlns="http://www.w3.org/2000/svg" xmlns:xlink="http://www.w3.org/1999/xlink" x="0px" y="0px"
	 viewBox="0 0 50 50" style="enable-background:new 0 0 50 50;" xml:space="preserve">
<g>
	<path d="M18.7,42.6c-5.6,0-11.3,0-16.9,0c0.3-0.3,0.5-0.6,0.8-0.8c8.9-8.7,11.4-24.9,2-34.4c10,0,23.2,0,30.2,0S48.2,15,48.2,25.8
		S37,42.6,34.2,42.6s-4.2,0-6.3,0c3.5-9.3,7-18.5,10.6-27.9c-6.6,0-13.1,0-19.6,0c-0.2,0-0.6,0.4-0.7,0.7c-0.3,1.2-0.6,2.5-0.9,3.8
		c-0.2,1-0.4,2.1-0.7,3.3c3.5,0,6.7,0,10.1,0C24,29.4,21.3,36,18.7,42.6z"/>
</g>
</svg>
