<?xml version="1.0" standalone="no"?>
<!DOCTYPE svg PUBLIC "-//W3C//DTD SVG 20010904//EN"
 "http://www.w3.org/TR/2001/REC-SVG-20010904/DTD/svg10.dtd">
<svg version="1.0" xmlns="http://www.w3.org/2000/svg"
 width="480.000000pt" height="480.000000pt" viewBox="0 0 480.000000 480.000000"
 preserveAspectRatio="xMidYMid meet">
<metadata>
Created by potrace 1.15, written by Peter Selinger 2001-2017
</metadata>
<g transform="translate(0.000000,480.000000) scale(0.100000,-0.100000)"
fill="#000000" stroke="none">
<path d="M2145 4794 c-238 -33 -436 -81 -608 -148 -638 -247 -1136 -745 -1383
-1383 -49 -127 -101 -316 -130 -478 -27 -145 -27 -625 0 -770 29 -162 81 -351
130 -478 247 -638 745 -1136 1383 -1383 127 -49 316 -101 478 -130 145 -27
625 -27 770 0 162 29 351 81 478 130 638 247 1136 745 1383 1383 49 127 101
316 130 478 15 82 19 152 19 385 0 233 -4 303 -19 385 -29 162 -81 351 -130
478 -249 644 -756 1147 -1401 1390 -121 45 -298 93 -455 123 -82 15 -567 29
-645 18z m548 -1237 c222 -59 380 -150 547 -317 166 -167 257 -322 317 -547
25 -90 27 -113 27 -293 0 -180 -2 -203 -27 -293 -60 -225 -151 -380 -317 -547
-167 -166 -322 -257 -547 -317 -90 -25 -113 -27 -293 -27 -180 0 -203 2 -293
27 -225 60 -380 151 -547 317 -166 167 -257 322 -317 547 -25 90 -27 113 -27
293 0 180 2 203 27 293 58 217 150 378 307 538 179 183 365 285 615 339 135
29 391 23 528 -13z"/>
</g>
</svg>
