<?xml version="1.0" encoding="utf-8"?>
<!-- Generator: Adobe Illustrator 22.0.1, SVG Export Plug-In . SVG Version: 6.00 Build 0)  -->
<svg version="1.1" id="Layer_1" xmlns="http://www.w3.org/2000/svg" xmlns:xlink="http://www.w3.org/1999/xlink" x="0px" y="0px"
	 viewBox="0 0 25 25" style="enable-background:new 0 0 25 25;" xml:space="preserve">
<g>
	<g>
		<path d="M22.9,9.7c-0.1-1.9-1-3.1-2.9-3.7c-1.4-0.4-2.9-0.5-4.4-0.2c-0.8,0.2-1.7,0.5-2.4,0.8c0.6,1,1.2,1.9,1.8,2.8
			c0.8-0.9,1.9-1,3-0.6c0.8,0.3,1.1,1.1,1,2.1c-0.7,0.1-1.4,0.1-2.1,0.2c-1.5,0.2-3,0.5-4.3,1.3c-2.4,1.6-2.3,5.2,0.3,6.6
			c1.8,1,4.4,0.7,5.9-0.8c0.1-0.1,0.2-0.2,0.4-0.3c0.1,0.5,0.1,0.9,0.2,1.4h3.5c0-1.5,0-2.9,0-4.3C22.9,13.3,22.9,11.5,22.9,9.7z
			 M18.9,15.2c-0.3,1.3-1.4,2-2.7,1.9c-0.7-0.1-1.3-0.4-1.6-1.1c-0.2-0.8,0-1.5,0.7-2c1.1-0.7,2.3-0.9,3.7-1
			C19,13.8,19,14.5,18.9,15.2z M6.6,14.1c-0.1-1.1-0.1-2.3,0.1-3.4c0.2-1.4,1.1-2,2.5-2c1.2,0,1.8,0.7,2,1.8c1.1,0,2.1,0,3.1,0
			c0.1,0,0.3,0,0.5,0C14.5,8.9,14,7.8,13,7C9.8,4.4,4.4,5.7,2.8,9.4c-0.8,1.8-0.9,3.7-0.4,5.6c1,4.1,6.1,6.1,9.4,3.9
			c-0.4-1-0.9-1.9-1.3-2.9C8.5,17.2,6.9,16.5,6.6,14.1z"/>
	</g>
</g>
</svg>
