<?xml version="1.0" encoding="utf-8"?>
<!-- Generator: Adobe Illustrator 22.0.1, SVG Export Plug-In . SVG Version: 6.00 Build 0)  -->
<svg version="1.1" id="Layer_1" xmlns="http://www.w3.org/2000/svg" xmlns:xlink="http://www.w3.org/1999/xlink" x="0px" y="0px"
	 viewBox="0 0 50 50" style="enable-background:new 0 0 50 50;" xml:space="preserve">
<g>
	<g>
		<path d="M40.8,29.2c-0.2-1.8-0.7-3.5-1.7-5c-0.6-1.1-1.3-2.1-2-3.2c-0.7-1.1-1.1-2.3-1.1-3.6c0-0.8,0.2-1.6,0.5-2.4
			c0.1-0.4,0.3-0.7,0.5-1.1c-0.4,0.1-0.7,0.1-1,0.2c-2.2,0.4-3.7,1.7-4.3,3.9c-0.4,1.3-0.3,2.6-0.3,3.8c0,0.5,0,1.1-0.1,1.6
			c-0.4,2-2.4,3.3-4.4,2.9c-1.6-0.3-3-1.8-2.3-3.8c0.2-0.8,0.7-1.3,1.3-1.9c2.1-2.3,2.9-5,2.5-8.1c-0.3-2-1.1-3.7-2.3-5.3
			c-1.6-2-3.5-3.6-5.7-4.9c0,0-0.1,0-0.1,0c0,0,0,0.1,0,0.1c0,0,0,0.1,0,0.1c0.6,1.7,1.1,3.5,1.2,5.4c0.1,2.3-0.5,4.4-2,6.2
			c-0.9,1.2-2.1,2.2-3.3,3.1c-1.6,1.3-3.2,2.6-4.8,3.9c-1.4,1.2-2.7,2.6-3.8,4.2c-1.3,2-2.1,4.3-2.4,6.7c-0.2,1.6-0.1,3.3,0.3,4.9
			c0.9,3.7,3.1,6.4,6.2,8.4c1.8,1.1,3.8,1.8,5.8,2.3c0.1,0,0.2,0,0.3,0.1c0.1,0,0.2,0,0.3,0c0-0.1-0.1-0.1-0.1-0.1
			c-1.1-0.6-2.1-1.5-2.9-2.5c-2.2-2.9-2.8-6.1-2.1-9.6c0.6-2.9,2.1-5.2,4.2-7.2c0,0,0.1,0,0.1-0.1c-0.1,0.6-0.3,1.2-0.4,1.8
			c-0.2,1.3-0.2,2.5,0.3,3.7c0.5,1.4,1.4,2.5,2.9,3c1,0.3,2.1,0.2,3.1-0.1c0.8-0.3,1.7-0.4,2.5-0.3c1.8,0.2,3,1.3,3.7,3
			c0.4,1.1,0.5,2.2,0.3,3.4c-0.2,1.4-0.8,2.6-2,3.5c-0.3,0.3-0.7,0.5-1,0.7c0.1,0,0.1,0,0.2,0c0.6-0.1,1.2-0.3,1.8-0.5
			c3.9-1.2,7-3.4,9.3-6.9c1.4-2.1,2.2-4.5,2.5-7c0.1-0.4,0.1-0.8,0.1-1.2v-1.6C40.9,29.5,40.9,29.3,40.8,29.2z"/>
	</g>
</g>
</svg>
