<?xml version="1.0" encoding="utf-8"?>
<!-- Generator: Adobe Illustrator 22.0.1, SVG Export Plug-In . SVG Version: 6.00 Build 0)  -->
<svg version="1.1" id="Layer_1" xmlns="http://www.w3.org/2000/svg" xmlns:xlink="http://www.w3.org/1999/xlink" x="0px" y="0px"
	 viewBox="0 0 25 25" style="enable-background:new 0 0 25 25;" xml:space="preserve">
<style type="text/css">
	.st0{fill:#231F20;}
</style>
<g>
	<g>
		<path class="st0" d="M19.6,4.5c-0.7-0.6-1.8-0.6-2.4,0.1c-0.6,0.7-0.6,1.8,0.1,2.4c1.5,1.4,2.4,3.3,2.4,5.3c0,4-3.2,7.2-7.2,7.2
			c-4,0-7.2-3.2-7.2-7.2c0-2,0.8-3.8,2.2-5.2c0.7-0.6,0.7-1.7,0.1-2.4C7,4.1,5.9,4,5.2,4.7c-2.1,2-3.3,4.7-3.3,7.7
			c0,5.8,4.7,10.6,10.6,10.6s10.6-4.7,10.6-10.6C23.1,9.4,21.8,6.5,19.6,4.5z M12.5,17c0.9,0,1.7-0.8,1.7-1.7V3.8
			c0-0.9-0.8-1.7-1.7-1.7c-0.9,0-1.7,0.8-1.7,1.7v11.6C10.8,16.3,11.6,17,12.5,17z"/>
	</g>
</g>
</svg>
