<?xml version="1.0" encoding="utf-8"?>
<!-- Generator: Adobe Illustrator 23.0.2, SVG Export Plug-In . SVG Version: 6.00 Build 0)  -->
<svg version="1.1" id="Layer_1" xmlns="http://www.w3.org/2000/svg" xmlns:xlink="http://www.w3.org/1999/xlink" x="0px" y="0px"
	 viewBox="0 0 25 25" style="enable-background:new 0 0 25 25;" xml:space="preserve">
<g>
	<path d="M17.8,7.3c1.9,3.4,2.1,7,0.7,10.8c0.6-0.8,1.1-1.7,1.5-2.6c2.4-5.8-0.5-12.3-6.2-13.8c-0.5-0.1-3.3-0.4-5.2,0.1
		C12.8,1.8,15.9,3.7,17.8,7.3z"/>
	<path d="M18,3c3.2,3.2,4.3,7.1,3.4,11.5c-0.9,4.4-3.4,7.5-8,9.1c4.9-0.2,9-3.8,10-8.6C24.5,10.2,22.2,5,18,3z"/>
	<path d="M11.8,5.2c3.2,1.3,5.3,3.7,6.3,7.2c0.5-3.9-2-7.6-5.6-8.9c-3.6-1.3-7.7,0-9.8,3.2C5.4,4.3,8.5,3.9,11.8,5.2z"/>
	<path d="M7.9,5.7c-3.7,0.5-6.2,3.1-6.6,7.1c2-6,10-7.3,14.5-2.7C14.7,7.2,11.2,5.2,7.9,5.7z"/>
</g>
</svg>
