<?xml version="1.0" encoding="utf-8"?>
<!-- Generator: Adobe Illustrator 22.0.1, SVG Export Plug-In . SVG Version: 6.00 Build 0)  -->
<svg version="1.1" id="Layer_1" xmlns="http://www.w3.org/2000/svg" xmlns:xlink="http://www.w3.org/1999/xlink" x="0px" y="0px"
	 viewBox="0 0 25 25" style="enable-background:new 0 0 25 25;" xml:space="preserve">
<g>
	<g>
		<path d="M12.1,0.7C6.4,0.9,1.3,5.8,1.3,11.9c0,6.3,5.1,11.3,11.2,11.3c6.3,0,11.2-5.1,11.2-11.2C23.7,5.9,18.6,0.6,12.1,0.7z
			 M12.4,22.1c-5.7,0-10.1-4.5-10.2-10.2c0-5.6,4.6-10.2,10.2-10.2c5.7,0,10.2,4.7,10.2,10.2C22.6,17.8,18.1,22.2,12.4,22.1z
			 M18,13.2c-1-0.3-2.1-0.4-3-0.9c-0.1-0.1-0.2-0.1-0.3-0.2c-0.1-1.1-1-2-2.1-2.1c-0.3-1.3-0.7-2.5-0.9-3.8c-0.1-0.5,0.5-1,0.9-1
			c0.5-0.1,1,0,1.3,0.7c-0.3,0.1-0.7,0.3-1.1,0.5c1.1,0.6,2.1,1.1,3.1,1.7C15.8,8,15.9,8,16,7.9c-0.3-0.9-0.5-1.8-0.8-2.7
			c-0.4-1.1-2-1.8-2.9-1.5c-1.5,0.6-2.3,1.9-1.9,3.3c0.3,1,0.6,2,0.9,3c0,0.1,0,0.2,0.1,0.3c-0.6,0.4-1,1.1-1,1.9
			c0,0.4,0.1,0.7,0.2,1c0,0.1-0.1,0.2-0.2,0.2c-0.7,0.7-1.4,1.4-2.2,2.1c-0.2,0.2-0.5,0.4-0.9,0.5c-0.6,0.1-1-0.1-1.3-0.6
			c-0.2-0.4-0.3-0.9,0.3-1.2c0.3,0.2,0.5,0.4,0.8,0.7v-3.7c-0.8,0.9-1.5,1.6-2.2,2.4c-0.8,0.9-0.5,2.5,0.5,3.4
			c0.9,0.8,2.6,0.7,3.4-0.1c0.8-0.7,1.5-1.5,2.3-2.3c0.1-0.1,0.3-0.2,0.5-0.3c0.2,0.1,0.5,0.1,0.8,0.1c0.7,0,1.3-0.3,1.8-0.9
			c0.1,0,0.2,0,0.3,0c1.2,0.3,2.3,0.6,3.4,1c0.6,0.2,0.9,0.9,0.7,1.5c-0.2,0.6-0.6,0.9-1.3,0.8c0.1-0.3,0.1-0.6,0.2-1.1
			c-1.1,0.6-2.1,1.2-3,1.7c0.8,0.4,1.5,0.6,2.2,0.8c1.5,0.4,3-0.4,3.4-1.9C20.4,15,19.5,13.6,18,13.2z M12.5,13.1
			c-0.5,0-0.9-0.4-0.9-0.9c0-0.5,0.4-0.9,0.9-0.9c0.5,0,0.9,0.4,0.9,0.9C13.4,12.7,13,13.1,12.5,13.1z"/>
	</g>
</g>
</svg>
