<?xml version="1.0" encoding="utf-8"?>
<!-- Generator: Adobe Illustrator 23.0.3, SVG Export Plug-In . SVG Version: 6.00 Build 0)  -->
<svg version="1.1" id="Layer_1" xmlns="http://www.w3.org/2000/svg" xmlns:xlink="http://www.w3.org/1999/xlink" x="0px" y="0px"
	 viewBox="0 0 32 32" style="enable-background:new 0 0 32 32;" xml:space="preserve">
<title>ElasticSearch_IntegrationImage</title>
<g>
	<g>
		<path d="M15.7,18.3c0.1,0.1,0.3,0.1,0.4,0L26.9,8.2c0.3-0.1,0.1-0.5-0.3-0.5H5.2C4.9,7.6,4.8,8,4.9,8.2L15.7,18.3z M20.2,16.6
			c-0.1-0.1-0.3-0.1-0.4,0l-3.6,3.6c-0.1,0.1-0.3,0.1-0.4,0l-3.7-3.6c-0.3-0.1-0.4-0.1-0.5,0l-6.8,7.2c-0.1,0.3,0,0.5,0.3,0.5h21.7
			c0.3,0,0.4-0.3,0.3-0.5L20.2,16.6z M27.8,9.1l-6.9,6.4c-0.1,0.1-0.1,0.3,0,0.4l7.1,7.2c0.1,0.3,0.5,0,0.5-0.3V9.2
			C28.3,9.1,28.1,8.9,27.8,9.1z M10.9,15.5L4,8.9c-0.3-0.1-0.5,0-0.5,0.3v13.6c0,0.3,0.4,0.4,0.5,0.3L11,16
			C11,15.7,11,15.6,10.9,15.5z"/>
	</g>
</g>
</svg>
