<?xml version="1.0" encoding="utf-8"?>
<!-- Generator: Adobe Illustrator 22.0.1, SVG Export Plug-In . SVG Version: 6.00 Build 0)  -->
<svg version="1.1" id="Layer_1" xmlns="http://www.w3.org/2000/svg" xmlns:xlink="http://www.w3.org/1999/xlink" x="0px" y="0px"
	 viewBox="0 0 25 25" style="enable-background:new 0 0 25 25;" xml:space="preserve">
<g>
	<g>
		<path d="M23.2,6.8H1.8C1.4,6.8,1.2,7,1.2,7.4v10.2c0,0.4,0.3,0.6,0.6,0.6h15.3l1.4-2.6l1.4,2.6h3.4c0.4,0,0.6-0.3,0.6-0.6V7.4
			C23.8,7,23.6,6.8,23.2,6.8z M8.1,15.6l-1.8-3.1L7,12.2c0.3-0.1,0.5-0.2,0.6-0.4c0.4-0.5,0.3-1-0.2-1.5c-0.1-0.1-0.2-0.1-0.3-0.1
			H4.7v5.3H4.1v-6h3c0.3,0,0.6,0.1,0.7,0.3c0.7,0.8,0.8,1.6,0.2,2.4c-0.2,0.2-0.5,0.4-0.8,0.6l-0.1,0l1.4,2.5L8.1,15.6z M13.6,15.2
			c-0.1,0.1-0.5,0.4-1.3,0.4c-0.5,0-1.2-0.2-2.1-0.6l0.3-0.5c1.9,1,2.7,0.3,2.7,0.3l0,0c0.3-0.2,0.6-0.6,0.6-0.9
			c-0.1-0.4-0.7-0.8-1-0.9l-1.8-0.7c-0.2-0.1-0.3-0.2-0.5-0.3c-0.6-0.7-0.5-1.3-0.3-1.6c0.1-0.3,0.4-0.6,0.6-0.7
			c1.4-0.8,3,0.2,3,0.2l-0.3,0.5c0,0-1.3-0.8-2.4-0.2c-0.1,0.1-0.3,0.3-0.4,0.5c-0.2,0.3-0.1,0.6,0.2,0.9c0.1,0.1,0.2,0.1,0.3,0.2
			l1.8,0.7c0.1,0.1,1.2,0.5,1.3,1.4C14.5,14.2,14.2,14.7,13.6,15.2z M20.9,15.3l-2.5-5.1l-2.3,5.1l-0.6-0.2l2.4-5.3
			c0.1-0.2,0.2-0.3,0.4-0.3c0.2,0,0.4,0.1,0.5,0.3l2.6,5.3L20.9,15.3z"/>
	</g>
</g>
</svg>
