<?xml version="1.0" encoding="utf-8"?>
<!-- Generator: Adobe Illustrator 22.0.1, SVG Export Plug-In . SVG Version: 6.00 Build 0)  -->
<svg version="1.1" id="Layer_1" xmlns="http://www.w3.org/2000/svg" xmlns:xlink="http://www.w3.org/1999/xlink" x="0px" y="0px"
	 viewBox="0 0 25 25" style="enable-background:new 0 0 25 25;" xml:space="preserve">
<g>
	<g>
		<path d="M11.6,13.3c0,0,0,0.1,0,0.1c0,2.9,0,5.8,0,8.7c0,0.1,0.1,0.2,0.2,0.2c0.3,0,0.7,0.1,1,0.1c1.7,0.2,3.3,0.5,5,0.7
			c1.7,0.2,3.3,0.5,5,0.7c0.4,0.1,0.7,0.1,1.1,0.2V13.3H11.6z M11.6,11.7h12.2V1c0,0-0.1,0-0.1,0c-1.7,0.2-3.3,0.5-5,0.7
			c-2.3,0.3-4.7,0.7-7,1c-0.2,0-0.2,0.1-0.2,0.2c0,2.8,0,5.7,0,8.5C11.6,11.6,11.6,11.7,11.6,11.7z M0.9,13.4c0,2.4,0,4.9,0,7.3
			c0,0.1,0.1,0.2,0.2,0.2c1,0.1,2,0.3,3,0.4c1.5,0.2,3,0.4,4.5,0.6c0.5,0.1,1,0.1,1.5,0.2v-8.8L0.9,13.4C0.9,13.3,0.9,13.3,0.9,13.4
			z M10.1,3C7,3.4,3.9,3.8,0.9,4.3v7.5h9.2V3z"/>
	</g>
</g>
</svg>
