<!-- Generated by IcoMoon.io -->
<svg version="1.1" xmlns="http://www.w3.org/2000/svg" width="32" height="32" viewBox="0 0 32 32">
<title>PostgreSQL-icon</title>
<path d="M9.984 14.72c0.192-1.472 0.128-2.752 0.064-3.456 0-0.192 0-0.32 0-0.448 0-0.256-0.064-4.416 2.368-6.848 0 0 0.064-0.064 0.064-0.064-1.472-0.448-5.12-1.408-7.36 0.128-1.408 1.024-2.048 2.816-1.92 5.376 0.064 0.832 0.576 3.712 1.472 6.656 1.024 3.328 2.176 5.44 3.2 5.824 0.128 0.064 0.64 0.192 1.28-0.576 0.96-1.152 1.856-2.112 2.24-2.56-0.128-0.064-0.192-0.192-0.32-0.256-0.896-1.024-1.28-2.368-1.088-3.776zM24.896 9.92c-1.024-0.128-2.112-0.064-2.624 0.576-0.896 1.28 0.832 4.352 1.6 5.632 0.192 0.32 0.32 0.576 0.384 0.704 0.064 0.192 0.128 0.32 0.192 0.448 0.512-1.088 0.384-2.176 0.256-3.2-0.064-0.512-0.128-1.088-0.128-1.6s0.064-0.96 0.128-1.408c0.128-0.384 0.128-0.768 0.192-1.152zM23.872 10.816c-0.064 0.064-0.256 0.256-0.512 0.256 0 0-0.064 0-0.064 0-0.32 0-0.64-0.256-0.64-0.448s0.32-0.384 0.64-0.448c0.384-0.064 0.704 0 0.768 0.192v0c0 0.192-0.064 0.32-0.192 0.448zM25.216 19.776c-0.064 0-0.064-0.064-0.128-0.064s-0.128 0.064-0.192 0.064c-0.384 0.128-0.768 0.192-0.704 1.216 0.128 0.064 0.512 0.192 1.408 0.192 0.768-0.064 1.6-0.192 2.112-0.448 0.576-0.256 0.96-0.576 1.216-0.768 0 0 0 0 0 0-1.792 0.32-3.072 0.256-3.712-0.192zM24.384 18.624c-0.256-0.32-0.64-0.832-0.896-1.472-0.064-0.128-0.192-0.384-0.32-0.64-0.896-1.6-2.688-4.864-1.536-6.528 0.512-0.768 1.6-1.088 3.2-0.96-0.192-0.64-0.704-1.792-1.728-2.944-1.152-1.344-3.136-2.944-6.208-3.008-1.6 0-2.88 0.448-3.84 1.472-1.536 1.536-1.984 4.032-2.048 5.312 0.064-0.064 0.128-0.064 0.256-0.128 0.384-0.192 1.152-0.576 2.048-0.64 1.408-0.128 2.368 0.512 2.688 1.792 0.768 3.52 0.064 5.056-0.448 6.144-0.064 0.192-0.192 0.384-0.256 0.576l-0.192 0.32c-0.128 0.384-0.32 0.768-0.384 1.088 0.384-0.064 0.704 0.064 0.832 0.128 0.448 0.192 0.768 0.576 0.96 1.088 0 0.064 0.064 0.192 0.064 0.256s0 0.064 0 0.128c-0.128 3.52 0.064 6.656 0.32 7.36 0.448 1.088 1.088 2.048 2.944 1.664 1.792-0.384 2.432-1.024 2.752-2.752 0.256-1.344 0.704-5.056 0.768-5.824-0.064-1.6 0.768-1.92 1.28-2.048-0.128-0.128-0.192-0.256-0.256-0.384zM23.68 5.504c1.344 1.536 1.984 3.328 2.048 3.904 0 0.064 0 0.192 0 0.256 0 0.576-0.064 1.088-0.128 1.6-0.064 0.384-0.128 0.832-0.128 1.28s0.064 0.96 0.128 1.472c0.128 1.28 0.32 2.688-0.576 4.096 0 0 0 0.064 0.064 0.064 0.064 0.064 0.064 0.064 0.128 0.128 3.328-5.248 4.48-11.392 3.456-12.736-1.344-1.728-3.328-2.688-5.76-2.688-0.96 0-1.856 0.128-2.432 0.256 1.344 0.576 2.432 1.536 3.2 2.368zM15.232 19.904c-0.256-0.064-0.384-0.128-0.64 0.192 0 0 0 0 0 0-0.192 0.192-0.32 0.384-0.448 0.512-0.512 0.64-0.768 0.896-2.304 1.216-0.32 0.064-0.512 0.128-0.576 0.192 0.128 0.064 0.32 0.192 0.576 0.256 1.152 0.256 2.688 0.32 3.776-1.216 0.128-0.192 0.064-0.384 0.064-0.512-0.064-0.384-0.256-0.576-0.448-0.64zM30.72 19.264c-0.128-0.32-0.576-1.28-2.24-0.96-0.64 0.128-1.152 0.192-1.536 0.192 1.344-2.304 2.432-4.928 3.072-7.36 0.576-2.176 1.024-5.12-0.192-6.592-1.728-2.176-4.16-3.328-7.168-3.392-1.6 0-3.008 0.32-3.712 0.512-0.704-0.128-1.408-0.192-2.176-0.192-1.408 0-2.688 0.32-3.776 0.96-0.512-0.192-1.472-0.512-2.624-0.704-2.624-0.448-4.736-0.064-6.272 1.024-1.856 1.344-2.688 3.648-2.56 6.848 0.064 1.024 0.64 4.096 1.536 7.040 0.512 1.664 1.088 3.072 1.664 4.16 0.832 1.536 1.664 2.432 2.624 2.752 0.512 0.192 1.536 0.32 2.56-0.576 0.384 0.448 0.96 0.768 1.536 0.896 1.28 0.32 2.496 0.256 3.584-0.192 0 0.192 0 0.384 0 0.512 0 0.256 0 0.512 0 0.704 0.064 1.536 0.192 2.752 0.448 3.584 0 0.064 0.064 0.128 0.064 0.192 0.128 0.448 0.384 1.28 1.088 1.856 0.448 0.384 1.152 0.832 2.24 0.832 0.32 0 0.64-0.064 1.024-0.128 1.152-0.256 2.432-0.64 3.328-1.92 0.896-1.216 1.28-3.136 1.408-6.080 0-0.064 0-0.192 0-0.256s0-0.128 0-0.128h0.256c1.152 0.064 2.56-0.192 3.392-0.576 0.768-0.32 2.944-1.472 2.432-3.008zM28.032 21.44c-0.704 0.32-1.792 0.512-2.688 0.512-0.448 0-0.896-0.064-1.216-0.128-0.128 1.408-0.512 4.032-0.704 5.184-0.384 2.048-1.28 3.008-3.392 3.456-0.384 0.064-0.704 0.128-0.96 0.128-2.048 0-2.688-1.6-2.944-2.24-0.32-0.832-0.448-3.456-0.384-6.144-0.704 0.64-1.664 1.024-2.688 1.024-0.448 0-0.896-0.064-1.344-0.192-0.128-0.064-1.28-0.32-1.28-1.088 0-0.704 1.024-0.896 1.344-0.96 1.28-0.256 1.408-0.384 1.792-0.896 0.064-0.128 0.192-0.256 0.32-0.384 0 0 0 0 0-0.064-0.576 0-1.152-0.192-1.664-0.448-0.32 0.384-1.28 1.408-2.304 2.624-0.64 0.768-1.216 0.96-1.664 0.96-0.192 0-0.384-0.064-0.512-0.064-1.344-0.448-2.56-2.56-3.712-6.336-1.024-2.944-1.6-5.952-1.664-6.912-0.128-2.88 0.576-4.928 2.24-6.080 2.88-2.048 7.552-0.512 8.576-0.128 1.024-0.704 2.24-1.024 3.648-1.024 0.768 0 1.472 0.128 2.112 0.256 0.32-0.128 1.92-0.64 3.776-0.576 2.752 0 4.992 1.088 6.528 3.072 1.024 1.344 0.384 4.544 0 5.888-0.704 2.752-2.048 5.696-3.648 8.128 0.256 0.192 0.96 0.448 3.072 0.064 0.704-0.128 1.088 0 1.216 0.384 0.256 0.768-1.088 1.664-1.856 1.984zM14.272 17.6l0.064-0.192c0.064-0.192 0.192-0.448 0.256-0.64 0.512-1.088 1.088-2.432 0.384-5.632-0.128-0.64-0.448-0.96-0.96-1.088-1.152-0.256-2.816 0.64-3.136 0.896 0 0.064 0 0.192 0 0.256 0.064 0.704 0.128 2.112-0.064 3.648-0.128 1.088 0.192 2.176 0.96 3.008 0.576 0.64 1.344 0.96 2.176 0.96 0-0.384 0.192-0.768 0.32-1.216zM13.184 11.072c-0.064-0.064-0.128-0.192-0.128-0.32 0-0.064 0-0.128 0.128-0.192 0.128-0.128 0.448-0.128 0.704-0.128 0.384 0.064 0.768 0.256 0.704 0.512 0 0.192-0.384 0.512-0.768 0.512 0 0-0.064 0-0.128 0-0.128 0-0.32-0.192-0.512-0.384z"></path>
</svg>
