<?xml version="1.0" encoding="utf-8"?>
<!-- Generator: Adobe Illustrator 22.0.1, SVG Export Plug-In . SVG Version: 6.00 Build 0)  -->
<svg version="1.1" id="Layer_1" xmlns="http://www.w3.org/2000/svg" xmlns:xlink="http://www.w3.org/1999/xlink" x="0px" y="0px"
	 viewBox="0 0 25 25" style="enable-background:new 0 0 25 25;" xml:space="preserve">
<g>
	<g>
		<path d="M19.1,9.4c-1.3-2.9-4.3-4.6-7.5-4.2c-3,0.3-5.5,2.7-6.2,5.9c-0.5,2.7,0.7,5.6,2.2,6.4c-0.1-0.1-0.1-0.2-0.2-0.3
			c-0.3-0.5-0.6-0.9-0.8-1.5c-0.7-1.6-0.9-3.3-0.4-5C7,8.1,8.9,6.8,11.6,6.4c4.2-0.6,7.6,3.1,6.7,7.3c-0.2,1.2-0.8,2.2-1.6,3.1
			c0.3,0.3,0.6,0.6,0.9,0.8C19.7,15.7,20.3,12.2,19.1,9.4z M15.8,8.6C13.6,6.7,10.2,7,8.5,9.4c-1.9,2.5-0.9,5.7,0.6,6.7
			c0-0.2,0-0.3-0.1-0.4c-0.8-1.2-1.1-2.4-0.8-3.8c0.4-1.7,1.7-3,3.3-3.3c1.7-0.3,3.4,0.4,4.3,1.8c0.9,1.5,0.8,3-0.3,4.6
			c-0.1,0.1-0.1,0.2-0.2,0.3c0.3,0.3,0.5,0.6,0.8,0.8C18.1,14.1,18,10.5,15.8,8.6z M14.6,10.5c-1-1.1-2.6-1.3-3.8-0.4
			C9.7,11,9.3,12.7,10.1,14c0.1,0.2,0.3,0.3,0.5,0.4c-0.1-0.2-0.1-0.4-0.2-0.6c-0.4-0.8-0.5-1.6,0-2.4c0.4-0.7,1-1.1,1.8-1
			c1.2,0.1,2.1,1.4,1.8,2.7c-0.2,0.8-0.2,0.8,0.5,1.3c0,0,0.1,0,0.1,0C15.6,13.3,15.6,11.6,14.6,10.5z M23.6,12.6
			c0-6.1-5-11.1-11.1-11.1S1.4,6.5,1.4,12.6s5,11.1,11.1,11.1c0.2,0,0.5,0,0.7,0v0h10.3v-2h-4.6C21.7,19.7,23.6,16.4,23.6,12.6z
			 M12.5,21.7c-5,0-9.1-4.1-9.1-9.1c0-5,4.1-9.1,9.1-9.1c5,0,9.1,4.1,9.1,9.1C21.6,17.6,17.5,21.7,12.5,21.7z"/>
	</g>
</g>
</svg>
