<?xml version="1.0" encoding="utf-8"?>
<!-- Generator: Adobe Illustrator 22.0.1, SVG Export Plug-In . SVG Version: 6.00 Build 0)  -->
<svg version="1.1" id="Layer_1" xmlns="http://www.w3.org/2000/svg" xmlns:xlink="http://www.w3.org/1999/xlink" x="0px" y="0px"
	 viewBox="0 0 50 50" style="enable-background:new 0 0 50 50;" xml:space="preserve">
<g>
	<g>
		<path d="M7.3,11.5c-2,1.5-3.1,3.9-3.1,7.1c0,1.8,0.5,3.5,1.5,4.9c1,1.4,2.4,2.6,4.3,3.4c-5,7.5-8.1,12-9.2,13.6h7.4l7.5-12h3.5v12
			h6.6V9.2h-9.1C12.5,9.2,9.3,10,7.3,11.5z M19.2,14.7v8.4h-2.1c-2.1,0-3.6-0.3-4.6-1c-1-0.7-1.5-1.8-1.5-3.3c0-1.5,0.5-2.5,1.5-3.2
			c1-0.6,2.6-1,4.8-1H19.2z M36.3,35V9.2h-6.6v31.2H49V35H36.3z"/>
	</g>
</g>
</svg>
