<?xml version="1.0" encoding="utf-8"?>
<!-- Generator: Adobe Illustrator 22.1.0, SVG Export Plug-In . SVG Version: 6.00 Build 0)  -->
<svg version="1.1" id="Layer_1" xmlns="http://www.w3.org/2000/svg" xmlns:xlink="http://www.w3.org/1999/xlink" x="0px" y="0px"
	 viewBox="0 0 50 50" style="enable-background:new 0 0 50 50;" xml:space="preserve">
<g>
	<g>
		<path d="M36.7,26.2c-1.6-1.8-3.6-3-5.7-4.2c-2.2-1.2-3.6-2.9-3.1-5.7c-0.5-0.2-1-0.4-1.6-0.7c2.8-4.3,6.1-8,9.9-11.5
			c-3,1-5.6,2.5-7.7,5c1.3-2.5,3.1-4.7,4.9-6.9c-2.8,2-5.3,4.3-7.1,7.3c0.3-1.3,0.6-2.6,1-3.9c-1.7,2.8-2.8,5.8-3.4,9
			c-0.7-0.3-1.4-0.6-2-0.8c-0.4-0.2-0.7-0.2-0.9,0.1c0.3,0.9,0.7,1.8,1,2.7c0.6,2.1,0,3.4-1.8,4.6c-1.5,1-3.1,2-4.6,3.1
			c-4.4,3.3-6.3,7.6-5.3,13.1c0.9,4.6,3.8,7.5,8,9.3c2.4,1,5,1.1,7.6,1.1c2.8-0.1,5.5-0.6,8-2.1C40.7,41.7,42.1,32.2,36.7,26.2z
			 M29.7,36.8c-0.2,1.7-0.4,3.4-0.8,5c-0.1,0.8-0.5,1.5-0.8,2.2c-0.1,0-0.1,0-0.2-0.1c0.2-0.9,0.5-1.8,0.7-2.7
			c1.3-4.7,0.8-9.3-1.6-13.6c-0.7-1.2-1.4-2.3-1.6-3.6c-0.1-0.8-0.2-1.6-0.4-2.4c0.1,1.6,0,3.3,0.8,4.8c1,1.9,2,3.8,2.5,5.8
			c0.7,2.9,0.4,5.8-0.2,8.6c-0.2,1-0.5,1.9-0.7,2.9c-0.1,0-0.1,0-0.2,0c0.2-0.8,0.3-1.7,0.5-2.5c0.5-3,0.2-5.9-1.3-8.6
			c-0.8-1.5-1.5-3-1.4-4.8c-0.2,1.7-0.1,3.3,0.9,4.7c1.1,1.5,1.4,3.3,1.5,5.2c0.1,2.1-0.1,4.2-0.9,6.2c-0.3,0.7-0.8,1.4-1.2,2
			c1.3-3.9,0.8-7.6-0.7-11.3c0.9,3.8,1.4,7.7-0.2,11.6c-0.2-0.2-0.5-0.3-0.6-0.5c-1.4-1.9-2.4-3.9-1.7-6.3c0.2-0.8,0.8-1.6,1.2-2.4
			c0.3-0.6,0.7-1.2,1-1.8c-0.5,0.7-1.1,1.3-1.6,2c-1.2,1.7-1.5,3.6-1,5.6c0.3,1.3,0.8,2.5,1.7,3.5c-1.1-0.3-2.1-0.6-3-1.5
			c-1.6-1.6-2.7-3.4-3.2-5.6c-0.2-1.1,0-2.1,0.5-3.1c0.8-1.5,1.9-2.7,3.3-3.5c1.6-0.9,2.4-2.3,2.8-4c0,0,0-0.1,0-0.2
			c-0.2,0.5-0.3,0.9-0.5,1.3C23,31,22.1,31.9,21,32.5c-2.1,1.1-3.7,2.7-4,5.1c-0.4,2.9,0.6,5.5,2.9,7.4c0.7,0.6,1.4,1,2.1,1.5
			c-1.4-0.3-2.6-1-3.6-2.2c-1.5-1.8-2.7-3.7-3.6-5.9c-0.8-2-0.6-3.9,0.5-5.8c0.9-1.5,2-2.8,3.5-3.8c1-0.7,2-1.4,3-2.1
			c0.8-0.5,1.3-1.2,1.5-2c0.3-1,0.6-2.1,0.7-3.2c-0.2,0.6-0.4,1.2-0.6,1.8c-0.4,1.6-1.4,2.8-2.9,3.6c-1.8,1-3.4,2.2-4.7,3.8
			c-1,1.2-1.6,2.6-2,4c-0.3,1.2,0,2.4,0.4,3.6c0.9,2.5,2.3,4.7,4,6.6c0.4,0.4,0.8,0.7,1.2,1.1c-0.7-0.4-1.5-0.7-2.2-1.1
			c-3-1.8-5.2-4.4-5.8-7.9c-0.7-4,0.1-7.6,3.4-10.5c1.6-1.4,3.2-2.6,5-3.7c0.8-0.5,1.5-1.1,2.1-1.7c1.3-1.3,1.4-2.9,0.8-4.6
			c-0.2-0.6-0.5-1.1-0.8-1.8c1.2,0.5,2.3,1,3.4,1.5c0.1,0,0.2,0.3,0.2,0.4c0,0.6,0,1.1,0,1.7c0,1.7,0.4,3.2,1.3,4.6
			c1,1.5,1.9,3,2.3,4.8C29.9,30.7,30,33.8,29.7,36.8z"/>
	</g>
</g>
</svg>
