<?xml version="1.0" encoding="utf-8"?>
<!-- Generator: Adobe Illustrator 22.1.0, SVG Export Plug-In . SVG Version: 6.00 Build 0)  -->
<svg version="1.1" id="Layer_1" xmlns="http://www.w3.org/2000/svg" xmlns:xlink="http://www.w3.org/1999/xlink" x="0px" y="0px"
	 viewBox="0 0 25 25" style="enable-background:new 0 0 25 25;" xml:space="preserve">
<g>
	<path d="M4.8,14.3c0-2.1-0.5-3.8-1.6-5.4C2.8,8.3,2.5,7.8,2.4,7.1c-0.6-2.5,1.2-5,3.8-5.3C7.7,1.7,9,2.3,10,3.5
		c0.3,0.4,0.6,1,1,1.4C12,6.2,13.4,6.8,15,7c0.8,0.1,1.7,0,2.5-0.2c1-0.3,2-0.1,2.9,0.4c1.3,0.7,2.1,1.9,2.3,3.4
		c0.1,1-0.1,1.9-0.6,2.7c-0.7,1.2-1.8,1.9-3.1,2.1c-0.5,0.1-1,0.1-1.6,0.1c-2.4,0.4-4.4,2.2-5,4.5c-0.3,1.1-1,2-2,2.6
		c-1.6,0.9-3.3,0.8-4.8-0.3c-1-0.7-1.5-1.7-1.7-2.9c-0.1-0.8,0-1.5,0.3-2.2C4.6,16.2,4.8,15.1,4.8,14.3z"/>
</g>
</svg>
