<?xml version="1.0" encoding="utf-8"?>
<!-- Generator: Adobe Illustrator 23.0.0, SVG Export Plug-In . SVG Version: 6.00 Build 0)  -->
<svg version="1.1" id="Layer_1" xmlns="http://www.w3.org/2000/svg" xmlns:xlink="http://www.w3.org/1999/xlink" x="0px" y="0px"
	 viewBox="0 0 50 50" style="enable-background:new 0 0 50 50;" xml:space="preserve">
<g>
	<path d="M44,11.8c0-0.2,0-0.3,0-0.5c-0.8,0-1.6,0-2.5,0c0,0.3,0,0.5,0,0.7c0,5.6,0,11.2,0,16.8c0,0.9-0.1,1.8-0.2,2.6
		c-0.3,2.3-1.5,3.9-3.7,4.5c-1.4,0.4-2.9,0.5-4.3,0.6c-1.7,0-3.5-0.1-5.1-0.7c-1.9-0.7-3.1-1.9-3.4-3.9c-0.2-1.2-0.3-2.5-0.3-3.8
		c0-5.4,0-10.8,0-16.2c0-0.2,0-0.4,0-0.6c-0.9,0-1.7,0-2.5,0c0,0.2,0,0.4,0,0.5c0,2.6,0,5.3,0,7.9c0,3.6,0,7.2,0.1,10.8
		c0,1.1,0.3,2.2,0.6,3.3c0.8,2.5,2.7,3.8,5.1,4.4c2.1,0.6,4.3,0.6,6.5,0.6c1.6-0.1,3.2-0.2,4.8-0.7c2.4-0.8,4-2.4,4.5-4.9
		c0.3-1.4,0.4-2.9,0.4-4.4C44.1,23.1,44,17.4,44,11.8z"/>
	<path d="M17.8,8.6c-0.9,0-1.6,0-2.5,0c0,0.2,0,0.4,0,0.6c0,7.2,0,14.4,0,21.6c0,1.1-0.1,2.1-0.2,3.2c-0.3,2.3-1.5,3.8-3.7,4.5
		c-0.9,0.3-1.9,0.4-2.9,0.5c-0.9,0.1-1.7,0-2.6,0c0,0.9,0,1.6,0,2.4c2.2,0,4.4,0,6.5-0.6c2.7-0.8,4.5-2.5,4.9-5.4
		c0.2-1.6,0.4-3.3,0.4-4.9c0-7.1,0-14.2,0-21.3C17.8,8.9,17.8,8.8,17.8,8.6z"/>
</g>
</svg>
