<?xml version="1.0" encoding="utf-8"?>
<!-- Generator: Adobe Illustrator 22.1.0, SVG Export Plug-In . SVG Version: 6.00 Build 0)  -->
<svg version="1.1" id="Layer_1" xmlns="http://www.w3.org/2000/svg" xmlns:xlink="http://www.w3.org/1999/xlink" x="0px" y="0px"
	 viewBox="0 0 50 50" style="enable-background:new 0 0 50 50;" xml:space="preserve">
<g>
	<path d="M19.3,40.6c0,0-0.1,0-0.1,0c-0.1,0-0.1,0-0.2,0c-0.8,0-1.5-0.2-2.3-0.4c-2.3-0.8-4-2.4-4.9-4.7c-0.1-0.1-0.1-0.2-0.2-0.1
		c-1.7,0.3-3.3,0.1-4.9-0.8c-2.1-1.1-3.4-2.9-3.8-5.2c-0.1-0.4-0.1-0.7-0.2-1.1c0-0.2,0-0.4,0-0.6c0-0.2,0-0.4,0.1-0.6
		c0.3-2.4,1.5-4.3,3.6-5.6c0,0,0.1-0.1,0.1-0.1c0,0,0-0.1,0-0.1c-1-2.5-0.9-5,0.4-7.4c1.3-2.4,3.4-3.9,6.1-4.5
		c0.3-0.1,0.7-0.1,1.1-0.1c0.3,0,0.7,0,1,0c0.2,0,0.5,0.1,0.7,0.1c2.3,0.3,4.1,1.4,5.6,3.2c0,0,0.1,0.1,0.1,0.1
		c1.9-1.8,4.1-2.7,6.7-2.4c2.6,0.3,4.5,1.8,5.9,4c0,0,0.1,0,0.1-0.1c1.8-0.7,3.6-1,5.5-0.6c4.8,0.9,8.4,5.4,7.8,10.7
		c-0.3,2.2-1.1,4-2.6,5.6c-2.4,2.4-5.3,3.3-8.6,2.8c-0.1,0-0.2,0-0.3,0.1c-1.6,2.7-4.9,4-7.9,3.2c-0.4-0.1-0.8-0.3-1.2-0.4
		c0,0.1-0.1,0.1-0.1,0.2c-1.3,2.6-3.3,4.1-6.1,4.6C20,40.6,19.6,40.6,19.3,40.6z"/>
</g>
</svg>
