<?xml version="1.0" encoding="utf-8"?>
<!-- Generator: Adobe Illustrator 22.0.1, SVG Export Plug-In . SVG Version: 6.00 Build 0)  -->
<svg version="1.1" id="Layer_1" xmlns="http://www.w3.org/2000/svg" xmlns:xlink="http://www.w3.org/1999/xlink" x="0px" y="0px"
	 viewBox="0 0 25 25" style="enable-background:new 0 0 25 25;" xml:space="preserve">
<g>
	<g>
		<path d="M14.5,17.4c-0.1-0.1-0.1-0.1-0.2-0.2c0.1-0.2,0.2-0.3,0.3-0.5c0.6-0.9,1.3-1.8,1.5-2.9c0-0.2,0-0.3-0.1-0.4
			c-0.3-0.3-0.6-0.7-0.8-1.1c-0.7-1.5-0.1-3.4,1.3-4.4c0.1-0.1,0.2-0.1,0.3-0.2c-0.8,0-1.4,0-2.1,0c-0.3,0-0.4,0.1-0.5,0.4
			c-0.4,1.7-0.9,3.4-1.4,5.1c0,0.1-0.1,0.1-0.1,0.3c-0.1-0.2-0.1-0.3-0.1-0.4c-0.5-1.7-1.1-3.4-1.6-5c-0.1-0.2-0.2-0.3-0.4-0.3
			c-0.7,0-1.4,0-2.1,0c-0.2,0-0.3,0.1-0.4,0.3c-0.5,1.5-0.9,3-1.4,4.5c-0.2,0.6-0.4,1.2-0.6,1.9c-0.1-0.2-0.1-0.2-0.1-0.3
			c-0.5-1.8-0.9-3.6-1.4-5.4C4.6,8.3,4.6,7.9,4.4,7.7c-0.2-0.2-0.6-0.1-1-0.1c-0.7,0-1.4,0-2.1,0c0,0.1,0,0.2,0,0.3
			c1.1,3.5,2.2,7,3.2,10.6c0.1,0.2,0.1,0.3,0.3,0.3c0.7,0,1.5,0,2.2,0c0.3,0,0.4-0.1,0.4-0.3c0.6-2,1.3-4,1.9-6
			c0-0.1,0.1-0.2,0.1-0.4c0.1,0.2,0.1,0.4,0.2,0.5c0.6,2,1.2,3.9,1.9,5.9c0.1,0.2,0.2,0.3,0.4,0.3c0.8,0,1.5,0,2.3,0
			c0.1,0,0.2,0,0.3-0.1c0.1-0.3,0.2-0.6,0.3-0.9C14.9,17.7,14.6,17.5,14.5,17.4z M21.7,12.5c-0.7-0.3-1.4-0.5-2.1-0.8
			c-0.4-0.2-0.9-0.3-1.3-0.6c-0.5-0.3-0.4-0.9,0.1-1.1c0.2-0.1,0.5-0.1,0.8-0.1c0.8,0,1.5,0.3,2.2,0.6c0.3,0.1,0.5,0.3,0.8,0.4
			c0.4-0.7,0.8-1.4,1.2-2.2c-0.6-0.3-1.1-0.5-1.6-0.7c-1.5-0.5-2.9-0.7-4.4-0.1c-1.3,0.5-2.1,1.5-2.1,2.9c-0.1,1.4,0.5,2.4,1.8,3
			c0.6,0.3,1.3,0.5,2,0.7c0.5,0.2,0.9,0.3,1.4,0.5c0.3,0.1,0.4,0.4,0.4,0.7c0,0.3-0.2,0.5-0.5,0.6c-0.1,0-0.2,0.1-0.4,0.1
			c-0.9,0.1-1.7-0.1-2.5-0.4c-0.5-0.2-1-0.5-1.5-0.8c-0.4,0.7-0.9,1.3-1.3,2c1.6,1.4,4.5,2.1,6.5,1.4c1.4-0.4,2.3-1.5,2.4-2.9
			C23.8,14.2,23.2,13.2,21.7,12.5z"/>
	</g>
</g>
</svg>
