<?xml version="1.0" encoding="utf-8"?>
<!-- Generator: Adobe Illustrator 22.0.1, SVG Export Plug-In . SVG Version: 6.00 Build 0)  -->
<svg version="1.1" id="Layer_1" xmlns="http://www.w3.org/2000/svg" xmlns:xlink="http://www.w3.org/1999/xlink" x="0px" y="0px"
	 viewBox="0 0 25 25" style="enable-background:new 0 0 25 25;" xml:space="preserve">
<g>
	<g>
		<path d="M21.7,15.9V8.7c0.7-0.2,1.2-0.8,1.2-1.5c0-0.9-0.7-1.6-1.6-1.6c-0.4,0-0.8,0.2-1.1,0.5l-6-3.3c0-0.1,0-0.1,0-0.2
			c0-0.9-0.7-1.6-1.6-1.6s-1.6,0.7-1.6,1.6c0,0.1,0,0.1,0,0.1L4.8,6.3C4.5,6,4.1,5.8,3.7,5.8c-0.9,0-1.6,0.7-1.6,1.6
			c0,0.7,0.5,1.3,1.2,1.5v7c-0.7,0.2-1.2,0.8-1.2,1.5c0,0.9,0.7,1.6,1.6,1.6c0.4,0,0.8-0.2,1.1-0.4l6.3,3.5c0,0.1,0,0.2,0,0.3
			c0,0.9,0.7,1.6,1.6,1.6s1.6-0.7,1.6-1.6c0-0.1,0-0.3-0.1-0.4l6.2-3.4c0.3,0.2,0.6,0.4,1,0.4c0.9,0,1.6-0.7,1.6-1.6
			C22.9,16.7,22.4,16.1,21.7,15.9z M20.9,15.9c-0.7,0.2-1.2,0.8-1.2,1.5c0,0.2,0,0.4,0.1,0.6l-6.1,3.3c-0.3-0.3-0.7-0.5-1.2-0.5
			c-0.5,0-0.9,0.2-1.2,0.6l-6.2-3.5c0-0.2,0.1-0.3,0.1-0.5c0-0.7-0.5-1.3-1.2-1.5v-7c0.7-0.2,1.2-0.8,1.2-1.5c0-0.2,0-0.3-0.1-0.5
			l6.1-3.4c0.3,0.4,0.8,0.7,1.3,0.7c0.5,0,1-0.3,1.3-0.7l5.9,3.2c0,0.1-0.1,0.3-0.1,0.4c0,0.7,0.5,1.3,1.2,1.5V15.9z M18.6,8.4
			c0-0.7-0.6-1.3-1.3-1.3c-0.6,0-1.1,0.4-1.3,1h-2.3c-0.2-0.6-0.7-1-1.3-1s-1.1,0.4-1.3,1H9c-0.2-0.6-0.7-1-1.3-1
			C7,7.1,6.4,7.7,6.4,8.4S7,9.8,7.7,9.8c0.6,0,1.1-0.4,1.3-1h2.2c0.1,0.4,0.5,0.8,0.9,0.9V12c-0.6,0.2-1,0.7-1,1.3s0.4,1.1,1,1.3
			v2.2c-0.6,0.2-1,0.7-1,1.3c0,0.7,0.6,1.3,1.3,1.3s1.3-0.6,1.3-1.3c0-0.6-0.4-1.1-1-1.3v-2.2c0.4-0.1,0.8-0.5,0.9-0.9H16
			c0.2,0.6,0.7,1,1.3,1c0.7,0,1.3-0.6,1.3-1.3c0-0.6-0.4-1.1-1-1.3V9.7C18.2,9.5,18.6,9,18.6,8.4z M16.9,12
			c-0.4,0.1-0.8,0.5-0.9,0.9h-2.3c-0.1-0.4-0.5-0.8-0.9-0.9V9.7c0.4-0.1,0.8-0.5,0.9-0.9H16c0.1,0.4,0.5,0.8,0.9,0.9V12z"/>
	</g>
</g>
</svg>
