<!-- Generated by IcoMoon.io -->
<svg version="1.1" xmlns="http://www.w3.org/2000/svg" width="32" height="32" viewBox="0 0 32 32">
<title>Joe_Sandbox_IntegrationImage</title>
<path d="M24.448 3.52l-1.408 2.176c3.648 2.368 5.824 6.336 5.824 10.624 0 6.976-5.632 12.608-12.608 12.608-0.192 0-0.384 0-0.64 0l-0.128 2.624c0.256 0 0.512 0 0.768 0 8.384 0 15.232-6.848 15.232-15.232 0-5.184-2.624-9.984-7.040-12.8zM5.056 6.272c2.688-2.816 6.4-4.352 10.304-4.224l0.064-1.6c-4.352-0.128-8.512 1.6-11.52 4.8-1.536 1.664-2.688 3.584-3.392 5.696l1.536 0.512c0.64-1.984 1.664-3.648 3.008-5.184zM4.16 15.552c0-0.256 0-0.576 0-0.832l-2.816-0.192c0 0.32-0.064 0.704-0.064 1.024 0 6.848 4.864 12.8 11.584 14.144l0.576-2.752c-5.376-1.088-9.28-5.824-9.28-11.392zM24.896 16.064c0 4.16-2.816 7.936-6.784 9.152l0.448 1.472c4.608-1.408 7.872-5.76 7.872-10.624 0-6.080-4.992-11.072-11.072-11.072-1.024 0-2.048 0.128-3.072 0.448l0.384 1.472c0.832-0.256 1.728-0.384 2.624-0.384 5.312 0 9.6 4.288 9.6 9.536z"></path>
</svg>
