<?xml version="1.0" encoding="utf-8"?>
<!-- Generator: Adobe Illustrator 22.0.1, SVG Export Plug-In . SVG Version: 6.00 Build 0)  -->
<svg version="1.1" id="Layer_1" xmlns="http://www.w3.org/2000/svg" x="0px" y="0px"
	 viewBox="0 0 25 25" style="enable-background:new 0 0 25 25;" xml:space="preserve">
<g>
	<g>
		<path d="M12.2,13.2C8.8,11.6,5.4,10,1.9,8.3v0.3c0,4.8,0,9.6,0,14.3c0,0.1,0,0.2,0,0.3h3.9c0,0,0-0.1,0.1-0.1
			c2.1-3.2,4.2-6.5,6.3-9.7C12.1,13.3,12.2,13.3,12.2,13.2z M22.9,18c0.2-0.1,0.2-0.2,0.2-0.4c0-5.2,0-10.4,0-15.6
			c0-0.1,0-0.1,0-0.2h-2.7c0.5,0.9,0.9,1.7,1.4,2.6c-0.2,0.1-0.3,0.1-0.4,0.2c-0.4,0.1-0.7,0.1-0.9-0.3c-0.1-0.1-0.2-0.3-0.3-0.4
			c-0.9-1.4-2.2-2-3.8-1.8c-1,0.1-1.9,0.3-2.9,0.6C11,3.3,8.6,4.1,6.1,4.8C5.5,5,4.8,5.2,4.1,5.4c3.9,1.8,7.8,3.6,11.8,5.4
			c-2.6,4-5.1,8-7.7,12c0.1,0,0.2,0,0.3-0.1c4.1-1.2,8.1-2.5,12.2-3.8C21.4,18.7,22.2,18.5,22.9,18z M4.9,3.6C6.4,3.1,8,2.6,9.6,2
			c0.1,0,0.2,0,0.2-0.2H1.9v2.7c0.1,0,0.2-0.1,0.3-0.1C3.1,4.1,4,3.8,4.9,3.6z M17,23.1h6.1v-1.8C21,21.9,19,22.5,17,23.1
			C17,23.1,17,23.1,17,23.1z"/>
	</g>
</g>
</svg>
