<?xml version="1.0" encoding="utf-8"?>
<!-- Generator: Adobe Illustrator 23.0.1, SVG Export Plug-In . SVG Version: 6.00 Build 0)  -->
<svg version="1.1" id="Layer_1" xmlns="http://www.w3.org/2000/svg" xmlns:xlink="http://www.w3.org/1999/xlink" x="0px" y="0px"
	 viewBox="0 0 25 25" style="enable-background:new 0 0 25 25;" xml:space="preserve">
<g>
	<path d="M15.4,17.7c-1.7,0-2.8-1-2.9-2.4c-0.1-1.7-1.2-2.7-2.7-2.8c-1.4-0.1-2.4-1.2-2.5-2.5c0-1.3,0.9-2.4,2.2-2.6
		C10.8,7.1,12,8,12.4,9.2c0.1,0.3,0.1,0.6,0.1,0.9c0.2,1.3,1.1,2.2,2.4,2.3c1,0.1,1.8,0.4,2.3,1.3c0.5,0.9,0.5,1.8,0.1,2.6
		C16.8,17.3,16.1,17.7,15.4,17.7z"/>
	<path d="M8.5,12.7c-0.2,0.2-0.5,0.5-0.7,0.8c-0.2,0.5-0.5,1-0.5,1.5c-0.1,1.4-1,2.4-2.4,2.6c-1.1,0.2-2.5-0.9-2.7-2.1
		c-0.2-1.6,0.8-2.9,2.4-3c0.9-0.1,1.7-0.4,2.3-1.1c0.1-0.1,0.3-0.1,0.4-0.1C7.7,11.8,8.1,12.3,8.5,12.7z"/>
	<path d="M18,13.8c-0.6-0.6-1.1-1.1-1.6-1.6c0,0.1,0,0,0,0c0.9-0.6,1.3-1.5,1.4-2.5c0.1-1.5,1.2-2.3,2.5-2.3c1.3,0,2.3,0.8,2.6,2.3
		c0.1,1-0.5,2.5-2.1,2.7C19.6,12.5,18.6,12.8,18,13.8z M20.3,11.2c0.7,0,1.3-0.6,1.3-1.3c0-0.7-0.7-1.3-1.3-1.3
		c-0.7,0-1.3,0.6-1.3,1.3C18.9,10.6,19.6,11.2,20.3,11.2z"/>
</g>
</svg>
