<?xml version="1.0" encoding="utf-8"?>
<!-- Generator: Adobe Illustrator 22.0.1, SVG Export Plug-In . SVG Version: 6.00 Build 0)  -->
<svg version="1.1" id="Layer_1" xmlns="http://www.w3.org/2000/svg" xmlns:xlink="http://www.w3.org/1999/xlink" x="0px" y="0px"
	 viewBox="0 0 25 25" style="enable-background:new 0 0 25 25;" xml:space="preserve">
<g>
	<g>
		<path d="M22.3,6.3h-8.5c-0.6,0-1.1-0.5-1.1-1.1V4.8c0-0.7-0.5-1.2-1.2-1.2H3.2c-0.7,0-1.2,0.5-1.2,1.2v15.5c0,0.6,0.5,1,1,1H22
			c0.6,0,1-0.5,1-1V7.1C23.1,6.6,22.7,6.3,22.3,6.3z M18.5,16.2l-2.7,2.7c-0.1,0.1-0.3,0.2-0.5,0.2c-0.2,0-0.3-0.1-0.5-0.2
			c-0.3-0.3-0.3-0.7,0-1l2.1-2.2H6.8c-0.4,0-0.7-0.3-0.7-0.7c0-0.4,0.3-0.7,0.7-0.7h10.9c0.4,0,0.8,0.2,1,0.6
			C18.9,15.5,18.8,15.9,18.5,16.2z M18.2,13.3H7.2c-0.4,0-0.8-0.2-1-0.6c-0.2-0.4-0.1-0.8,0.2-1.1l2.7-2.7c0.3-0.3,0.7-0.3,1,0
			c0.3,0.3,0.3,0.7,0,1L8,12h10.2c0.4,0,0.7,0.3,0.7,0.7S18.5,13.3,18.2,13.3z"/>
	</g>
</g>
</svg>
