<?xml version="1.0" encoding="utf-8"?>
<!-- Generator: Adobe Illustrator 24.1.2, SVG Export Plug-In . SVG Version: 6.00 Build 0)  -->
<svg version="1.1" id="Layer_1" xmlns="http://www.w3.org/2000/svg" xmlns:xlink="http://www.w3.org/1999/xlink" x="0px" y="0px"
	 viewBox="0 0 25 25" style="enable-background:new 0 0 25 25;" xml:space="preserve">
<style type="text/css">
	.st0{fill-rule:evenodd;clip-rule:evenodd;}
</style>
<g>
	<path class="st0" d="M23.3,20c0,0-3-3-6-6c0.6-1.2,1-2.5,1-4c0-4.7-3.9-8.6-8.6-8.6s-8.6,3.9-8.6,8.6s3.9,8.6,8.6,8.6
		c1.8,0,3.6-0.6,5-1.6c3,3,5.8,5.8,5.8,5.8c0.8,0.8,2.1,0.8,2.9,0C24.1,22.1,24.1,20.8,23.3,20z M9.7,15.8c-3.2,0-5.8-2.6-5.8-5.8
		s2.6-5.8,5.8-5.8s5.8,2.6,5.8,5.8S12.9,15.8,9.7,15.8z M8.7,6.2C7.8,6.2,7,7,7,8s0.8,1.7,1.7,1.7s1.7-0.8,1.7-1.7S9.7,6.2,8.7,6.2z
		"/>
</g>
</svg>
