<?xml version="1.0" encoding="utf-8"?>
<!-- Generator: Adobe Illustrator 22.0.1, SVG Export Plug-In . SVG Version: 6.00 Build 0)  -->
<svg version="1.1" id="Layer_1" xmlns="http://www.w3.org/2000/svg" xmlns:xlink="http://www.w3.org/1999/xlink" x="0px" y="0px"
	 viewBox="0 0 25 25" style="enable-background:new 0 0 25 25;" xml:space="preserve">
<g>
	<g>
		<path d="M9.6,12.5c0,1.6,1.3,2.9,2.9,2.9s2.9-1.3,2.9-2.9s-1.3-2.9-2.9-2.9S9.6,10.9,9.6,12.5z M6.2,12.5C6.2,9,9,6.2,12.5,6.2
			c0.1,0,0.1,0,0.2,0l0.5,2.2L15.8,6V1.2l-2.6,3.2c-0.2,0-0.4,0-0.7,0c-4.4,0-8,3.6-8,8c0,2,0.7,3.9,2.1,5.4
			c0.2,0.2,0.4,0.3,0.6,0.3c0.2,0,0.4-0.1,0.6-0.2c0.3-0.3,0.4-0.9,0.1-1.2C6.8,15.6,6.2,14.1,6.2,12.5z M17.8,6.4
			c-0.4-0.3-0.9-0.3-1.2,0.1c-0.3,0.4-0.3,0.9,0.1,1.2c1.4,1.2,2.2,3,2.2,4.8c0,3.5-2.8,6.3-6.3,6.3c-0.4,0-0.7,0-1.1-0.1l-0.5-2.1
			L8.3,19v4.8l2.7-3.4c0.5,0.1,1,0.1,1.5,0.1c4.4,0,8-3.6,8-8C20.5,10.2,19.5,7.9,17.8,6.4z"/>
	</g>
</g>
</svg>
