<?xml version="1.0" encoding="utf-8"?>
<!-- Generator: Adobe Illustrator 23.0.6, SVG Export Plug-In . SVG Version: 6.00 Build 0)  -->
<svg version="1.1" id="Layer_1" xmlns="http://www.w3.org/2000/svg" xmlns:xlink="http://www.w3.org/1999/xlink" x="0px" y="0px"
	 viewBox="0 0 1024 1024" style="enable-background:new 0 0 1024 1024;" xml:space="preserve">
<path d="M509.2,426h3.1c16.6,0,30-13.4,30-30v-120c0-16.6-13.4-30-30-30h-3.1c-16.6,0-30,13.4-30,30v120
	C479.2,412.5,492.7,426,509.2,426z M391.3,308c-17.4,0-31.5,14.1-31.5,31.5v332.8c0,17.4,14.1,31.5,31.5,31.5s31.5-14.1,31.5-31.5
	V339.6C422.8,322.1,408.7,308,391.3,308L391.3,308z M271,467.3c-21.4,0-38.6,17.3-38.6,38.6c0,21.4,17.3,38.6,38.6,38.6
	c21.4,0,38.6-17.3,38.6-38.6C309.6,484.6,292.3,467.3,271,467.3L271,467.3z M511.6,467.3c-21.4,0-38.6,17.3-38.6,38.6
	c0,21.4,17.3,38.6,38.6,38.6c21.4,0,38.6-17.3,38.6-38.6C550.3,484.6,533,467.3,511.6,467.3L511.6,467.3z M753,467.3
	c-21.4,0-38.6,17.3-38.6,38.6c0,21.4,17.3,38.6,38.6,38.6c21.4,0,38.6-17.3,38.6-38.6C791.7,484.6,774.4,467.3,753,467.3L753,467.3z
	 M512.3,585.9h-3.1c-16.6,0-30,13.4-30,30v120c0,16.6,13.4,30,30,30h3.1c16.6,0,30-13.4,30-30v-120
	C542.3,599.3,528.9,585.9,512.3,585.9L512.3,585.9z M632.3,308c-17.4,0-31.5,14.1-31.5,31.5v332.8c0,17.4,14.1,31.5,31.5,31.5
	s31.5-14.1,31.5-31.5V339.6C663.8,322.1,649.7,308,632.3,308L632.3,308z"/>
</svg>
