<?xml version="1.0" encoding="utf-8"?>
<!-- Generator: Adobe Illustrator 23.0.1, SVG Export Plug-In . SVG Version: 6.00 Build 0)  -->
<svg version="1.1" id="Layer_1" xmlns="http://www.w3.org/2000/svg" xmlns:xlink="http://www.w3.org/1999/xlink" x="0px" y="0px"
	 viewBox="0 0 50 50" style="enable-background:new 0 0 50 50;" xml:space="preserve">
<g>
	<path d="M42.2,22.3c0.1,3.6-1.2,7.2-3.1,10.7c-2.6,4.8-5.9,9-10.3,12.2c-0.5,0.4-1.1,0.7-1.7,1c-1.4,0.7-2.8,0.7-4.2,0
		c-2.5-1.3-4.5-3.3-6.4-5.3c-3.3-3.7-6-7.8-7.6-12.5c-2.8-8,0.1-17.5,6.8-22.1c7.7-5.3,17.9-3.2,23.1,4.6
		C41.1,14.2,42.2,17.8,42.2,22.3z M11.5,22.7c-0.4,0-0.9,0-1.3,0c-0.4,0-0.6,0.2-0.6,0.6c0.1,2.6,0.7,5,2.5,7
		c2.9,3.3,6.8,4.1,10.9,4.2c0.1,0,0.4-0.4,0.4-0.6c0-0.9-0.1-1.8-0.3-2.6c-0.7-3.5-2.6-6.1-5.9-7.5C15.4,23,13.5,22.7,11.5,22.7z
		 M26.7,34.5c0.6,0,1.1,0.1,1.6,0c1.4-0.2,2.7-0.4,4.1-0.7c4.9-1.3,7.9-5.2,8.1-10.3c0-0.6-0.2-0.8-0.7-0.8
		c-1.8,0.2-3.6,0.2-5.3,0.6C28.9,24.7,26.5,29.2,26.7,34.5z"/>
</g>
</svg>
