<!-- Generated by IcoMoon.io -->
<svg version="1.1" xmlns="http://www.w3.org/2000/svg" width="32" height="32" viewBox="0 0 32 32">
<title>cynet-icon</title>
<path d="M15.616 4.224c-3.008 0.832-5.696 2.496-7.872 4.8l-7.296 7.616 8.768 8.768c1.536 1.536 3.328 2.752 5.376 3.456 4.288 1.536 10.944 1.6 16.448-8.256 0-0.064-0.064-0.128-0.064-0.064-1.344 1.6-6.016 6.272-11.456 1.344l-5.312-5.12 4.672-4.8c1.344-1.408 3.2-2.368 5.184-2.56 2.176-0.192 4.928 0.384 7.104 3.584 0 0.064 0.064 0 0.064-0.064-0.832-1.92-5.312-11.584-15.616-8.704zM26.816 12.48c-2.304 0-4.16 1.856-4.16 4.16s1.856 4.16 4.16 4.16 4.16-1.856 4.16-4.16-1.856-4.16-4.16-4.16z"></path>
</svg>
