<?xml version="1.0" encoding="utf-8"?>
<!-- Generator: Adobe Illustrator 22.1.0, SVG Export Plug-In . SVG Version: 6.00 Build 0)  -->
<svg version="1.1" id="Layer_1" xmlns="http://www.w3.org/2000/svg" xmlns:xlink="http://www.w3.org/1999/xlink" x="0px" y="0px"
	 viewBox="0 0 50 50" style="enable-background:new 0 0 50 50;" xml:space="preserve">
<g>
	<path d="M18.9,29.8c0,4.5,0,8.6,0,12.7c-2.2,0-4.2,0-6.3,0c0-11.3,0-22.6,0-34.1c2.1,0,4.1,0,6.2,0c0.1,0.9,0.1,1.7,0.2,2.7
		c0.4-0.2,0.6-0.3,0.7-0.4c5.9-5.7,14.2-3.8,16.9,3.9c1.3,3.7,1.2,7.5,0.1,11.3C34.6,32.8,25.9,36.9,18.9,29.8z M30.6,20.2
		c0-0.3,0-1.2-0.1-2c-0.5-3-2.3-4.8-5.1-5.2c-2.2-0.3-4.6,0.9-5.5,3c-1.3,3-1.3,6-0.1,9c1,2.3,3.6,3.5,6.2,3
		C29.2,27.1,30.6,24.9,30.6,20.2z"/>
</g>
</svg>
