<?xml version="1.0" encoding="utf-8"?>
<!-- Generator: Adobe Illustrator 23.0.1, SVG Export Plug-In . SVG Version: 6.00 Build 0)  -->
<svg version="1.1" id="Layer_1" xmlns="http://www.w3.org/2000/svg" xmlns:xlink="http://www.w3.org/1999/xlink" x="0px" y="0px"
	 viewBox="0 0 50 50" style="enable-background:new 0 0 50 50;" xml:space="preserve">
<g>
	<path d="M33.2,12.9c-1.3-0.7-2.7-1.4-4.3-1.7c0,11.2,0,22.3,0,33.6c0.2-0.1,0.4-0.2,0.6-0.3c1.4-0.9,2.8-1.8,4.2-2.6
		c0.4-0.3,0.6-0.6,0.6-1.1c0-8.6,0-17.2,0-25.8C34.3,13.9,34,13.4,33.2,12.9z"/>
	<path d="M21.1,11.4c-1.7,0.4-3.2,1.1-4.6,2.1c-0.2,0.1-0.3,0.5-0.3,0.7c0,9,0,18,0,27c0,0.4,0.1,0.6,0.5,0.8
		c1.3,0.8,2.6,1.6,3.9,2.4c0.3,0.2,0.6,0.4,1,0.6c0-11.3,0-22.4,0-33.6C21.4,11.4,21.2,11.4,21.1,11.4z"/>
	<path d="M14.2,7.2c-1.1,1.7-2.3,3.4-3.4,5.1c-1.2,2.2-1.8,4.5-1.7,7c0.1,4.9,0,9.7,0,14.6c0,0.4,0,0.8,0,1.1c0.5,3.3,3,4.8,5.7,6.1
		c0-11.5,0-23,0-34.4c-0.1,0-0.1-0.1-0.2-0.1C14.6,6.8,14.4,6.9,14.2,7.2z"/>
	<path d="M22.9,37.2c1.7,0,3.3,0,4.9,0c0-10.8,0-21.5,0-32.2c-1.7,0-3.3,0-4.9,0C22.9,15.7,22.9,26.4,22.9,37.2z"/>
	<path d="M40.8,17.5c0-3.9-1.5-7.1-4.3-9.8c-0.3-0.3-0.7-0.5-1.1-0.9c0,11.4,0,22.7,0,34.2c1.1-0.7,2.1-1.2,3.1-1.8
		c1.5-1,2.3-2.4,2.3-4.2C40.9,29.1,40.9,23.3,40.8,17.5z"/>
</g>
</svg>
