<?xml version="1.0" encoding="utf-8"?>
<!-- Generator: Adobe Illustrator 22.0.1, SVG Export Plug-In . SVG Version: 6.00 Build 0)  -->
<svg version="1.1" id="Layer_1" xmlns="http://www.w3.org/2000/svg" xmlns:xlink="http://www.w3.org/1999/xlink" x="0px" y="0px"
	 viewBox="0 0 25 25" style="enable-background:new 0 0 25 25;" xml:space="preserve">
<g>
	<g>
		<path d="M17.9,12.3c0,0-1.4,1.2-2.8-0.3v5.5H22c0,0,1-0.1,0.9-1.5l0-7.2L17.9,12.3z M22.9,7.1c0-0.9-0.8-0.8-0.8-0.8h-7v4.1l1.5,1
			L22.9,7.1z M2.1,20.6L14.3,23V2L2.1,4.1V20.6z M8.2,8.6c1.5,0,2.8,1.7,2.8,3.7c0,2.1-1.2,3.7-2.8,3.7c-1.5,0-2.8-1.7-2.8-3.7
			C5.4,10.3,6.7,8.6,8.2,8.6z M8.2,14.5c0.7,0,1.3-1,1.3-2.2s-0.6-2.2-1.3-2.2c-0.7,0-1.3,1-1.3,2.2S7.4,14.5,8.2,14.5z"/>
	</g>
</g>
</svg>
