<?xml version="1.0" encoding="utf-8"?>
<!-- Generator: Adobe Illustrator 22.0.1, SVG Export Plug-In . SVG Version: 6.00 Build 0)  -->
<svg version="1.1" id="Layer_1" xmlns="http://www.w3.org/2000/svg" xmlns:xlink="http://www.w3.org/1999/xlink" x="0px" y="0px"
	 viewBox="0 0 25 25" style="enable-background:new 0 0 25 25;" xml:space="preserve">
<g>
	<g>
		<path d="M23.7,15.7c0-0.5-0.3-0.9-0.8-0.9c-1.2-0.1-2.5-0.1-3.7-0.1c-1.1,0-2.1,0.1-3.2,0.2c0,0,0,0,0,0c-0.3,0-0.6,0-1,0.1
			c-0.8,0.1-1.7,0.2-2.5,0.3c-1.1,0.2-2.3,0.3-3.4,0.5c-1.2,0.2-2.3,0.5-3.4,0.8C4.3,17,3,17.5,1.8,18.3c-0.4,0.2-0.6,0.6-0.6,1
			c0.1,0.7,0.2,1.5,0.4,2.2c0.1,0.5,0.4,0.8,0.9,0.9c0.4,0,0.8,0,1.1-0.1c0.7-0.2,1.3-0.4,2-0.5c1.5-0.3,3-0.5,4.6-0.7
			c0.8-0.1,1.6-0.3,2.3-0.3c0.6-0.1,1.3,0,1.9-0.1c0.8,0,1.6,0,2.3,0c1,0,1.9-0.1,2.9-0.1c1,0,2,0,3-0.1c0.9-0.1,1.3-0.5,1.3-1.5
			C23.8,17.9,23.8,16.8,23.7,15.7z M4.6,20.8c-0.2,0-0.3-0.1-0.3-0.3c0-0.2,0.1-0.4,0.3-0.4c0.1,0,0.3,0.2,0.5,0.4
			C4.9,20.6,4.8,20.7,4.6,20.8z M5,19.2c-0.3,0-0.4-0.2-0.4-0.5c0-0.3,0.2-0.5,0.4-0.5c0.2,0,0.5,0.2,0.5,0.5
			C5.5,18.9,5.3,19.2,5,19.2z M6.1,20.8c-0.2,0-0.4-0.2-0.4-0.5c0-0.3,0.2-0.5,0.4-0.5c0.3,0,0.5,0.2,0.5,0.4
			C6.6,20.5,6.4,20.7,6.1,20.8z M6.9,19c-0.2-0.2-0.3-0.3-0.3-0.4c0-0.1,0.2-0.3,0.3-0.3c0.1,0,0.3,0.2,0.3,0.3
			C7.2,18.7,7,18.8,6.9,19z M7.5,20.5c-0.3,0-0.4-0.1-0.4-0.4c0-0.3,0.2-0.5,0.4-0.5C7.8,19.6,8,19.7,8,20
			C8.1,20.3,7.8,20.5,7.5,20.5z M8.2,19.1c-0.3,0-0.5-0.2-0.5-0.5c0-0.3,0.2-0.5,0.5-0.5c0.2,0,0.4,0.2,0.4,0.5
			C8.6,18.9,8.4,19.2,8.2,19.1z M8.4,17.4C8.1,17.3,8,17.2,8,17c0-0.2,0.1-0.4,0.3-0.3c0.1,0,0.3,0.2,0.3,0.3
			C8.7,17.2,8.6,17.3,8.4,17.4z M9.3,19.5c-0.2,0-0.4-0.2-0.4-0.4c0-0.3,0.1-0.5,0.4-0.5c0.3,0,0.4,0.2,0.4,0.4
			C9.8,19.2,9.5,19.5,9.3,19.5z M10.8,19.6c-0.3,0-0.4-0.1-0.4-0.3c0-0.2,0.1-0.3,0.3-0.3c0.2,0,0.3,0.1,0.3,0.3
			C11,19.5,10.9,19.6,10.8,19.6z M10.8,17.5c-0.3,0-0.5,0-0.5-0.3c0-0.2,0.2-0.4,0.5-0.4c0.3,0,0.5,0.2,0.5,0.4
			C11.2,17.5,11,17.6,10.8,17.5z M11.8,18.9c-0.2,0-0.5-0.3-0.5-0.6c0-0.3,0.2-0.3,0.4-0.4c0.3,0,0.5,0.2,0.5,0.4
			C12.3,18.7,12,18.9,11.8,18.9z M12,16.9c-0.3,0-0.5-0.2-0.5-0.5c0-0.2,0.3-0.4,0.5-0.4c0.3,0,0.5,0.2,0.5,0.5
			C12.4,16.7,12.2,17,12,16.9z M15.5,17.1c0-0.3,0.3-0.6,0.6-0.6c0.3,0,0.7,0.3,0.7,0.6c0,0.3-0.3,0.6-0.7,0.6
			C15.8,17.7,15.6,17.4,15.5,17.1z M16.9,19.8c-0.3,0-0.6-0.3-0.6-0.6c0-0.4,0.3-0.7,0.6-0.7c0.3,0,0.6,0.3,0.6,0.7
			C17.5,19.5,17.2,19.8,16.9,19.8z M18.4,19c-0.4,0-0.7-0.3-0.7-0.7c0-0.3,0.3-0.6,0.7-0.6c0.4,0,0.7,0.2,0.7,0.6
			C19.1,18.7,18.8,19,18.4,19z M19.7,17.9c-0.3,0-0.6-0.3-0.6-0.6c0-0.4,0.2-0.6,0.6-0.6c0.4,0,0.7,0.3,0.6,0.6
			C20.3,17.6,20,17.9,19.7,17.9z M5.4,9.9c0,0.3,0.2,0.7,0.2,1c0.2,1,0.4,1.9,0.8,2.8c0.1,0.2,0.2,0.3,0.4,0.3
			c0.7,0.1,1.5,0.3,2.2,0.4c1.1,0.3,2.1,0.4,3.2,0.4c0.6,0,1.3,0,1.9-0.1c0.8-0.1,1.6-0.1,2.4-0.2c0.4-0.1,0.9-0.2,1.3-0.3
			c1-0.1,2.1-0.3,3.1-0.4c0.5-0.1,0.7-0.3,0.8-0.8c0.3-1.4,0.2-2.8-0.1-4.2c-0.2-1-0.3-2-0.5-3c-0.2-1-0.3-2.1-0.3-3.1
			c0-0.4-0.5-0.9-0.9-0.8c-0.7,0.1-1.5,0.2-2.2,0.2c-1.7,0-3.4,0.1-5.1,0.1C11.1,2.1,9.6,2,8,2C7.6,2,7.1,2,6.8,2.4
			c-0.6,0.8-1,1.7-1.3,2.7C5.1,6.3,5.2,7.5,5.3,8.7C5.3,9.1,5.3,9.5,5.4,9.9z M7.1,8.1c0.1-1.1,0.3-2.3,0.4-3.4c0-0.3,0-0.6,0.1-0.9
			C7.7,3.4,7.8,3.1,8,2.8C8,2.7,8.2,2.6,8.3,2.6c0.6,0,1.1,0,1.7,0.1c1.1,0.2,2.1,0.5,3.2,0.6c1.1,0.1,2.2,0.2,3.3,0
			c0.8-0.1,1.5-0.2,2.3-0.3c0.7-0.1,1.1,0.4,1.1,1.1c0,1.5,0,3,0,4.5c0,0,0,0,0,0C20,9.5,20,10.2,20.1,11c0.1,1-0.2,1.4-1.2,1.6
			c-1.2,0.3-2.4,0.5-3.6,0.7c-0.7,0.1-1.4,0.1-2.1,0.2c-0.3,0-0.5,0.1-0.8,0.2c-0.1,0-0.3,0.1-0.4,0.1c-1.1,0-2.3,0-3.4-0.3
			c-0.3-0.1-0.6-0.1-0.9-0.2c-0.5-0.1-0.7-0.5-0.7-1C7,10.9,7,9.5,7.1,8.1z M9.3,10.7c-0.2-0.1-0.3-0.2-0.5-0.3
			c0.2-0.1,0.2-0.1,0.3-0.1c0.3,0,0.4-0.2,0.4-0.4c0-0.1,0.1-0.2,0.1-0.3c0.8-0.3,1.7-0.6,2.5-0.8c0.2,0.2,0.3,0.3,0.5,0.5
			c-0.2,0-0.3,0-0.5,0.1v1h1v-1c-0.2,0-0.3,0-0.5-0.1c0.3-0.3,0.7-0.4,1.1-0.5c0.6,0,0.6,0.5,0.9,0.7c-0.1,0-0.3,0-0.4,0.1v1h1v-1
			c-0.2,0-0.3,0-0.5-0.1C14.8,9.3,15,9.2,15,9.1c0-0.3,0.3-0.4,0.5-0.5c0.3-0.1,0.5-0.3,0.8-0.4c0.1,0,0.2,0,0.3,0
			c0.2,0.1,0.4,0.1,0.6-0.1c0.1-0.1,0.2-0.2,0.3-0.2c0.2-0.1,0.5-0.1,0.6-0.1c0.2,0.2,0.3,0.3,0.5,0.5c0,0,0.1,0.1,0.1,0.2
			c0,0-0.1,0.1-0.1,0.1c-0.1,0-0.2,0-0.3,0v1h1.1v-1c-0.2,0-0.3,0-0.6,0C19,8.4,19,8.3,19.1,8.2c0.2-0.2,0.2-0.6,0-0.7
			c-0.4-0.2-0.6-0.6-0.9-0.9C18,6.4,17.9,6.3,17.9,6c0-0.1-0.1-0.2-0.2-0.4c-0.1-0.1-0.1-0.2-0.2-0.3c0.2,0,0.4,0,0.5,0V4.2h-1v1.1
			c0.2,0,0.3,0,0.4,0c0,0.1,0,0.2,0,0.2C17.2,5.7,17,5.9,16.7,6c-0.4,0.2-0.8,0.3-1.3,0.4c-0.5,0.1-1,0.5-1.5,0.3
			c-0.1,0-0.2,0-0.2,0.1c-0.1,0-0.2,0.1-0.2,0.1c-0.8-0.1-1.7-0.2-2.5-0.4c-0.2,0-0.3-0.3-0.5-0.4c0.1,0,0.3-0.1,0.4-0.1
			c0,0,0,0,0.1,0V5h-1v1c0.2,0,0.3,0,0.5,0c-0.2,0.2-0.4,0.3-0.4,0.4c-0.1,0.2,0,0.4,0,0.5c0,0,0,0.1-0.1,0.2
			c-0.3,0.7-0.6,1.3-0.9,2c0,0.1-0.1,0.2-0.1,0.2c-0.5,0.2-0.5,0.5-0.3,0.9c0,0,0,0-0.1,0.1c-0.1,0-0.3-0.1-0.4-0.1
			c-0.2,0.3-0.3,0.6-0.5,0.9c0.3,0.2,0.6,0.3,1,0.5C9,11.3,9.1,11,9.3,10.7z M19.3,8.7v0.8h-0.8V8.7H19.3z M13,9.4v0.8h-0.8V9.4H13z
			 M13,8.5c0.4-0.3,0.5-0.3,1.1,0.2C13.7,8.7,13.3,8.8,13,8.5z M14.9,9.6c0.1,0,0.2,0.1,0.2,0.2c0,0.2,0,0.4,0,0.7h-0.8V9.6
			C14.5,9.6,14.7,9.6,14.9,9.6z M17.2,5.2V4.3h0.8v0.8H17.2z M17.9,6.5c0.3,0.3,0.5,0.6,0.7,0.9c-0.3,0.4-0.8,0.3-1.2,0.4
			c-0.6-0.3-0.3-0.8-0.2-1.2C17.4,6.4,17.8,6.3,17.9,6.5z M14.9,6.8c0.4-0.1,0.8-0.3,1.2-0.4c0,0,0,0,0,0.1c-0.6,0.3-1.1,0.6-1.7,1
			C14.3,7,14.6,6.9,14.9,6.8z M14.8,7.4c0.8-0.4,1.5-0.9,2.4-1.3c0,0.2,0.1,0.4,0,0.6c-0.1,0.4-0.3,0.7-0.5,1c-0.4,0.6-1,0.7-1.5,1
			c-0.1,0-0.2,0-0.3,0c-0.2,0-0.3-0.1-0.5-0.1C14.1,7.8,14.1,7.8,14.8,7.4z M14,7.8c0.1,0.3,0.2,0.5,0.3,0.8
			c-0.3-0.2-0.5-0.3-0.8-0.5C13.7,8,13.8,7.9,14,7.8z M12.1,6.8C12.5,6.9,12.9,7,13.3,7c0.1,0,0.2,0.1,0.2,0.1
			c0.1,0.2,0.2,0.4,0.3,0.6c-0.5,0.4-0.5,0.4-1,0.1c-0.6-0.3-1.2-0.7-1.8-1.1C11.4,6.7,11.8,6.8,12.1,6.8z M10.1,5.9V5.1h0.8v0.8
			H10.1z M10.2,7.3c0-0.1,0.1-0.1,0.2-0.2C10.5,7,10.7,7,11,6.9c0.7,0.4,1.4,0.8,2.2,1.2c0,0,0,0.1,0,0.1c-0.1,0-0.2,0-0.3,0
			c-0.3,0-0.5,0-0.6,0.3c0,0.1-0.2,0.1-0.2,0.2C11.1,9,10.4,9.2,9.6,9.5c-0.1,0-0.2,0-0.4,0C9.5,8.7,9.8,8,10.2,7.3z M8.6,11.4
			c-0.2-0.1-0.3-0.2-0.5-0.3c0.1-0.2,0.2-0.5,0.4-0.7c0.2,0.1,0.5,0.2,0.7,0.4c-0.1,0.2-0.2,0.4-0.3,0.6C8.7,11.4,8.6,11.4,8.6,11.4
			z"/>
	</g>
</g>
</svg>
