<?xml version="1.0" encoding="utf-8"?>
<!-- Generator: Adobe Illustrator 22.0.1, SVG Export Plug-In . SVG Version: 6.00 Build 0)  -->
<svg version="1.1" id="Layer_1" xmlns="http://www.w3.org/2000/svg" xmlns:xlink="http://www.w3.org/1999/xlink" x="0px" y="0px"
	 viewBox="0 0 50 50" style="enable-background:new 0 0 50 50;" xml:space="preserve">
<g>
	<g>
		<path d="M39.7,9.7h-1.5v1.5h1.5V9.7z M47.2,6.7V5.1h-1.6v1.6H47.2z M44.3,8.2h-1.7v1.5h1.7V8.2z M42.6,11.2V9.7h-1.5v1.5H42.6z
			 M36.8,8.3v1.4h1.5V8.3H36.8z M44.1,3.6v1.6h1.6V3.6H44.1z M47.2,2h-1.6v1.6h1.6V2z M41.2,6.7h-1.4v3h1.4V8.2h1.5V6.7h1.4V5.1
			h-2.9V6.7z M39.7,12.7h-1.5v-1.5h-2.5v1.1h-0.2c-3.4-2.5-7.5-4-12-4c-11.1,0-20.2,9.1-20.2,20.2c0,11.1,9.1,20.2,20.2,20.2
			c11.1,0,20.2-9.1,20.2-20.2c0-4.9-1.8-9.4-4.7-12.9h0.8v-1.2h1.3v-3.1h-1.4V12.7z M33.4,38.2c-2.6,2.6-6.1,4-9.8,4
			c-3.7,0-7.2-1.4-9.8-4c-2.6-2.6-4-6.1-4-9.8c0-3.7,1.4-7.2,4-9.8c2.6-2.6,6.1-4,9.8-4c2.8,0,5.5,0.9,7.8,2.4v0.3h-1v1.5h-1.1
			c-1.2,1.8-4.3,7.4-5.2,9.7c-3.3-4.6-5.9-6.4-7.9-7.1c-1.1-0.3-2.4,0.9-0.6,2.7c4.2,4.6,5.5,8.4,6.8,11.4c0.7,1.6,3.7,1.8,4.3,0.2
			c1.3-3.4,3.1-7.3,5.3-10.5v-1.6h1.2v-1.5h1.2v-1.7h0.4c1.6,2.3,2.5,5.1,2.5,8C37.4,32.2,36,35.6,33.4,38.2z"/>
	</g>
</g>
</svg>
