<?xml version="1.0" encoding="utf-8"?>
<!-- Generator: Adobe Illustrator 22.0.1, SVG Export Plug-In . SVG Version: 6.00 Build 0)  -->
<svg version="1.1" id="Layer_1" xmlns="http://www.w3.org/2000/svg" xmlns:xlink="http://www.w3.org/1999/xlink" x="0px" y="0px"
	 viewBox="0 0 25 25" style="enable-background:new 0 0 25 25;" xml:space="preserve">
<g>
	<g>
		<path d="M17.7,4.6v0.7h0.7V4.6H17.7z M21.2,4.5h-0.8v0.7h0.8V4.5z M22.6,3.8V3.1h-0.7v0.7H22.6z M20.5,5.9V5.2h-0.7v0.7H20.5z
			 M19.1,6.6h-0.7V5.9h-1.1v0.5h-0.1c-1.6-1.2-3.5-1.9-5.6-1.9c-5.2,0-9.4,4.2-9.4,9.4c0,5.2,4.2,9.4,9.4,9.4c5.2,0,9.4-4.2,9.4-9.4
			c0-2.3-0.8-4.4-2.2-6h0.4V7.4h0.6V5.9h-0.7V6.6z M16.1,18.5c-1.2,1.2-2.8,1.9-4.6,1.9c-1.7,0-3.3-0.7-4.6-1.9
			c-1.2-1.2-1.9-2.8-1.9-4.6c0-1.7,0.7-3.3,1.9-4.6c1.2-1.2,2.8-1.9,4.6-1.9c1.3,0,2.6,0.4,3.7,1.1v0.1h-0.5v0.7h-0.5
			c-0.6,0.8-2,3.5-2.4,4.5c-1.5-2.2-2.7-3-3.7-3.3C7.6,10.5,7,11.1,7.9,12c1.9,2.1,2.6,3.9,3.2,5.3c0.3,0.7,1.7,0.9,2,0.1
			c0.6-1.6,1.5-3.4,2.5-4.9v-0.8h0.5V11h0.6v-0.8h0.2c0.8,1.1,1.2,2.4,1.2,3.7C18,15.7,17.3,17.3,16.1,18.5z M21.1,2.3v0.7h0.7V2.3
			H21.1z M22.6,1.6h-0.7v0.7h0.7V1.6z M19.1,5.2h-0.7v0.7h0.7V5.2z M19.8,3.8h-0.7v1.4h0.7V4.5h0.7V3.8h0.7V3.1h-1.3V3.8z"/>
	</g>
</g>
</svg>
