<!-- Generated by IcoMoon.io -->
<svg version="1.1" xmlns="http://www.w3.org/2000/svg" width="32" height="32" viewBox="0 0 32 32">
<title>Nessus_IntegrationImage</title>
<path d="M30.336 18.56l-3.456-12.16c-0.256-0.768-0.768-1.28-1.536-1.408l-12.288-3.2c-0.768-0.128-1.536 0-2.048 0.512l-8.96 9.088c-0.512 0.512-0.768 1.28-0.512 2.048l3.584 12.16c0.256 0.768 0.768 1.28 1.536 1.408l12.288 3.2c0.768 0.128 1.536 0 2.048-0.512l8.96-9.088c0.384-0.512 0.512-1.28 0.384-2.048zM19.968 21.504h-1.408l-3.968-6.912-1.152-2.304h-0.128c0.128 1.152 0.128 2.304 0.128 3.456v5.76h-1.28v-11.008h1.408l3.968 6.912 1.152 2.304h0.128c-0.128-1.152-0.128-2.304-0.128-3.456v-5.76h1.28v11.008z"></path>
</svg>
