<?xml version="1.0" encoding="utf-8"?>
<!-- Generator: Adobe Illustrator 24.2.1, SVG Export Plug-In . SVG Version: 6.00 Build 0)  -->
<svg version="1.1" id="Layer_1" xmlns="http://www.w3.org/2000/svg" xmlns:xlink="http://www.w3.org/1999/xlink" x="0px" y="0px"
	 viewBox="0 0 25 25" style="enable-background:new 0 0 25 25;" xml:space="preserve">
<g>
	<g>
		<path d="M4.9,12.7c-0.5,0-0.9,0.4-0.9,0.9v1.8c0,0.5,0.4,0.9,0.9,0.9c0.5,0,0.9-0.4,0.9-0.9v-1.8C5.8,13.1,5.4,12.7,4.9,12.7z
			 M9,10.3c-0.5,0-0.9,0.4-0.9,0.9v4.2c0,0.5,0.4,0.9,0.9,0.9s0.9-0.4,0.9-0.9v-4.2C9.9,10.7,9.5,10.3,9,10.3z M13,7
			c-0.5,0-0.9,0.4-0.9,0.9v9.3c0,0.5,0.4,0.9,0.9,0.9c0.5,0,0.9-0.4,0.9-0.9V7.9C13.9,7.4,13.5,7,13,7z M17,10.3
			c-0.5,0-0.9,0.4-0.9,0.9v4.2c0,0.5,0.4,0.9,0.9,0.9c0.5,0,0.9-0.4,0.9-0.9v-4.2C18,10.7,17.6,10.3,17,10.3z M21.1,12.7
			c-0.5,0-0.9,0.4-0.9,0.9v1.8c0,0.5,0.4,0.9,0.9,0.9c0.5,0,0.9-0.4,0.9-0.9v-1.8C22,13.1,21.6,12.7,21.1,12.7z"/>
	</g>
</g>
</svg>
