<?xml version="1.0" encoding="utf-8"?>
<!-- Generator: Adobe Illustrator 22.0.1, SVG Export Plug-In . SVG Version: 6.00 Build 0)  -->
<svg version="1.1" id="Layer_1" xmlns="http://www.w3.org/2000/svg" xmlns:xlink="http://www.w3.org/1999/xlink" x="0px" y="0px"
	 viewBox="0 0 25 25" style="enable-background:new 0 0 25 25;" xml:space="preserve">
<g>
	<g>
		<path d="M20,3.9c-4.8-4.2-11.6-3.2-14.8,0c0.2,0.2,0.5,0.5,0.7,0.7c4.2-3.5,9.9-3,13.4,0.1c1.8,1.6,2.9,3.6,3.3,5.9
			c0.5,3.2-0.3,6-2.3,8.4c0.3,0.3,0.5,0.6,0.7,0.8C24.9,15.7,25,8.3,20,3.9z M5.8,20.2c-1.7-1.5-2.9-3.4-3.3-5.7
			c-0.6-3.1,0.1-6,2.1-8.5C4.3,5.8,4.1,5.5,3.8,5.2c-2.4,3.1-3.2,6.5-2.2,10.2c1.2,4.4,4.2,7.2,8.6,8.1c3.5,0.8,6.7-0.1,9.5-2.4
			c-0.3-0.3-0.5-0.5-0.8-0.8C14.8,23.7,9.3,23.2,5.8,20.2z M13.8,20.5c-2.5,0.4-4.8-0.3-6.7-1.9c-0.2,0.2-0.4,0.4-0.7,0.6
			c3.4,3.2,9.3,3.2,12.8-0.8c3.4-3.9,2.5-9.2,0-11.8c-0.2,0.2-0.4,0.4-0.6,0.6c2.8,3.3,2.4,7.9-0.1,10.7
			C17.3,19.3,15.7,20.2,13.8,20.5z M10.1,3.8c-3.5,1-5.7,3.3-6.5,6.9c-0.6,2.8,0.1,5.4,1.9,7.6C5.8,18,6,17.9,6.2,17.7
			C3.5,14.3,3.9,9.9,6.3,7.1c1.2-1.4,2.7-2.3,4.5-2.6c2.5-0.5,4.8,0.1,6.8,1.6c0.2-0.2,0.4-0.4,0.6-0.6C15.8,3.6,13.1,2.9,10.1,3.8z
			 M10.3,16.5v0.8h4.4v-0.8h-1.1V8.4h1.1V7.6h-4.4v0.8h1.1v8.1H10.3z"/>
	</g>
</g>
</svg>
